<?xml version="1.0" encoding="utf-8"?>
<!-- Generator: Adobe Illustrator 22.1.0, SVG Export Plug-In . SVG Version: 6.00 Build 0)  -->
<svg version="1.1" id="Layer_1" xmlns="http://www.w3.org/2000/svg" xmlns:xlink="http://www.w3.org/1999/xlink" x="0px" y="0px"
	 width="825px" height="250px" viewBox="0 0 825 250" style="enable-background:new 0 0 825 250;" xml:space="preserve">
<style type="text/css">
	.st0{opacity:0.85;}
	.st1{fill:#FFFFFF;}
	.st2{display:none;}
	.st3{display:inline;fill:#777777;}
	.st4{fill:#FEC325;}
	.st5{fill:#FFC627;}
	.st6{fill:#83847A;}
	.st7{fill:#231F20;}
	.st8{opacity:0.75;fill:#FFC627;enable-background:new    ;}
	.st9{fill:#4D4D4D;}
	.st10{fill:#808080;}
	.st11{fill:#252525;}
	.st12{filter:url(#black-glow_1_);}
	.st13{fill:#0071BB;}
</style>
<filter  height="3" id="black-glow_1_" width="3" x="-.25" y="-.25">
	
		<feColorMatrix  type="matrix" values="0 0 0 0   0                          0 0 0 0   0                          0 0 0 0   0                          0 0 0 0.7 0">
		</feColorMatrix>
	<feGaussianBlur  result="coloredBlur" stdDeviation="3"></feGaussianBlur>
	<feMerge>
		<feMergeNode  in="coloredBlur"></feMergeNode>
		<feMergeNode  in="SourceGraphic"></feMergeNode>
	</feMerge>
</filter>
<g id="Layer_2_1_">
</g>
<g class="st0">
	<path class="st1" d="M255,37.9c-0.6-2.2-2.3-3.9-4.4-4.5c-3.9-1.1-19.5-1.1-19.5-1.1s-15.6,0-19.5,1.1c-2.2,0.6-3.8,2.3-4.4,4.5
		c-1,3.9-1,12.1-1,12.1s0,8.2,1,12.1c0.6,2.2,2.3,3.9,4.4,4.4c3.9,1.1,19.5,1.1,19.5,1.1s15.6,0,19.5-1.1c2.2-0.6,3.8-2.3,4.4-4.5
		c1-3.9,1-12.1,1-12.1S256,41.8,255,37.9 M225.9,57.4V42.6L239,50L225.9,57.4z"/>
</g>
<g id="black_background" class="st2">
	<rect y="0" class="st3" width="825" height="250"/>
</g>
<path class="st4" d="M367,0v13.6l5.5-3.9l5.5,3.9V0H367z"/>
<g>
	<rect x="314.2" y="42.4" class="st1" width="21.8" height="5.5"/>
	<rect x="314.2" y="34.2" class="st1" width="21.8" height="5.5"/>
	<rect x="314.2" y="26" class="st1" width="21.8" height="5.5"/>
	<circle class="st1" cx="308.7" cy="36.9" r="2.7"/>
	<circle class="st1" cx="308.7" cy="28.7" r="2.7"/>
	<circle class="st1" cx="308.7" cy="45.1" r="2.7"/>
</g>
<path class="st1" d="M87,58.8h-3.1v-3.1h-2.5v3.1h-3.1v2.5h3.1v3.1h2.5v-3.1H87 M67,58.1V62h5.5C72,64.4,70,66.1,67,66.1
	c-3.3,0-6-2.8-6-6.1s2.7-6.1,6-6.1c1.5,0,2.8,0.5,3.9,1.5l0,0l2.8-2.8C72,51,69.7,50,67,50c-5.5,0-10,4.5-10,10s4.5,10,10,10
	c5.8,0,9.6-4.1,9.6-9.8c0-0.7-0.1-1.4-0.2-2.1C76.4,58.1,67,58.1,67,58.1z"/>
<g>
	<path class="st1" d="M29.5,2.8c-1.1,0.5-2.3,0.8-3.5,1c1.3-0.8,2.2-1.9,2.7-3.4c-1.2,0.7-2.5,1.2-3.8,1.5C23.8,0.7,22.2,0,20.4,0
		c-3.3,0-6.1,2.7-6.1,6.1c0,0.5,0.1,0.9,0.2,1.4C9.5,7.2,5,4.8,2.1,1.1C1.5,2,1.2,3,1.2,4.2c0,2.1,1.1,4,2.7,5c-1,0-1.9-0.3-2.7-0.8
		v0.1c0,2.9,2.1,5.4,4.9,5.9c-0.5,0.1-1,0.2-1.6,0.2c-0.4,0-0.8,0-1.1-0.1c0.8,2.4,3,4.2,5.7,4.2c-2.1,1.6-4.7,2.6-7.5,2.6
		c-0.5,0-1,0-1.4-0.1C2.7,23,5.9,24,9.3,24c11.1,0,17.2-9.2,17.2-17.2c0-0.3,0-0.5,0-0.8C27.7,5.1,28.7,4.1,29.5,2.8L29.5,2.8z"/>
</g>
<path class="st1" d="M155,10.5h-3.8V6.8h-3v3.8h-3.8v3h3.8v3.8h3v-3.8h3.8 M131,9.8v4.7h6.5c-0.5,2.8-2.9,4.9-6.5,4.9
	c-4,0-7.2-3.4-7.2-7.3s3.2-7.3,7.2-7.3c1.8,0,3.4,0.6,4.6,1.8l0,0l3.4-3.4c-2.1-1.9-4.8-3.1-8-3.1c-6.6,0-12,5.4-12,12s5.4,12,12,12
	c6.9,0,11.5-4.9,11.5-11.7c0-0.9-0.1-1.7-0.2-2.5L131,9.8L131,9.8z"/>
<g>
	<path class="st1" d="M42,0c-6.6,0-12,5.4-12,12c0,5.1,3.2,9.4,7.6,11.2c-0.1-0.9-0.2-2.4,0-3.4c0.2-0.9,1.4-6,1.4-6
		S38.7,13,38.7,12c0-1.7,1-2.9,2.2-2.9c1,0,1.5,0.8,1.5,1.7c0,1-0.7,2.6-1,4C41.1,16,42,17,43.2,17c2.1,0,3.8-2.2,3.8-5.5
		c0-2.9-2.1-4.9-5-4.9c-3.4,0-5.4,2.6-5.4,5.2c0,1,0.4,2.1,0.9,2.7c0.1,0.1,0.1,0.2,0.1,0.3c-0.1,0.4-0.3,1.2-0.3,1.4
		c-0.1,0.2-0.2,0.3-0.4,0.2c-1.5-0.7-2.4-2.9-2.4-4.6c0-3.8,2.8-7.3,7.9-7.3c4.2,0,7.4,3,7.4,6.9c0,4.1-2.6,7.5-6.2,7.5
		c-1.2,0-2.4-0.6-2.8-1.4c0,0-0.6,2.3-0.7,2.9c-0.3,1-1,2.4-1.5,3.1c1.1,0.3,2.3,0.5,3.6,0.5c6.6,0,12-5.4,12-12S48.6,0,42,0z"/>
</g>
<g>
	<path class="st1" d="M116.7,1.3c-0.9-0.9-1.9-1.3-3.2-1.3h-15c-1.2,0-2.3,0.4-3.2,1.3c-0.9,0.9-1.3,2-1.3,3.2v15
		c0,1.2,0.4,2.3,1.3,3.2c0.9,0.9,1.9,1.3,3.2,1.3h15c1.2,0,2.3-0.4,3.2-1.3c0.9-0.9,1.3-1.9,1.3-3.2v-15
		C118,3.3,117.6,2.2,116.7,1.3L116.7,1.3z M103.9,14.3c-0.6,0.6-1.4,1-2.3,1s-1.7-0.3-2.3-1c-0.6-0.6-1-1.4-1-2.3s0.3-1.7,1-2.3
		s1.4-1,2.3-1s1.7,0.3,2.3,1c0.6,0.6,1,1.4,1,2.3S104.6,13.7,103.9,14.3L103.9,14.3z M112.8,14.3c-0.6,0.6-1.4,1-2.3,1
		s-1.7-0.3-2.3-1c-0.6-0.6-1-1.4-1-2.3s0.3-1.7,1-2.3s1.4-1,2.3-1s1.7,0.3,2.3,1c0.6,0.6,1,1.4,1,2.3
		C113.7,12.9,113.4,13.7,112.8,14.3L112.8,14.3z"/>
</g>
<g>
	<path class="st1" d="M203.6,11.4c-0.1,0.1-0.2,0.1-0.3,0.2V2.3c0-1.3-1-2.3-2.2-2.3h-16.8c-1.2,0-2.2,1-2.2,2.3v9.3
		c-0.1-0.1-0.2-0.1-0.3-0.2c-0.7-0.5-1.2,0.2-0.7,0.8c0.9,1,2.5,2.4,5,3.4c-2.6,9,6.4,10.4,6.3,5.8c0,0.1,0-2.6,0-4.5
		c0.2,0.1,0.4,0.1,0.6,0.2c0,1.9,0,4.5,0,4.4c-0.1,4.6,8.9,3.2,6.3-5.8c2.5-1,4.1-2.3,5-3.4C204.8,11.6,204.4,10.9,203.6,11.4
		L203.6,11.4z M194.7,13.7c-1.1-0.1-1.5,0.4-1.6,1.2c-0.3-0.2-0.5-0.4-0.8-0.7l-0.1-0.1c-0.2-0.3-0.6-0.4-1.3-0.4
		c-1.5,0-4.2,0.3-7.4-1.3v-9c0-1.6,0.4-2.1,1.9-2.1h14.9c1.4,0,1.9,0.6,1.9,2.1v8.9C199,14.1,196.2,13.8,194.7,13.7L194.7,13.7z"/>
	<path class="st1" d="M196.3,7.2c-1.6,0-2.9,1.2-2.9,2.7s1.3,2.7,2.9,2.7c1.6,0,2.9-1.2,2.9-2.7S197.9,7.2,196.3,7.2L196.3,7.2z"/>
	<path class="st1" d="M192.5,9.9c0,1.5-1.3,2.7-2.9,2.7s-2.9-1.2-2.9-2.7s1.3-2.7,2.9-2.7S192.5,8.4,192.5,9.9L192.5,9.9z"/>
</g>
<path class="st1" d="M63.1,24V13.1h3.7l0.5-4.3h-4.2V6.1c0-1.2,0.3-2.1,2.1-2.1h2.3V0.2c-0.4,0-1.7-0.2-3.3-0.2
	c-3.3,0-5.5,2-5.5,5.6v3.1H55V13h3.7v11H63.1z"/>
<g>
	<path class="st1" d="M165.8,14.6c1.8-0.9,3.6-1.9,5.4-2.8c-1.8-0.9-3.6-1.9-5.4-2.8V14.6z"/>
	<path class="st1" d="M168,0c-6.6,0-12,5.4-12,12s5.4,12,12,12s12-5.4,12-12S174.6,0,168,0L168,0z M176.2,16
		c-0.2,0.9-0.9,1.6-1.8,1.7c-2.1,0.2-4.2,0.2-6.3,0.2s-4.2,0-6.3-0.2c-0.9-0.1-1.6-0.8-1.8-1.7c-0.3-1.3-0.3-2.7-0.3-4s0-2.7,0.3-4
		c0.2-0.9,0.9-1.6,1.8-1.7c2.1-0.2,4.2-0.2,6.3-0.2s4.2,0,6.3,0.2c0.9,0.1,1.6,0.8,1.8,1.7c0.3,1.3,0.3,2.7,0.3,4
		S176.5,14.7,176.2,16L176.2,16z"/>
</g>
<g>
	<path class="st4" d="M29.5,27.8c-1.1,0.5-2.3,0.8-3.5,1c1.3-0.8,2.2-1.9,2.7-3.4c-1.2,0.7-2.5,1.2-3.8,1.5
		c-1.1-1.2-2.7-1.9-4.4-1.9c-3.3,0-6.1,2.7-6.1,6.1c0,0.5,0.1,0.9,0.2,1.4c-5-0.3-9.5-2.7-12.5-6.3c-0.5,0.9-0.8,1.9-0.8,3
		c0,2.1,1.1,4,2.7,5c-1,0-1.9-0.3-2.7-0.8v0.1c0,2.9,2.1,5.4,4.9,5.9c-0.5,0.1-1,0.2-1.6,0.2c-0.4,0-0.8,0-1.1-0.1
		c0.8,2.4,3,4.2,5.7,4.2c-2.1,1.6-4.7,2.6-7.5,2.6c-0.5,0-1,0-1.4-0.1C2.7,48,5.9,49,9.3,49c11.1,0,17.2-9.2,17.2-17.2
		c0-0.3,0-0.5,0-0.8C27.7,30.1,28.7,29.1,29.5,27.8L29.5,27.8z"/>
</g>
<path class="st4" d="M155,35.5h-3.8v-3.8h-3v3.8h-3.8v3h3.8v3.8h3v-3.8h3.8 M131,34.8v4.7h6.5c-0.5,2.8-2.9,4.9-6.5,4.9
	c-4,0-7.2-3.4-7.2-7.3c0-4,3.2-7.3,7.2-7.3c1.8,0,3.4,0.6,4.6,1.8l0,0l3.4-3.4c-2.1-1.9-4.8-3.1-8-3.1c-6.6,0-12,5.4-12,12
	s5.4,12,12,12c6.9,0,11.5-4.9,11.5-11.7c0-0.9-0.1-1.7-0.2-2.5L131,34.8L131,34.8z"/>
<g>
	<path class="st4" d="M42,25c-6.6,0-12,5.4-12,12c0,5.1,3.2,9.4,7.6,11.2c-0.1-0.9-0.2-2.4,0-3.4c0.2-0.9,1.4-6,1.4-6
		S38.7,38,38.7,37c0-1.7,1-2.9,2.2-2.9c1,0,1.5,0.8,1.5,1.7c0,1-0.7,2.6-1,4C41.1,41,42,42,43.2,42c2.1,0,3.8-2.2,3.8-5.5
		c0-2.9-2.1-4.9-5-4.9c-3.4,0-5.4,2.6-5.4,5.2c0,1,0.4,2.1,0.9,2.7c0.1,0.1,0.1,0.2,0.1,0.3c-0.1,0.4-0.3,1.2-0.3,1.4
		c-0.1,0.2-0.2,0.3-0.4,0.2c-1.5-0.7-2.4-2.9-2.4-4.6c0-3.8,2.8-7.3,7.9-7.3c4.2,0,7.4,3,7.4,6.9c0,4.1-2.6,7.5-6.2,7.5
		c-1.2,0-2.4-0.6-2.8-1.4c0,0-0.6,2.3-0.7,2.9c-0.3,1-1,2.4-1.5,3.1c1.1,0.3,2.3,0.5,3.6,0.5c6.6,0,12-5.4,12-12S48.6,25,42,25z"/>
</g>
<g>
	<path class="st4" d="M116.7,26.3c-0.9-0.9-1.9-1.3-3.2-1.3h-15c-1.2,0-2.3,0.4-3.2,1.3c-0.9,0.9-1.3,1.9-1.3,3.2v15
		c0,1.2,0.4,2.3,1.3,3.2s1.9,1.3,3.2,1.3h15c1.2,0,2.3-0.4,3.2-1.3c0.9-0.9,1.3-1.9,1.3-3.2v-15C118,28.3,117.6,27.2,116.7,26.3
		L116.7,26.3z M103.9,39.3c-0.6,0.6-1.4,1-2.3,1s-1.7-0.3-2.3-1c-0.6-0.6-1-1.4-1-2.3s0.3-1.7,1-2.3s1.4-1,2.3-1s1.7,0.3,2.3,1
		c0.6,0.6,1,1.4,1,2.3S104.6,38.7,103.9,39.3L103.9,39.3z M112.8,39.3c-0.6,0.6-1.4,1-2.3,1s-1.7-0.3-2.3-1c-0.6-0.6-1-1.4-1-2.3
		s0.3-1.7,1-2.3s1.4-1,2.3-1s1.7,0.3,2.3,1c0.6,0.6,1,1.4,1,2.3C113.7,37.9,113.4,38.7,112.8,39.3L112.8,39.3z"/>
</g>
<g>
	<path class="st4" d="M203.6,36.4c-0.1,0.1-0.2,0.1-0.3,0.2v-9.3c0-1.3-1-2.3-2.2-2.3h-16.8c-1.2,0-2.2,1-2.2,2.3v9.3
		c-0.1-0.1-0.2-0.1-0.3-0.2c-0.7-0.5-1.2,0.2-0.7,0.8c0.9,1,2.5,2.4,5,3.4c-2.6,9,6.4,10.4,6.3,5.8c0,0.1,0-2.6,0-4.5
		c0.2,0.1,0.4,0.1,0.6,0.2c0,1.9,0,4.5,0,4.4c-0.1,4.6,8.9,3.2,6.3-5.8c2.5-1,4.1-2.3,5-3.4C204.8,36.6,204.4,35.9,203.6,36.4
		L203.6,36.4z M194.7,38.7c-1.1-0.1-1.5,0.4-1.6,1.2c-0.3-0.2-0.5-0.4-0.8-0.7l-0.1-0.1c-0.2-0.3-0.6-0.4-1.3-0.4
		c-1.5,0-4.2,0.3-7.4-1.3v-9c0-1.6,0.4-2.1,1.9-2.1h14.9c1.4,0,1.9,0.6,1.9,2.1v8.9C199,39.1,196.2,38.8,194.7,38.7L194.7,38.7z"/>
	<path class="st4" d="M196.3,32.2c-1.6,0-2.9,1.2-2.9,2.7s1.3,2.7,2.9,2.7c1.6,0,2.9-1.2,2.9-2.7S197.9,32.2,196.3,32.2L196.3,32.2z
		"/>
	<path class="st4" d="M192.5,34.9c0,1.5-1.3,2.7-2.9,2.7s-2.9-1.2-2.9-2.7s1.3-2.7,2.9-2.7S192.5,33.4,192.5,34.9L192.5,34.9z"/>
</g>
<path class="st4" d="M63.1,49V38.1h3.7l0.5-4.3h-4.2v-2.7c0-1.2,0.3-2.1,2.1-2.1h2.3v-3.8c-0.4,0-1.7-0.2-3.3-0.2
	c-3.3,0-5.5,2-5.5,5.6v3.1H55V38h3.7v11H63.1z"/>
<g>
	<path class="st4" d="M165.8,39.6c1.8-0.9,3.6-1.9,5.4-2.8c-1.8-0.9-3.6-1.9-5.4-2.8V39.6z"/>
	<path class="st4" d="M168,25c-6.6,0-12,5.4-12,12s5.4,12,12,12s12-5.4,12-12S174.6,25,168,25L168,25z M176.2,41
		c-0.2,0.9-0.9,1.6-1.8,1.7c-2.1,0.2-4.2,0.2-6.3,0.2s-4.2,0-6.3-0.2c-0.9-0.1-1.6-0.8-1.8-1.7c-0.3-1.3-0.3-2.7-0.3-4s0-2.7,0.3-4
		c0.2-0.9,0.9-1.6,1.8-1.7c2.1-0.2,4.2-0.2,6.3-0.2s4.2,0,6.3,0.2c0.9,0.1,1.6,0.8,1.8,1.7c0.3,1.3,0.3,2.7,0.3,4
		S176.5,39.7,176.2,41L176.2,41z"/>
</g>
<g>
	<path class="st1" d="M229.2,20c0.6,0,1.1-0.2,1.5-0.6l-7.2-7.2c-0.2,0.1-0.3,0.2-0.5,0.4c-0.5,0.4-1,0.7-1.3,0.9s-0.8,0.4-1.4,0.7
		c-0.6,0.2-1.1,0.3-1.6,0.3l0,0c-0.5,0-1-0.1-1.6-0.3s-1-0.5-1.3-0.7s-0.8-0.5-1.3-0.9c-0.1-0.1-0.3-0.2-0.5-0.4l-7.2,7.2
		c0.4,0.4,0.9,0.6,1.5,0.6H229.2z"/>
	<path class="st1" d="M207.4,7.7c-0.5-0.4-1-0.8-1.4-1.2v11l6.4-6.4C211.1,10.2,209.4,9.1,207.4,7.7L207.4,7.7z"/>
	<path class="st1" d="M230,7.7c-1.9,1.3-3.6,2.4-4.9,3.4l6.4,6.4v-11C231.1,6.9,230.6,7.3,230,7.7L230,7.7z"/>
	<path class="st1" d="M229.2,0h-20.9c-0.7,0-1.3,0.2-1.7,0.7S206,1.8,206,2.5c0,0.6,0.3,1.2,0.8,1.9s1.1,1.2,1.7,1.6
		c0.3,0.2,1.3,0.9,2.9,2c0.9,0.6,1.6,1.1,2.3,1.6c0.6,0.4,1,0.7,1.4,1c0,0,0.1,0.1,0.2,0.1c0.1,0.1,0.2,0.2,0.4,0.3
		c0.3,0.2,0.6,0.4,0.8,0.5s0.5,0.3,0.7,0.5c0.3,0.2,0.6,0.3,0.8,0.4c0.3,0.1,0.5,0.1,0.7,0.1l0,0c0.2,0,0.5,0,0.7-0.1
		c0.3-0.1,0.5-0.2,0.8-0.4s0.5-0.3,0.7-0.5c0.2-0.1,0.5-0.3,0.8-0.5c0.1-0.1,0.3-0.2,0.4-0.3c0.1-0.1,0.2-0.1,0.2-0.1
		c0.3-0.2,0.8-0.5,1.4-1c1.2-0.8,2.9-2,5.2-3.6c0.7-0.5,1.3-1.1,1.7-1.7c0.5-0.7,0.7-1.4,0.7-2.1c0-0.6-0.2-1.2-0.7-1.6
		C230.3,0.2,229.8,0,229.2,0L229.2,0z"/>
</g>
<g>
	<path class="st1" d="M455,0l4,4l4-4H455z"/>
</g>
<g>
	<g>
		<rect x="233" y="0" class="st1" width="25" height="4"/>
		<rect x="233" y="8" class="st1" width="25" height="4"/>
		<rect x="233" y="16" class="st1" width="25" height="4"/>
	</g>
</g>
<g>
	<rect x="281.8" y="8.3" transform="matrix(0.7071 -0.7071 0.7071 0.7071 78.9116 211.1204)" class="st1" width="25" height="4"/>
	<rect x="292.3" y="-2.3" transform="matrix(0.7069 -0.7073 0.7073 0.7069 79.0452 211.1472)" class="st1" width="4" height="25"/>
</g>
<g>
	<rect x="281.8" y="33.3" transform="matrix(0.7071 -0.7071 0.7071 0.7071 61.2345 218.4438)" width="25" height="4"/>
	<rect x="292.3" y="22.7" transform="matrix(0.7073 -0.7069 0.7069 0.7073 61.2569 218.3347)" width="4" height="25"/>
</g>
<g>
	<rect x="281.8" y="56.3" transform="matrix(0.7071 -0.7071 0.7071 0.7071 44.9722 225.1802)" class="st5" width="25" height="4"/>
	<rect x="292.3" y="45.8" transform="matrix(0.7072 -0.707 0.707 0.7072 44.9476 225.1535)" class="st5" width="4" height="25"/>
</g>
<g>
	<g>
		<path class="st1" d="M312.7,7.7v4.6h-3.3V7.7H305V4.6h4.4V0h3.3v4.6h4.4v3.1H312.7L312.7,7.7z"/>
	</g>
</g>
<g>
	<path class="st1" d="M318,3.3V0h12.1v3.3H318z"/>
</g>
<g>
	<g>
		<path d="M312.7,20.7v4.6h-3.3v-4.6H305v-3.1h4.4V13h3.3v4.6h4.4v3.1H312.7L312.7,20.7z"/>
	</g>
</g>
<g>
	<path d="M318,16.3V13h12.1v3.3H318z"/>
</g>
<g>
	<path class="st4" d="M449,10h-2.9l4-4H442V4h8.1l-4-4h2.9l5.1,5.1L449,10z"/>
</g>
<g>
	<path d="M449,23h-2.9l4-4H442v-2h8.1l-4-4h2.9l5.1,5.1L449,23z"/>
</g>
<g>
	<path class="st6" d="M449,36h-2.9l4-4H442v-2h8.1l-4-4h2.9l5.1,5.1L449,36z"/>
</g>
<g>
	<path class="st1" d="M340.3,18L331,9l9.3-9l0.5,0.5L332,9l8.8,8.5L340.3,18z"/>
</g>
<g>
	<path class="st1" d="M342,17.5l8.8-8.5L342,0.5l0.5-0.5l9.3,9l-9.3,9L342,17.5z"/>
</g>
<g>
	<path class="st4" d="M419,0c-3.9,0-7,3.1-7,7s3.1,7,7,7s7-3.1,7-7S422.9,0,419,0L419,0z M420,12.7V9.1h-2v3.6
		c-2-0.3-4.4-2.6-4.7-4.6h2.7v-2h-2.7c0.3-2,2.7-4.5,4.7-4.7v2.7h2V1.3c2,0.3,4.4,2.7,4.7,4.7H422v2h2.7
		C424.4,10.1,422,12.4,420,12.7L420,12.7z"/>
</g>
<g>
	<path class="st4" d="M408,0h-10c-1.7,0-3,1.4-3,3v6c0,1.7,1.3,3,3,3h10c1.6,0,3-1.3,3-3V3C411,1.4,409.6,0,408,0L408,0z M401,10V2
		l5,4L401,10z"/>
</g>
<g>
	<path class="st4" d="M393.5,2.4c-0.4-0.4-0.8-0.3-1.3-0.3h-1.8L390,0.8c-0.1-0.3-0.3-0.4-0.5-0.5c-0.3-0.2-0.5-0.2-0.8-0.2h-4
		c-0.3,0-0.5-0.2-0.8,0s-0.4,0.5-0.5,0.8L383,2.1h-1.8c-0.6,0-1.1-0.1-1.5,0.3C379.3,2.8,379,3,379,3.6v7c0,0.6,0.3,1.3,0.7,1.7
		c0.4,0.4,0.9,0.8,1.5,0.8h11c0.6,0,0.9-0.4,1.3-0.8c0.4-0.4,0.5-1.1,0.5-1.7v-7C394,3,393.9,2.8,393.5,2.4L393.5,2.4z M389.1,9.5
		c-0.7,0.7-1.5,1-2.5,1s-1.8-0.3-2.5-1s-1-1.5-1-2.5s0.3-1.8,1-2.5s1.5-1,2.5-1s1.8,0.3,2.5,1s1,1.5,1,2.5
		C390.2,8,389.8,8.9,389.1,9.5L389.1,9.5z"/>
	<path class="st4" d="M386.7,4.8c-0.6,0-1.1,0.2-1.6,0.7c-0.4,0.4-0.7,1-0.7,1.6s0.2,1.1,0.7,1.6c0.4,0.4,1,0.7,1.6,0.7
		s1.1-0.2,1.6-0.7c0.4-0.4,0.7-1,0.7-1.6s-0.2-1.2-0.7-1.6C387.8,5,387.3,4.8,386.7,4.8L386.7,4.8z"/>
</g>
<polygon class="st4" points="359.4,0 361.1,5.3 366.7,5.3 362.2,8.8 363.9,14.3 359.4,11 354.8,14.3 356.6,8.8 352,5.3 357.6,5.3 
	"/>
<g>
	<path class="st4" d="M435.2,12h-3.4l4.8-4.8H427V4.8h9.6L431.8,0h3.4l6,6L435.2,12z"/>
</g>
<path class="st1" d="M283,19l-5.2-3.8c0.9-1.5,1.4-3.2,1.4-5.1c0-5.6-4.5-10.1-10.1-10.1S259,4.5,259,10.1s4.5,10.1,10.1,10.1
	c2.8,0,5.3-1.1,7.1-2.9l5.2,3.8L283,19z M269.1,17.6c-4.1,0-7.5-3.4-7.5-7.5s3.4-7.5,7.5-7.5s7.5,3.4,7.5,7.5S273.2,17.6,269.1,17.6
	z"/>
<path d="M283,44l-5.2-3.8c0.9-1.5,1.4-3.2,1.4-5.1c0-5.6-4.5-10.1-10.1-10.1S259,29.5,259,35.1s4.5,10.1,10.1,10.1
	c2.8,0,5.3-1.1,7.1-2.9l5.2,3.8L283,44z M269.1,42.6c-4.1,0-7.5-3.4-7.5-7.5s3.4-7.5,7.5-7.5s7.5,3.4,7.5,7.5S273.2,42.6,269.1,42.6
	z"/>
<path class="st5" d="M283,93l-5.2-3.8c0.9-1.5,1.4-3.2,1.4-5.1c0-5.6-4.5-10.1-10.1-10.1S259,78.5,259,84.1s4.5,10.1,10.1,10.1
	c2.8,0,5.3-1.1,7.1-2.9l5.2,3.8L283,93z M269.1,91.6c-4.1,0-7.5-3.4-7.5-7.5s3.4-7.5,7.5-7.5s7.5,3.4,7.5,7.5S273.2,91.6,269.1,91.6
	z"/>
<g>
	<path class="st4" d="M716,100c-27.6,0-50-22.4-50-50s22.4-50,50-50s50,22.4,50,50S743.6,100,716,100z M716,3c-25.9,0-47,21.1-47,47
		s21.1,47,47,47s47-21.1,47-47S741.9,3,716,3z"/>
	<path class="st4" d="M715.9,25C702.1,25.1,691,36.3,691,50.1c0.1,13.8,11.3,24.9,25.1,24.9c13.8-0.1,24.9-11.3,24.9-25.1
		C740.9,36.1,729.7,24.9,715.9,25L715.9,25z M716.1,70.9c-11.6,0.1-21-9.3-21-20.8c-0.1-11.6,9.3-21,20.8-21
		c11.6-0.1,21,9.3,21,20.8C737,61.4,727.7,70.9,716.1,70.9L716.1,70.9z M719.8,60.9l-0.1-18.7l-9.6,0.1v4.1h2.6l0.1,14.6H710v3.9
		l12.1-0.1v-3.9H719.8z M716.1,39.5c2.4,0,3.8-1.6,3.8-3.5c-0.1-2-1.4-3.5-3.7-3.5s-3.7,1.6-3.7,3.5S713.9,39.5,716.1,39.5
		L716.1,39.5z"/>
</g>
<g>
	<path class="st4" d="M615,100c-27.6,0-50-22.4-50-50s22.4-50,50-50s50,22.4,50,50S642.6,100,615,100z M615,3c-25.9,0-47,21.1-47,47
		s21.1,47,47,47s47-21.1,47-47S640.9,3,615,3z"/>
	<g>
		<path class="st4" d="M640,32.8c-0.3-0.5-0.8-0.8-1.3-0.9L610.1,25c-0.9-0.2-1.9,0.3-2.2,1.2L597,54l3.6,1.3L611,29l24.8,6.3
			c-1.6,4.8-5.2,14.9-8.8,24.2c-3.1,8.2-4.9,10.9-8.2,11.5l0,0c-6.9,1-6.8-7.8-6.8-7.8l-22-8.9c-1.6,9.9,6.1,12.3,6.1,12.3l16.1,7.3
			c0,0,2.5,1.2,5.3,1.1c7.4-0.2,10-5.5,13.2-14.1c4.7-12.4,9.5-26.3,9.5-26.5C640.3,33.9,640.3,33.3,640,32.8L640,32.8z"/>
		<path class="st4" d="M626.9,44c0.2,0,0.3,0.1,0.5,0.1c0.8,0,1.6-0.6,1.9-1.4c0.3-1-0.3-2.1-1.4-2.4l-8.4-2.6
			c-1-0.3-2.1,0.3-2.4,1.4c-0.3,1,0.3,2.1,1.4,2.4L626.9,44z"/>
		<path class="st4" d="M613.8,46.8c-0.3,1,0.2,2.1,1.2,2.5l8.3,3c0.2,0.1,0.4,0.1,0.6,0.1c0.8,0,1.6-0.5,1.8-1.3
			c0.3-1-0.2-2.1-1.2-2.4l-8.3-3C615.3,45.2,614.2,45.8,613.8,46.8L613.8,46.8z"/>
		<path class="st4" d="M613.1,53.7c-1-0.3-2.1,0.2-2.4,1.2s0.2,2.1,1.2,2.4l8.4,3c0.2,0.1,0.4,0.1,0.6,0.1c0.8,0,1.6-0.5,1.8-1.3
			c0.3-1-0.2-2.1-1.2-2.4L613.1,53.7z"/>
		<path class="st4" d="M612.8,35.4c1.2,0,2.1,0.9,2.1,2.1s-1,2.1-2.1,2.1c-1.2,0-2.1-0.9-2.1-2.1C610.6,36.4,611.6,35.4,612.8,35.4
			L612.8,35.4z"/>
		<path class="st4" d="M609.7,43.2c1.2,0,2.1,0.9,2.1,2.1c0,1.2-1,2.1-2.1,2.1c-1.2,0-2.1-0.9-2.1-2.1
			C607.6,44.1,608.6,43.2,609.7,43.2L609.7,43.2z"/>
		<path class="st4" d="M606.5,51.2c1.2,0,2.1,0.9,2.1,2.1c0,1.2-1,2.1-2.1,2.1s-2.1-0.9-2.1-2.1C604.4,52.1,605.3,51.2,606.5,51.2
			L606.5,51.2z"/>
	</g>
</g>
<g>
	<g>
		<path d="M58.7,150v7.8h-1.9V150H54v-1.9h7.5v1.9H58.7z"/>
		<path d="M69,157.8v-4.1h-4v4.1h-1.9v-9.7H65v3.7h4v-3.7h1.9v9.7H69z"/>
		<path d="M73.3,157.8v-9.7H80v1.9h-4.8v1.7H78v1.9h-2.8v2.3h5v1.9L73.3,157.8L73.3,157.8z"/>
		<path d="M90.1,157.9c-2.5,0-4.3-1.9-4.3-5s1.8-5,4.3-5s4.3,1.9,4.3,5C94.3,156,92.6,157.9,90.1,157.9z M90,149.8
			c-1.4,0-2.3,1.1-2.3,3.1s0.9,3.1,2.3,3.1s2.3-1.1,2.3-3.1C92.3,151,91.4,149.8,90,149.8z"/>
		<path d="M98.1,150v1.8h2.9v1.9h-2.9v4.1h-1.9v-9.7h6.9v1.9H98.1z"/>
		<path d="M106.6,150v1.8h2.9v1.9h-2.9v4.1h-1.9v-9.7h6.9v1.9H106.6z"/>
		<path d="M113.1,157.8v-9.7h1.9v9.7H113.1z"/>
		<path d="M123,150.9c-0.3-0.7-0.9-1.1-1.8-1.1c-1.5,0-2.3,1.3-2.3,3.1c0,1.7,0.8,3.1,2.3,3.1c0.9,0,1.4-0.4,1.9-1.2l1.6,1
			c-0.7,1.4-1.8,2.2-3.6,2.2c-2.5,0-4.2-1.9-4.2-5c0-3,1.8-5,4.3-5c1.8,0,2.9,0.9,3.5,2.1L123,150.9z"/>
		<path d="M126.6,157.8v-9.7h1.9v9.7H126.6z"/>
		<path d="M137.2,157.8l-0.8-2.2h-3.5l-0.8,2.2H130l3.7-9.7h1.9l3.7,9.7H137.2z M135.2,152c-0.2-0.6-0.4-1.2-0.5-1.5
			c-0.1,0.4-0.3,0.9-0.5,1.5l-0.6,1.8h2.2L135.2,152z"/>
		<path d="M140.9,157.8v-9.7h1.9v7.8h4.9v1.9H140.9z"/>
		<path d="M155.5,150v1.8h2.9v1.9h-2.9v4.1h-1.9v-9.7h6.9v1.9H155.5z"/>
		<path d="M165.7,157.9c-2.5,0-4.3-1.9-4.3-5s1.8-5,4.3-5s4.3,1.9,4.3,5S168.2,157.9,165.7,157.9z M165.7,149.8
			c-1.4,0-2.3,1.1-2.3,3.1s0.9,3.1,2.3,3.1c1.4,0,2.3-1.1,2.3-3.1C168,151,167,149.8,165.7,149.8z"/>
		<path d="M177.4,150.9c-0.3-0.7-0.9-1.1-1.8-1.1c-1.5,0-2.3,1.3-2.3,3.1c0,1.7,0.8,3.1,2.3,3.1c0.9,0,1.4-0.4,1.9-1.2l1.6,1
			c-0.7,1.4-1.8,2.2-3.6,2.2c-2.5,0-4.2-1.9-4.2-5c0-3,1.8-5,4.3-5c1.8,0,2.9,0.9,3.5,2.1L177.4,150.9z"/>
		<path d="M184.7,157.9c-2.3,0-3.9-1.6-3.9-4.4v-5.4h1.9v5.4c0,1.6,0.7,2.5,2,2.5s2-1,2-2.5v-5.4h1.9v5.4
			C188.6,156.3,187.1,157.9,184.7,157.9z"/>
		<path d="M194,157.9c-1.6,0-3-0.7-3.8-1.8l1.4-1.2c0.7,0.8,1.6,1.1,2.5,1.1c1.1,0,1.7-0.3,1.7-1.1c0-0.6-0.3-0.9-2.2-1.3
			c-1.8-0.4-3-1-3-2.9c0-1.8,1.6-2.8,3.5-2.8c1.5,0,2.6,0.6,3.5,1.5l-1.4,1.4c-0.6-0.6-1.3-1-2.2-1c-1,0-1.4,0.4-1.4,0.9
			c0,0.6,0.4,0.8,2,1.2c1.5,0.4,3.2,0.9,3.2,3C197.8,156.7,196.6,157.9,194,157.9z"/>
		<path d="M207.6,157.9c-2.5,0-4.3-1.9-4.3-5s1.8-5,4.3-5s4.3,1.9,4.3,5C211.9,156,210.1,157.9,207.6,157.9z M207.6,149.8
			c-1.4,0-2.3,1.1-2.3,3.1s0.9,3.1,2.3,3.1s2.3-1.1,2.3-3.1C209.9,151,208.9,149.8,207.6,149.8z"/>
		<path d="M215.7,150v1.8h2.9v1.9h-2.9v4.1h-1.9v-9.7h6.9v1.9H215.7z"/>
		<path d="M230.5,150v7.8h-1.9V150h-2.8v-1.9h7.5v1.9H230.5z"/>
		<path d="M240.8,157.8v-4.1h-4v4.1h-1.9v-9.7h1.9v3.7h4v-3.7h1.9v9.7H240.8z"/>
		<path d="M245.1,157.8v-9.7h6.7v1.9H247v1.7h2.8v1.9H247v2.3h5v1.9L245.1,157.8L245.1,157.8z"/>
		<path d="M262,157.9c-2.3,0-3.9-1.6-3.9-4.4v-5.4h1.9v5.4c0,1.6,0.7,2.5,2,2.5s2-1,2-2.5v-5.4h1.9v5.4
			C265.9,156.3,264.4,157.9,262,157.9z"/>
		<path d="M268.6,157.9c-0.7,0-1.3-0.6-1.3-1.3s0.6-1.3,1.3-1.3c0.7,0,1.3,0.6,1.3,1.3C269.9,157.3,269.3,157.9,268.6,157.9z"/>
		<path d="M275.1,157.9c-1.6,0-3-0.7-3.8-1.8l1.4-1.2c0.7,0.8,1.6,1.1,2.5,1.1c1.2,0,1.7-0.3,1.7-1.1c0-0.6-0.3-0.9-2.2-1.3
			c-1.8-0.4-3-1-3-2.9c0-1.8,1.6-2.8,3.5-2.8c1.5,0,2.6,0.6,3.5,1.5l-1.4,1.4c-0.6-0.6-1.3-1-2.2-1c-1,0-1.4,0.4-1.4,0.9
			c0,0.6,0.4,0.8,2,1.2s3.2,0.9,3.2,3C279,156.7,277.8,157.9,275.1,157.9z"/>
		<path d="M281.7,157.9c-0.7,0-1.3-0.6-1.3-1.3s0.6-1.3,1.3-1.3c0.7,0,1.3,0.6,1.3,1.3C283,157.3,282.4,157.9,281.7,157.9z"/>
		<path d="M295.3,157.8l-0.8-2.2H291l-0.8,2.2h-2.1l3.7-9.7h1.9l3.7,9.7H295.3z M293.3,152c-0.2-0.6-0.4-1.2-0.5-1.5
			c-0.1,0.4-0.3,0.9-0.5,1.5l-0.6,1.8h2.2L293.3,152z"/>
		<path d="M304.6,157.8l-1.7-3.5h-2v3.5H299v-9.7h4.5c1.8,0,3.3,1,3.3,3.1c0,1.5-0.6,2.4-1.9,2.9l1.9,3.8h-2.2L304.6,157.8
			L304.6,157.8z M303.5,150H301v2.5h2.5c0.9,0,1.4-0.4,1.4-1.3C304.8,150.3,304.3,150,303.5,150z"/>
		<path d="M315.9,157.8v-3.6c0-0.5,0-1.8,0-2.1c-0.1,0.4-0.4,1.1-0.7,1.6l-2,4.3l-2-4.3c-0.3-0.6-0.5-1.2-0.7-1.6c0,0.4,0,1.6,0,2.1
			v3.6h-1.9v-9.7h1.9l2,4.4c0.3,0.5,0.5,1.3,0.7,1.6c0.1-0.4,0.4-1.1,0.7-1.6l2-4.4h1.9v9.7H315.9z"/>
		<path d="M324.8,153.9v3.8h-1.9V154l-3.7-5.9h2.2l1.4,2.3c0.3,0.6,0.9,1.5,1.1,1.9c0.2-0.4,0.7-1.3,1.1-1.9l1.4-2.3h2.2
			L324.8,153.9z"/>
	</g>
	<g>
		<path d="M54.3,123.5l10.1-0.6c0.2,1.6,0.7,2.9,1.3,3.7c1.1,1.4,2.6,2.1,4.7,2.1c1.5,0,2.7-0.4,3.5-1.1c0.8-0.7,1.2-1.5,1.2-2.5
			c0-0.9-0.4-1.7-1.2-2.4c-0.8-0.7-2.6-1.4-5.4-2c-4.6-1-7.9-2.4-9.9-4.2c-2-1.7-3-3.9-3-6.6c0-1.8,0.5-3.4,1.5-5s2.5-2.8,4.6-3.7
			c2-0.9,4.8-1.3,8.4-1.3c4.4,0,7.7,0.8,10,2.4s3.7,4.2,4.1,7.8l-10,0.6c-0.3-1.5-0.8-2.7-1.7-3.4c-0.8-0.7-2-1-3.5-1
			c-1.2,0-2.2,0.3-2.8,0.8c-0.6,0.5-0.9,1.2-0.9,1.9c0,0.5,0.3,1,0.8,1.5s1.7,0.9,3.5,1.3c4.6,1,7.9,2,9.9,3s3.5,2.3,4.4,3.8
			s1.4,3.2,1.4,5.1c0,2.2-0.6,4.2-1.8,6.1c-1.2,1.9-2.9,3.3-5.1,4.2c-2.2,1-4.9,1.4-8.2,1.4c-5.8,0-9.8-1.1-12.1-3.4
			C55.8,129.8,54.5,126.9,54.3,123.5z"/>
		<path d="M87.4,100.6h32.1v8.4h-10.8v25.8H98.2V109H87.4V100.6z"/>
		<path d="M141,129.1h-12l-1.7,5.6h-10.8l12.9-34.2h11.5l12.8,34.2h-11.1L141,129.1z M138.8,121.7l-3.8-12.3l-3.7,12.3H138.8z"/>
		<path d="M156.8,100.6h9.9l12.9,18.9v-18.9h10v34.2h-10L166.7,116v18.8h-9.9V100.6z"/>
		<path d="M195.9,100.6h15.7c3.1,0,5.6,0.4,7.5,1.3s3.5,2,4.7,3.6s2.1,3.4,2.7,5.5s0.8,4.3,0.8,6.6c0,3.7-0.4,6.5-1.2,8.5
			c-0.8,2-2,3.7-3.5,5.1s-3.1,2.3-4.8,2.7c-2.3,0.6-4.4,0.9-6.3,0.9h-15.7L195.9,100.6L195.9,100.6z M206.5,108.3V127h2.6
			c2.2,0,3.8-0.2,4.7-0.7s1.7-1.3,2.2-2.6c0.5-1.2,0.8-3.2,0.8-5.9c0-3.6-0.6-6.1-1.8-7.4s-3.1-2-5.9-2L206.5,108.3L206.5,108.3z"/>
		<path d="M231.8,118.6h13.8v7.3h-13.8V118.6z"/>
		<path d="M243.8,100.6h32.1v8.4h-10.8v25.8h-10.6V109h-10.8L243.8,100.6L243.8,100.6z"/>
		<path d="M317.8,100.6H328v7.8l-2,15.7h-6.3l-1.9-15.7L317.8,100.6L317.8,100.6z M318.2,126.4h9.5v8.4h-9.5V126.4z"/>
		<path d="M309,104.6c-3.1-3.1-7.5-4.6-13.2-4.6c-5.6,0-9.9,1.6-13,4.7s-4.7,7.5-4.7,13c0,4,0.8,7.3,2.4,10s3.6,4.6,6.1,5.8
			s5.7,1.8,9.6,1.8c3.8,0,7-0.7,9.5-2.1c2.5-1.4,4.5-3.4,5.8-6c1.3-2.6,2-5.8,2-9.8C313.6,111.9,312.1,107.6,309,104.6z
			 M301.3,125.9l-5.4-4l-5.4,3.9l2.1-6.2l-5.4-3.8h6.7l2.1-6.4l2.1,6.4h6.7l-5.4,3.8L301.3,125.9z"/>
	</g>
</g>
<g>
	<g>
		<path class="st5" d="M49.5,149.1c0-0.7,0.6-1.2,1.2-1.2c0.7,0,1.2,0.5,1.2,1.2s-0.6,1.2-1.2,1.2S49.5,149.9,49.5,149.1z
			 M50.8,148.2c-0.5,0-0.9,0.4-0.9,1s0.4,1,0.9,1s0.9-0.4,0.9-1C51.7,148.6,51.3,148.2,50.8,148.2z M50.6,149.8h-0.3v-1.3h0.5
			c0.3,0,0.5,0.1,0.5,0.4c0,0.2-0.2,0.3-0.3,0.4l0.3,0.6H51l-0.3-0.6h-0.2L50.6,149.8L50.6,149.8z M50.6,149h0.2
			c0.2,0,0.3-0.1,0.3-0.2c0-0.1-0.1-0.2-0.3-0.2h-0.2V149z"/>
	</g>
	<path class="st7" d="M4.1,148.2c-2.2,0-4.1,1.8-4.1,4.1v9.4c0,2.2,1.8,4.1,4.1,4.1h41.3c2.2,0,4.1-1.8,4.1-4.1v-9.4
		c0-2.2-1.8-4.1-4.1-4.1H4.1z"/>
	<g>
		<path class="st5" d="M45.3,149.5H4.1c-1.5,0-2.8,1.2-2.8,2.8v9.4c0,1.5,1.2,2.8,2.8,2.8h41.3c1.5,0,2.8-1.2,2.8-2.8v-9.4
			C48.1,150.8,46.9,149.5,45.3,149.5z M46.8,161.7c0,0.8-0.7,1.5-1.5,1.5H4.1c-0.8,0-1.5-0.7-1.5-1.5v-9.4c0-0.8,0.7-1.5,1.5-1.5
			h41.3c0.8,0,1.5,0.7,1.5,1.5L46.8,161.7L46.8,161.7z"/>
	</g>
	<path class="st7" d="M4.1,100c-2.2,0-4.1,1.8-4.1,4.1v38.8c0,2.2,1.8,4.1,4.1,4.1h41.3c2.2,0,4.1-1.8,4.1-4.1v-38.8
		c0-2.2-1.8-4.1-4.1-4.1C45.4,100,4.1,100,4.1,100z"/>
	<g>
		<path class="st5" d="M45.3,101.3H4.1c-1.5,0-2.8,1.2-2.8,2.8v38.8c0,1.5,1.2,2.8,2.8,2.8h41.3c1.5,0,2.8-1.2,2.8-2.8v-38.8
			C48.1,102.5,46.9,101.3,45.3,101.3z M46.8,142.9c0,0.8-0.7,1.5-1.5,1.5H4.1c-0.8,0-1.5-0.7-1.5-1.5v-38.8c0-0.8,0.7-1.5,1.5-1.5
			h41.3c0.8,0,1.5,0.7,1.5,1.5L46.8,142.9L46.8,142.9z"/>
	</g>
	<g>
		<path class="st1" d="M10.2,159.9L8.9,161h-2l-1.2-1.2v-6.9h1.9v6.6h0.8v-6.6h1.9L10.2,159.9L10.2,159.9z"/>
		<path class="st1" d="M12.6,161h-1.9v-1.6h1.9V161z"/>
		<path class="st1" d="M16.6,152.9l1.3,1.2v1.4H16v-1.1h-0.8v1.6l1.4,0.1l1.3,1.2v2.5l-1.2,1.2h-2.1l-1.2-1.2v-1.4h1.9v1.1h0.8v-1.7
			l-1.3-0.1l-1.3-1.2v-2.4l1.2-1.2L16.6,152.9L16.6,152.9z"/>
		<path class="st1" d="M20.4,161h-1.9v-1.6h1.9V161z"/>
		<path class="st1" d="M24.2,158h-0.8l0.3-3.4h0.2L24.2,158z M25.1,152.9h-2.7l-1.1,8.1h1.8l0.2-1.5h1.1l0.2,1.5h1.8L25.1,152.9z"/>
		<path class="st1" d="M29.7,154.5v1.8h-0.8v-1.8H29.7z M31.5,154.1l-1.3-1.2H27v8.1h1.9v-3.2h0.8v3.2h1.8v-3.2l-0.9-0.8l0.9-0.8
			L31.5,154.1L31.5,154.1z"/>
		<path class="st1" d="M38.3,161h-1.7v-5.1h-0.1l-0.8,5.1H35l-0.8-5.1h-0.1v5.1h-1.7v-8.1h2.2l0.7,3.9h0.2l0.6-3.9h2.2L38.3,161
			L38.3,161z"/>
		<path class="st1" d="M42.5,157.6v3.4h-1.9v-3.4l-1.6-4.7h1.9l0.7,2.9l0,0l0.7-2.9h1.9L42.5,157.6z"/>
	</g>
	<polygon class="st5" points="36.2,141.2 24.7,132.8 13.2,141.2 17.6,127.6 6.1,119.3 20.3,119.3 24.7,105.7 29.1,119.3 43.3,119.3 
		31.8,127.6 	"/>
	<polygon class="st7" points="33.7,137.6 24.7,131.1 15.8,137.6 19.2,127.1 10.2,120.6 21.3,120.6 24.7,110.1 28.1,120.6 
		39.2,120.6 30.2,127.1 	"/>
	<polygon class="st1" points="24.7,114.3 27.2,121.9 35.2,121.9 28.7,126.6 31.2,134.2 24.7,129.5 18.2,134.2 20.7,126.6 
		14.2,121.9 22.2,121.9 	"/>
</g>
<polygon class="st1" points="132,54 135.2,58 137.9,58 134.7,54 137.9,50 135.2,50 "/>
<polygon class="st1" points="122,56 126.8,62 130.8,62 126,56 130.8,50 126.8,50 "/>
<polygon class="st1" points="141.7,50 139,50 142.2,54 139,58 141.7,58 144.9,54 "/>
<polygon class="st1" points="116,50 112,50 116.8,56 112,62 116,62 120.8,56 "/>
<path class="st1" d="M52.7,70v-9.1h3.1l0.5-3.6h-3.5V55c0-1,0.3-1.7,1.8-1.7h1.9v-3.2c-0.3,0-1.4-0.1-2.7-0.1
	c-2.7,0-4.6,1.7-4.6,4.7v2.6H46v3.6h3.1V70H52.7L52.7,70z"/>
<g>
	<path class="st1" d="M108.9,68c0.5,0,1-0.2,1.3-0.5l-6.5-6.5c-0.2,0.1-0.3,0.2-0.5,0.3c-0.5,0.4-0.9,0.6-1.2,0.8
		c-0.3,0.2-0.7,0.4-1.2,0.6c-0.5,0.2-1,0.3-1.4,0.3l0,0c-0.4,0-0.9-0.1-1.4-0.3s-0.9-0.4-1.2-0.6c-0.3-0.2-0.7-0.5-1.2-0.8
		c-0.1-0.1-0.3-0.2-0.4-0.3l-6.5,6.5c0.4,0.3,0.8,0.5,1.3,0.5H108.9z"/>
	<path class="st1" d="M89.3,56.9c-0.5-0.3-0.9-0.7-1.3-1.1v9.9l5.7-5.7C92.6,59.2,91.1,58.1,89.3,56.9L89.3,56.9z"/>
	<path class="st1" d="M109.6,56.9c-1.7,1.2-3.2,2.2-4.4,3l5.7,5.7v-9.9C110.5,56.2,110.1,56.6,109.6,56.9L109.6,56.9z"/>
	<path class="st1" d="M108.9,50H90.1c-0.7,0-1.2,0.2-1.5,0.7c-0.4,0.4-0.5,1-0.5,1.7c0,0.5,0.2,1.1,0.7,1.7s1,1.1,1.5,1.5
		c0.3,0.2,1.2,0.8,2.6,1.8c0.8,0.5,1.5,1,2.1,1.4c0.5,0.3,0.9,0.7,1.3,0.9c0,0,0.1,0.1,0.2,0.1c0.1,0.1,0.2,0.2,0.4,0.3
		c0.3,0.2,0.5,0.4,0.7,0.5s0.4,0.3,0.7,0.4c0.3,0.2,0.5,0.3,0.7,0.3c0.2,0.1,0.4,0.1,0.6,0.1l0,0c0.2,0,0.4,0,0.6-0.1
		s0.5-0.2,0.7-0.3c0.3-0.2,0.5-0.3,0.7-0.4c0.2-0.1,0.4-0.3,0.7-0.5c0.1-0.1,0.3-0.2,0.4-0.3s0.2-0.1,0.2-0.1
		c0.3-0.2,0.7-0.5,1.3-0.9c1.1-0.7,2.6-1.8,4.7-3.3c0.6-0.4,1.1-1,1.6-1.6c0.4-0.6,0.6-1.3,0.6-1.9s-0.2-1-0.6-1.4
		C109.9,50.2,109.4,50,108.9,50L108.9,50z"/>
</g>
<g>
	<path class="st1" d="M163.8,51.5c0-0.8-0.7-1.5-1.5-1.5h-11.1c-0.8,0-1.5,0.7-1.5,1.5v4.1h14.1V51.5z"/>
	<path class="st1" d="M150.5,68.6c0,0.8,0.7,1.5,1.5,1.5h9.5c0.8,0,1.5-0.7,1.5-1.5v-5.3h-12.5V68.6z M151.7,64.8h10v1h-10V64.8z
		 M151.7,67.1h10v1h-10V67.1z"/>
	<path class="st1" d="M165.3,56.8h-17c-1.3,0-2.2,1-2.2,2.2v6.7c0,1.3,1,2.2,2.2,2.2h1.1v-5.7h14.9v5.7h1.1c1.3,0,2.2-1,2.2-2.2V59
		C167.5,57.7,166.5,56.8,165.3,56.8z M163,60.6c-0.6,0-1.1-0.5-1.1-1.1s0.5-1.1,1.1-1.1s1.1,0.5,1.1,1.1S163.6,60.6,163,60.6z"/>
</g>
<polygon points="179.9,53.7 179.9,50 174.5,54.4 169,50 169,53.7 174.5,58 "/>
<polygon points="181,54.4 181,58 186.4,53.7 191.8,58 191.8,54.4 186.4,50 "/>
<polygon class="st1" points="179.9,62.7 179.9,59 174.5,63.4 169,59 169,62.7 174.5,67 "/>
<polygon class="st1" points="181,63.4 181,67 186.4,62.7 191.8,67 191.8,63.4 186.4,59 "/>
<path class="st1" d="M18,78.5c0-3.2-2-6.2-5-7.4c-0.1,0-0.2-0.1-0.3-0.1c-0.4,0-0.7,0.3-0.7,0.7c0,0.3,0.2,0.5,0.4,0.6
	c0.1,0.1,0.3,0.1,0.5,0.2c0.3,0.2,0.6,0.3,0.9,0.5c1.8,1.3,2.8,3.3,2.8,5.4c0,2.2-1,4.2-2.8,5.4c-0.3,0.2-0.6,0.4-0.9,0.5
	c-0.2,0.1-0.3,0.1-0.5,0.2C12.2,84.9,12,85,12,85.3c0,0.4,0.3,0.7,0.7,0.7c0.1,0,0.2,0,0.3-0.1C16,84.7,18,81.7,18,78.5 M15.2,78.5
	c0-2.1-1.3-4.1-3.4-5c-0.1,0-0.2-0.1-0.3-0.1c-0.4,0-0.7,0.3-0.7,0.7c0,0.3,0.2,0.5,0.4,0.6c0.3,0.1,0.6,0.3,0.8,0.5
	c1.1,0.8,1.7,2,1.7,3.3S13.1,81,12,81.8c-0.3,0.2-0.5,0.3-0.8,0.5c-0.2,0.1-0.4,0.3-0.4,0.6c0,0.4,0.3,0.7,0.7,0.7
	c0.1,0,0.2,0,0.3-0.1C13.9,82.6,15.2,80.6,15.2,78.5 M12.5,78.5c0-1.1-0.7-2.1-1.7-2.5c-0.1,0-0.2-0.1-0.3-0.1
	c-0.4,0-0.7,0.3-0.7,0.7c0,0.8,1.3,0.6,1.3,1.9s-1.3,1.1-1.3,1.9c0,0.4,0.3,0.7,0.7,0.7c0.1,0,0.2,0,0.3-0.1
	C11.8,80.6,12.5,79.6,12.5,78.5 M8.3,72.8c0-0.4-0.3-0.7-0.7-0.7c-0.2,0-0.4,0.1-0.5,0.2l-3.6,3.5H0.7c-0.4,0-0.7,0.3-0.7,0.7v4
	c0,0.4,0.3,0.7,0.7,0.7h2.8l3.6,3.5c0.1,0.1,0.3,0.2,0.5,0.2c0.4,0,0.7-0.3,0.7-0.7V72.8L8.3,72.8z"/>
<g id="Layer_1_1_">
	<path class="st1" d="M20,80.5c0-2,0-7,0-8.9c0-0.6,0.2-0.7,0.8-0.4c1.9,1,6.7,3.4,8.7,4.4c0.7,0.3,0.7,0.5,0,0.8
		c-2.2,1.1-6.8,3.4-8.7,4.4C20.2,81.1,20,81.1,20,80.5z"/>
</g>
<path class="st8" d="M345.8,128.7c1.4-0.5,2.7-0.9,3.8-1.2c1.1-0.3,2.1-0.4,3-0.4c3.6,0,6.6,1.3,9.1,3.9s3.7,5.8,3.7,9.6
	c0,4.7-1.6,8.6-4.9,11.8s-7.4,4.8-12.5,4.8s-9.4-2-12.8-6s-5.1-9.1-5.1-15.3c0-9.3,3.1-17.2,9.3-23.8c6.2-6.5,14.6-10.6,25-12.2v10
	c-6,1.4-10.4,3.6-13.3,6.5C348.1,119.4,346.4,123.5,345.8,128.7z M392.8,128.7c1.4-0.5,2.7-0.9,3.8-1.2c1.1-0.3,2.1-0.4,2.9-0.4
	c3.6,0,6.7,1.3,9.2,3.9s3.7,5.8,3.7,9.6c0,4.7-1.7,8.6-5,11.8s-7.5,4.8-12.5,4.8c-5.1,0-9.4-2-12.7-6c-3.4-4-5-9.1-5-15.3
	c0-9.4,3.1-17.3,9.2-23.8c6.2-6.5,14.5-10.5,25-12.1v10c-6,1.4-10.4,3.6-13.3,6.5C395.1,119.4,393.4,123.5,392.8,128.7z"/>
<path class="st8" d="M414,157.2v-10.1c6-1.4,10.4-3.5,13.3-6.4s4.6-7,5.2-12.3c-1.4,0.5-2.7,0.9-3.8,1.2c-1.1,0.3-2.1,0.4-3,0.4
	c-3.6,0-6.7-1.3-9.1-3.9s-3.7-5.7-3.7-9.5c0-4.8,1.6-8.7,4.9-11.9c3.3-3.2,7.4-4.7,12.5-4.7s9.4,2,12.8,6s5.1,9,5.1,15.2
	c0,9.4-3.1,17.3-9.3,23.9C432.8,151.6,424.5,155.7,414,157.2z M460.8,157.2v-10.1c6.1-1.4,10.5-3.6,13.5-6.5c2.9-2.9,4.7-7,5.3-12.3
	c-1.4,0.5-2.7,0.9-3.8,1.2c-1.1,0.3-2.1,0.4-3,0.4c-3.6,0-6.6-1.3-9.1-3.9s-3.7-5.7-3.7-9.5c0-4.8,1.6-8.7,4.9-11.9
	c3.3-3.2,7.4-4.7,12.5-4.7s9.4,2,12.7,5.9c3.4,3.9,5,9,5,15.3c0,9.4-3.1,17.3-9.3,23.9C479.7,151.6,471.3,155.7,460.8,157.2z"/>
<g>
	<rect x="314.2" y="67.4" class="st4" width="21.8" height="5.5"/>
	<rect x="314.2" y="59.2" class="st4" width="21.8" height="5.5"/>
	<rect x="314.2" y="51" class="st4" width="21.8" height="5.5"/>
	<circle class="st4" cx="308.7" cy="61.9" r="2.7"/>
	<circle class="st4" cx="308.7" cy="53.7" r="2.7"/>
	<circle class="st4" cx="308.7" cy="70.1" r="2.7"/>
</g>
<g>
	<path class="st1" d="M81,2.2c3.2,0,3.6,0,4.8,0.1C87,2.4,87.6,2.5,88,2.7c0.6,0.2,1,0.5,1.4,0.9s0.7,0.8,0.9,1.4
		c0.2,0.4,0.4,1.1,0.4,2.2c0.1,1.3,0.1,1.6,0.1,4.8s0,3.6-0.1,4.8c-0.1,1.2-0.2,1.8-0.4,2.2c-0.2,0.6-0.5,1-0.9,1.4
		s-0.8,0.7-1.4,0.9c-0.4,0.2-1.1,0.4-2.2,0.4c-1.3,0.1-1.6,0.1-4.8,0.1s-3.6,0-4.8-0.1c-1.2-0.1-1.8-0.2-2.2-0.4
		c-0.6-0.2-1-0.5-1.4-0.9s-0.7-0.8-0.9-1.4c-0.2-0.4-0.4-1.1-0.4-2.2c-0.1-1.3-0.1-1.6-0.1-4.8s0-3.6,0.1-4.8
		C71.4,6,71.5,5.4,71.7,5c0.2-0.6,0.5-1,0.9-1.4s0.8-0.7,1.4-0.9c0.4-0.2,1.1-0.4,2.2-0.4C77.4,2.2,77.8,2.2,81,2.2 M81,0
		c-3.3,0-3.7,0-4.9,0.1c-1.3,0.1-2.1,0.3-2.9,0.6C72.4,0.9,71.7,1.3,71,2s-1.1,1.3-1.4,2.1C69.3,4.9,69.1,5.7,69,7c0,1.3,0,1.7,0,5
		s0,3.7,0.1,4.9c0.1,1.3,0.3,2.2,0.6,2.9c0.3,0.8,0.7,1.5,1.4,2.1c0.7,0.6,1.3,1.1,2.1,1.4c0.8,0.3,1.6,0.5,2.9,0.6
		C77.3,24,77.7,24,81,24s3.7,0,4.9-0.1c1.3-0.1,2.1-0.3,2.9-0.6c0.8-0.3,1.5-0.7,2.1-1.4c0.6-0.7,1.1-1.3,1.4-2.1
		c0.3-0.8,0.5-1.6,0.6-2.9C93,15.7,93,15.3,93,12s0-3.7-0.1-4.9c-0.1-1.3-0.3-2.2-0.6-2.9C92.1,3.3,91.7,2.7,91,2s-1.3-1.1-2.1-1.4
		C88.1,0.3,87.3,0.1,86,0C84.7,0,84.3,0,81,0L81,0z"/>
	<path class="st1" d="M81,5.8c-3.4,0-6.2,2.8-6.2,6.2s2.8,6.2,6.2,6.2s6.2-2.8,6.2-6.2S84.4,5.8,81,5.8z M81,16c-2.2,0-4-1.8-4-4
		s1.8-4,4-4s4,1.8,4,4S83.2,16,81,16z"/>
	<circle class="st1" cx="87.4" cy="5.6" r="1.4"/>
</g>
<g>
	<path class="st4" d="M81,27.2c3.2,0,3.6,0,4.8,0.1c1.2,0.1,1.8,0.2,2.2,0.4c0.6,0.2,1,0.5,1.4,0.9s0.7,0.8,0.9,1.4
		c0.2,0.4,0.4,1.1,0.4,2.2c0.1,1.3,0.1,1.6,0.1,4.8s0,3.6-0.1,4.8s-0.2,1.8-0.4,2.2c-0.2,0.6-0.5,1-0.9,1.4s-0.8,0.7-1.4,0.9
		c-0.4,0.2-1.1,0.4-2.2,0.4c-1.3,0.1-1.6,0.1-4.8,0.1s-3.6,0-4.8-0.1c-1.2-0.1-1.8-0.2-2.2-0.4c-0.6-0.2-1-0.5-1.4-0.9
		s-0.7-0.8-0.9-1.4c-0.2-0.4-0.4-1.1-0.4-2.2c-0.1-1.3-0.1-1.6-0.1-4.8s0-3.6,0.1-4.8c0.1-1.2,0.2-1.8,0.4-2.2
		c0.2-0.6,0.5-1,0.9-1.4s0.8-0.7,1.4-0.9c0.4-0.2,1.1-0.4,2.2-0.4C77.4,27.2,77.8,27.2,81,27.2 M81,25c-3.3,0-3.7,0-4.9,0.1
		c-1.3,0.1-2.1,0.3-2.9,0.6c-0.8,0.3-1.5,0.7-2.1,1.4c-0.6,0.7-1.1,1.3-1.4,2.1c-0.3,0.8-0.5,1.6-0.6,2.9C69,33.3,69,33.7,69,37
		s0,3.7,0.1,4.9c0.1,1.3,0.3,2.2,0.6,2.9c0.3,0.8,0.7,1.5,1.4,2.1c0.7,0.6,1.3,1.1,2.1,1.4c0.8,0.3,1.6,0.5,2.9,0.6
		C77.3,49,77.7,49,81,49s3.7,0,4.9-0.1c1.3-0.1,2.1-0.3,2.9-0.6s1.5-0.7,2.1-1.4s1.1-1.3,1.4-2.1s0.5-1.6,0.6-2.9
		C93,40.7,93,40.3,93,37s0-3.7-0.1-4.9c-0.1-1.3-0.3-2.2-0.6-2.9c-0.3-0.8-0.7-1.5-1.4-2.1c-0.7-0.6-1.3-1.1-2.1-1.4
		c-0.8-0.3-1.6-0.5-2.9-0.6C84.7,25,84.3,25,81,25L81,25z"/>
	<path class="st4" d="M81,30.8c-3.4,0-6.2,2.8-6.2,6.2s2.8,6.2,6.2,6.2s6.2-2.8,6.2-6.2S84.4,30.8,81,30.8z M81,41c-2.2,0-4-1.8-4-4
		s1.8-4,4-4s4,1.8,4,4S83.2,41,81,41z"/>
	<circle class="st4" cx="87.4" cy="30.6" r="1.4"/>
</g>
<g>
	<path d="M443.4,176.2h2.6c0.5,0,0.9-0.4,0.9-0.9s-0.4-0.9-0.9-0.9h-2.6c-0.5,0-0.9,0.4-0.9,0.9S442.9,176.2,443.4,176.2z"/>
	<path d="M448.6,179.7h-5.2c-0.5,0-0.9,0.4-0.9,0.9s0.4,0.9,0.9,0.9h5.2c0.5,0,0.9-0.4,0.9-0.9S449.1,179.7,448.6,179.7z"/>
	<path d="M454,166h-16c-2.2,0-4,1.8-4,4v16c0,2.2,1.8,4,4,4h16c2.2,0,4-1.8,4-4v-16C458,167.8,456.2,166,454,166z M453.3,180.7
		c0,2.5-2.1,4.6-4.6,4.6h-5.3c-2.6,0-4.6-2.1-4.6-4.6v-5.4c0-2.6,2.1-4.6,4.6-4.6h3.2c1.2,0.1,2.9,1.2,3.6,2.5
		c0.2,0.4,0.3,0.4,0.4,1.6c0.1,0.6,0.1,1,0.4,1.3c0.4,0.3,1.7,0.1,2,0.3l0.2,0.2l0.1,0.3v0.2L453.3,180.7L453.3,180.7z"/>
</g>
<g>
	<path d="M232.7,171.6c-0.1,2.7-2,6.4-5.7,11.1c-3.8,4.9-7,7.4-9.6,7.4c-1.6,0-3-1.5-4.1-4.5c-0.7-2.7-1.5-5.5-2.2-8.2
		c-0.8-3-1.7-4.5-2.7-4.5c-0.2,0-0.9,0.4-2.2,1.3l-1.3-1.7c1.4-1.2,2.7-2.4,4-3.6c1.8-1.6,3.2-2.4,4.1-2.5c2.2-0.2,3.5,1.3,4,4.4
		c0.5,3.4,0.9,5.5,1.1,6.4c0.6,2.8,1.3,4.2,2.1,4.2c0.6,0,1.5-0.9,2.6-2.8c1.2-1.8,1.8-3.2,1.9-4.2c0.2-1.6-0.5-2.4-1.9-2.4
		c-0.7,0-1.3,0.2-2.1,0.5c1.4-4.5,4-6.6,7.8-6.5C231.5,166.1,232.9,167.9,232.7,171.6z"/>
</g>
<g>
	<polygon points="246.3,176.2 247.2,179.3 250.5,179.3 247.9,181.2 248.8,184.2 246.3,182.4 243.7,184.2 244.6,181.2 242,179.3 
		245.3,179.3 	"/>
	<path d="M255.3,166h-18c-2.3,0-4.3,1.9-4.3,4.3v15.5c0,2.3,1.9,4.3,4.3,4.3h18c2.3,0,4.2-1.9,4.2-4.3v-15.5
		C259.5,167.9,257.6,166,255.3,166z M245,168.5c0.7,0,1.3,0.6,1.3,1.3s-0.6,1.3-1.3,1.3s-1.3-0.6-1.3-1.3S244.3,168.5,245,168.5z
		 M241,168.5c0.7,0,1.3,0.6,1.3,1.3s-0.6,1.3-1.3,1.3s-1.3-0.6-1.3-1.3S240.3,168.5,241,168.5z M237,168.5c0.7,0,1.3,0.6,1.3,1.3
		s-0.6,1.3-1.3,1.3s-1.3-0.6-1.3-1.3S236.3,168.5,237,168.5z M257,185.8c0,1-0.8,1.8-1.7,1.8h-18c-1,0-1.8-0.8-1.8-1.8V173H257
		V185.8z"/>
</g>
<g>
	<path d="M29.5,168.8c-1.1,0.5-2.3,0.8-3.5,1c1.3-0.8,2.2-1.9,2.7-3.4c-1.2,0.7-2.5,1.2-3.8,1.5c-1.1-1.2-2.7-1.9-4.4-1.9
		c-3.3,0-6.1,2.7-6.1,6.1c0,0.5,0.1,0.9,0.2,1.4c-5-0.3-9.5-2.7-12.5-6.3c-0.5,0.9-0.8,1.9-0.8,3c0,2.1,1.1,4,2.7,5
		c-1,0-1.9-0.3-2.7-0.8v0.1c0,2.9,2.1,5.4,4.9,5.9c-0.5,0.1-1,0.2-1.6,0.2c-0.4,0-0.8,0-1.1-0.1c0.8,2.4,3,4.2,5.7,4.2
		c-2.1,1.6-4.7,2.6-7.5,2.6c-0.5,0-1,0-1.4-0.1c2.7,1.7,5.9,2.7,9.3,2.7c11.1,0,17.2-9.2,17.2-17.2c0-0.3,0-0.5,0-0.8
		C27.7,171.1,28.7,170.1,29.5,168.8L29.5,168.8z"/>
</g>
<path d="M154,176.5h-3.8v-3.8h-3v3.8h-3.8v3h3.8v3.8h3v-3.8h3.8 M130,175.8v4.7h6.5c-0.5,2.8-2.9,4.9-6.5,4.9c-4,0-7.2-3.4-7.2-7.3
	c0-3.9,3.2-7.3,7.2-7.3c1.8,0,3.4,0.6,4.6,1.8l0,0l3.4-3.4c-2.1-1.9-4.8-3.1-8-3.1c-6.6,0-12,5.4-12,12s5.4,12,12,12
	c6.9,0,11.5-4.9,11.5-11.7c0-0.9-0.1-1.7-0.2-2.5L130,175.8L130,175.8z"/>
<g>
	<path d="M42,166c-6.6,0-12,5.4-12,12c0,5.1,3.2,9.4,7.6,11.2c-0.1-0.9-0.2-2.4,0-3.4c0.2-0.9,1.4-6,1.4-6s-0.4-0.7-0.4-1.8
		c0-1.7,1-2.9,2.2-2.9c1,0,1.5,0.8,1.5,1.7c0,1-0.7,2.6-1,4c-0.3,1.2,0.6,2.2,1.8,2.2c2.1,0,3.8-2.2,3.8-5.5c0-2.9-2.1-4.9-5-4.9
		c-3.4,0-5.4,2.6-5.4,5.2c0,1,0.4,2.1,0.9,2.7c0.1,0.1,0.1,0.2,0.1,0.3c-0.1,0.4-0.3,1.2-0.3,1.4c-0.1,0.2-0.2,0.3-0.4,0.2
		c-1.5-0.7-2.4-2.9-2.4-4.6c0-3.8,2.8-7.3,7.9-7.3c4.2,0,7.4,3,7.4,6.9c0,4.1-2.6,7.5-6.2,7.5c-1.2,0-2.4-0.6-2.8-1.4
		c0,0-0.6,2.3-0.7,2.9c-0.3,1-1,2.4-1.5,3.1c1.1,0.3,2.3,0.5,3.6,0.5c6.6,0,12-5.4,12-12S48.6,166,42,166z"/>
</g>
<g>
	<path d="M115.7,167.3c-0.9-0.9-1.9-1.3-3.2-1.3h-15c-1.2,0-2.3,0.4-3.2,1.3c-0.9,0.9-1.3,1.9-1.3,3.2v15c0,1.2,0.4,2.3,1.3,3.2
		s1.9,1.3,3.2,1.3h15c1.2,0,2.3-0.4,3.2-1.3c0.9-0.9,1.3-1.9,1.3-3.2v-15C117,169.3,116.6,168.2,115.7,167.3L115.7,167.3z
		 M102.9,180.3c-0.6,0.6-1.4,1-2.3,1s-1.7-0.3-2.3-1c-0.6-0.6-1-1.4-1-2.3s0.3-1.7,1-2.3s1.4-1,2.3-1s1.7,0.3,2.3,1
		c0.6,0.6,1,1.4,1,2.3S103.6,179.7,102.9,180.3L102.9,180.3z M111.7,180.3c-0.6,0.6-1.4,1-2.3,1s-1.7-0.3-2.3-1
		c-0.6-0.6-1-1.4-1-2.3s0.3-1.7,1-2.3s1.4-1,2.3-1s1.7,0.3,2.3,1c0.6,0.6,1,1.4,1,2.3S112.4,179.7,111.7,180.3L111.7,180.3z"/>
</g>
<g>
	<path d="M202.6,177.4c-0.1,0.1-0.2,0.1-0.3,0.2v-9.3c0-1.3-1-2.3-2.2-2.3h-16.8c-1.2,0-2.2,1-2.2,2.3v9.3c-0.1-0.1-0.2-0.1-0.3-0.2
		c-0.7-0.5-1.2,0.2-0.7,0.8c0.9,1,2.5,2.4,5,3.4c-2.6,9,6.4,10.4,6.3,5.8c0,0.1,0-2.6,0-4.5c0.2,0.1,0.4,0.1,0.6,0.2
		c0,1.9,0,4.5,0,4.4c-0.1,4.6,8.9,3.2,6.3-5.8c2.5-1,4.1-2.3,5-3.4C203.8,177.6,203.4,176.9,202.6,177.4L202.6,177.4z M193.7,179.7
		c-1.1-0.1-1.5,0.4-1.6,1.2c-0.3-0.2-0.5-0.4-0.8-0.7l-0.1-0.1c-0.2-0.3-0.6-0.4-1.3-0.4c-1.5,0-4.2,0.3-7.4-1.3v-9
		c0-1.6,0.4-2.1,1.9-2.1h14.9c1.4,0,1.9,0.6,1.9,2.1v8.9C198,180.1,195.2,179.8,193.7,179.7L193.7,179.7z"/>
	<path d="M195.3,173.2c-1.6,0-2.9,1.2-2.9,2.7s1.3,2.7,2.9,2.7c1.6,0,2.9-1.2,2.9-2.7S196.9,173.2,195.3,173.2L195.3,173.2z"/>
	<path d="M191.5,175.9c0,1.5-1.3,2.7-2.9,2.7s-2.9-1.2-2.9-2.7s1.3-2.7,2.9-2.7S191.5,174.4,191.5,175.9L191.5,175.9z"/>
</g>
<path d="M63.1,190v-10.9h3.7l0.5-4.3h-4.2v-2.7c0-1.2,0.3-2.1,2.1-2.1h2.3v-3.8c-0.4,0-1.7-0.2-3.3-0.2c-3.3,0-5.5,2-5.5,5.6v3.1H55
	v4.3h3.7v11L63.1,190L63.1,190z"/>
<g>
	<path d="M164.8,180.6c1.8-0.9,3.6-1.9,5.4-2.8c-1.8-0.9-3.6-1.9-5.4-2.8V180.6z"/>
	<path d="M167,166c-6.6,0-12,5.4-12,12s5.4,12,12,12s12-5.4,12-12S173.6,166,167,166L167,166z M175.2,182c-0.2,0.9-0.9,1.6-1.8,1.7
		c-2.1,0.2-4.2,0.2-6.3,0.2s-4.2,0-6.3-0.2c-0.9-0.1-1.6-0.8-1.8-1.7c-0.3-1.3-0.3-2.7-0.3-4s0-2.7,0.3-4c0.2-0.9,0.9-1.6,1.8-1.7
		c2.1-0.2,4.2-0.2,6.3-0.2s4.2,0,6.3,0.2c0.9,0.1,1.6,0.8,1.8,1.7c0.3,1.3,0.3,2.7,0.3,4S175.5,180.7,175.2,182L175.2,182z"/>
</g>
<g>
	<path d="M80,168.2c3.2,0,3.6,0,4.8,0.1c1.2,0.1,1.8,0.2,2.2,0.4c0.6,0.2,1,0.5,1.4,0.9s0.7,0.8,0.9,1.4c0.2,0.4,0.4,1.1,0.4,2.2
		c0.1,1.3,0.1,1.6,0.1,4.8s0,3.6-0.1,4.8s-0.2,1.8-0.4,2.2c-0.2,0.6-0.5,1-0.9,1.4s-0.8,0.7-1.4,0.9c-0.4,0.2-1.1,0.4-2.2,0.4
		c-1.3,0.1-1.6,0.1-4.8,0.1s-3.6,0-4.8-0.1c-1.2-0.1-1.8-0.2-2.2-0.4c-0.6-0.2-1-0.5-1.4-0.9s-0.7-0.8-0.9-1.4
		c-0.2-0.4-0.4-1.1-0.4-2.2c-0.1-1.3-0.1-1.6-0.1-4.8s0-3.6,0.1-4.8s0.2-1.8,0.4-2.2c0.2-0.6,0.5-1,0.9-1.4s0.8-0.7,1.4-0.9
		c0.4-0.2,1.1-0.4,2.2-0.4C76.4,168.2,76.8,168.2,80,168.2 M80,166c-3.3,0-3.7,0-4.9,0.1c-1.3,0.1-2.1,0.3-2.9,0.6s-1.5,0.7-2.1,1.4
		s-1.1,1.3-1.4,2.1s-0.5,1.6-0.6,2.9c-0.1,1.3-0.1,1.7-0.1,4.9s0,3.7,0.1,4.9c0.1,1.3,0.3,2.2,0.6,2.9c0.3,0.8,0.7,1.5,1.4,2.1
		c0.7,0.6,1.3,1.1,2.1,1.4c0.8,0.3,1.6,0.5,2.9,0.6s1.7,0.1,4.9,0.1s3.7,0,4.9-0.1c1.3-0.1,2.1-0.3,2.9-0.6s1.5-0.7,2.1-1.4
		s1.1-1.3,1.4-2.1s0.5-1.6,0.6-2.9c0.1-1.3,0.1-1.7,0.1-4.9s0-3.7-0.1-4.9c-0.1-1.3-0.3-2.2-0.6-2.9c-0.3-0.8-0.7-1.5-1.4-2.1
		c-0.7-0.6-1.3-1.1-2.1-1.4c-0.8-0.3-1.6-0.5-2.9-0.6C83.7,166,83.3,166,80,166L80,166z"/>
	<path d="M80,171.8c-3.4,0-6.2,2.8-6.2,6.2s2.8,6.2,6.2,6.2s6.2-2.8,6.2-6.2S83.4,171.8,80,171.8z M80,182c-2.2,0-4-1.8-4-4
		s1.8-4,4-4s4,1.8,4,4S82.2,182,80,182z"/>
	<circle cx="86.4" cy="171.6" r="1.4"/>
</g>
<g>
	<path d="M385.4,190L385.4,190c-0.3,0-0.6-0.3-0.6-0.6v-21.2c0-0.3,0.3-0.6,0.6-0.6l0,0c0.3,0,0.6,0.3,0.6,0.6v21.2
		C386,189.7,385.8,190,385.4,190z"/>
	<path d="M383.2,190L383.2,190c-0.3,0-0.6-0.3-0.6-0.6v-19.9c0-0.3,0.3-0.6,0.6-0.6l0,0c0.3,0,0.6,0.3,0.6,0.6v19.9
		C383.8,189.7,383.5,190,383.2,190z"/>
	<path d="M381,190L381,190c-0.3,0-0.6-0.3-0.6-0.6v-17.6c0-0.3,0.3-0.6,0.6-0.6l0,0c0.3,0,0.6,0.3,0.6,0.6v17.6
		C381.6,189.7,381.3,190,381,190z"/>
	<path d="M378.7,190L378.7,190c-0.3,0-0.6-0.3-0.6-0.6v-18c0-0.3,0.3-0.6,0.6-0.6l0,0c0.3,0,0.6,0.3,0.6,0.6v18
		C379.3,189.7,379.1,190,378.7,190z"/>
	<path d="M376.5,190L376.5,190c-0.3,0-0.6-0.3-0.6-0.6v-18.3c0-0.3,0.3-0.6,0.6-0.6l0,0c0.3,0,0.6,0.3,0.6,0.6v18.3
		C377.1,189.7,376.8,190,376.5,190z"/>
	<path d="M374.3,190L374.3,190c-0.3,0-0.6-0.3-0.6-0.6v-17.8c0-0.3,0.3-0.6,0.6-0.6l0,0c0.3,0,0.6,0.3,0.6,0.6v17.8
		C374.9,189.7,374.6,190,374.3,190z"/>
	<path d="M358.6,186.9L358.6,186.9c-0.3,0-0.6-0.3-0.6-0.6V181c0-0.3,0.3-0.6,0.6-0.6l0,0c0.3,0,0.6,0.3,0.6,0.6v5.3
		C359.2,186.6,358.9,186.9,358.6,186.9z"/>
	<path d="M360.8,188.7L360.8,188.7c-0.3,0-0.6-0.3-0.6-0.6V179c0-0.3,0.3-0.6,0.6-0.6l0,0c0.3,0,0.6,0.3,0.6,0.6v9.1
		C361.4,188.5,361.2,188.7,360.8,188.7z"/>
	<path d="M363.1,189.6L363.1,189.6c-0.3,0-0.6-0.3-0.6-0.6v-10.9c0-0.3,0.3-0.6,0.6-0.6l0,0c0.3,0,0.6,0.3,0.6,0.6V189
		C363.7,189.3,363.4,189.6,363.1,189.6z"/>
	<path d="M365.3,189.8L365.3,189.8c-0.3,0-0.6-0.3-0.6-0.6v-11.4c0-0.3,0.3-0.6,0.6-0.6l0,0c0.3,0,0.6,0.3,0.6,0.6v11.4
		C365.9,189.5,365.6,189.8,365.3,189.8z"/>
	<path d="M367.5,189.9L367.5,189.9c-0.3,0-0.6-0.3-0.6-0.6v-11.1c0-0.3,0.3-0.6,0.6-0.6l0,0c0.3,0,0.6,0.3,0.6,0.6v11.1
		C368.1,189.6,367.9,189.9,367.5,189.9z"/>
	<path d="M369.8,190L369.8,190c-0.3,0-0.6-0.3-0.6-0.6v-14.7c0-0.3,0.3-0.6,0.6-0.6l0,0c0.3,0,0.6,0.3,0.6,0.6v14.7
		C370.4,189.7,370.1,190,369.8,190z"/>
	<path d="M372,190L372,190c-0.3,0-0.6-0.3-0.6-0.6v-16.8c0-0.3,0.3-0.6,0.6-0.6l0,0c0.3,0,0.6,0.3,0.6,0.6v16.8
		C372.6,189.7,372.3,190,372,190z"/>
	<path d="M406.4,176.4c-0.9,0-1.8,0.2-2.6,0.5c-0.5-6.1-5.7-10.9-11.9-10.9c-1.5,0-3,0.3-4.3,0.8c-0.5,0.2-0.6,0.4-0.7,0.8v21.6
		c0,0.4,0.3,0.8,0.7,0.8c0,0,18.7,0,18.8,0c3.8,0,6.8-3,6.8-6.8S410.2,176.4,406.4,176.4z"/>
</g>
<g>
	<path d="M345.1,172c-3.3,0-6.1,2.6-6.1,6s2.6,6.1,6,6.1c3.3,0,6.1-2.6,6.1-6C351.1,174.7,348.5,172,345.1,172z M345,181
		c-1.7,0-3-1.4-3-3.1c0-1.7,1.4-3,3.1-3s3,1.4,3,3.1S346.7,181.1,345,181z"/>
	<path d="M345,166L345,166L345,166h-7.8h-2.5H334c-0.5,0-1,0.4-1,1v0.6v2v8.4c0,6.6,5.4,12,12,12s12-5.4,12-12S351.6,166,345,166z
		 M336.8,177.8c0-4.6,3.8-8.3,8.4-8.3s8.3,3.8,8.3,8.4c0,4.6-3.8,8.3-8.4,8.3C340.4,186.2,336.7,182.4,336.8,177.8z"/>
</g>
<g id="Smuggy_2_">
	<path d="M316.2,170.7c2.2,0,3.3-1.3,3.1-2.5c-0.1-1-1.1-1.9-2.9-1.9c-1.5,0-2.5,1.1-2.6,2.2C313.7,169.7,314.4,170.8,316.2,170.7z"
		/>
	<path d="M327.2,170.5c2.1-0.1,3-1.2,3.1-2.2c0-1.2-1.1-2.4-3-2.2c-1.5,0.1-2.4,1.2-2.6,2.2C324.6,169.4,325.4,170.6,327.2,170.5z"
		/>
	<path d="M328.6,175.2c-5.3,0.5-5.5,0.6-15.2,0.8c-4.1,0-3.2,14,5.5,14C327.2,190,337.2,174.3,328.6,175.2z M319.1,187.5
		c-7.6,0-6.6-9.1-5.3-9.1c8.9-0.4,11.1-0.7,14.3-0.7S325.2,187.5,319.1,187.5z"/>
</g>
<g>
	<path d="M305.8,166h-15.6c-2.3,0-4.2,1.9-4.2,4.2v15.6c0,2.3,1.9,4.2,4.2,4.2h15.6c2.3,0,4.2-1.9,4.2-4.2v-15.6
		C310,167.9,308.2,166,305.8,166z M304.1,180.1c0,1.9-0.5,3.3-1.5,4.3s-2.7,1.5-4.6,1.5s-3.6-0.5-4.6-1.5s-1.5-2.4-1.5-4.3v-8.7h3.8
		v8.4c0,1,0.2,1.7,0.6,2.2s1,0.7,1.7,0.7s1.4-0.3,1.7-0.7c0.4-0.5,0.6-1.2,0.6-2.2v-8.4h3.8V180.1L304.1,180.1z"/>
</g>
<g>
	<g>
		<g>
			<path d="M283.2,166h-20.5c-1,0-1.8,0.8-1.8,1.7v20.5c0,1,0.8,1.7,1.8,1.7h20.5c1,0,1.8-0.8,1.8-1.7v-20.5
				C285,166.8,284.2,166,283.2,166z M268.1,186.5h-3.6V175h3.6V186.5z M266.3,173.4c-1.1,0-2.1-0.9-2.1-2.1c0-1.1,0.9-2.1,2.1-2.1
				c1.1,0,2.1,0.9,2.1,2.1S267.5,173.4,266.3,173.4z M281.5,186.5h-3.6v-5.6c0-1.3,0-3-1.8-3c-1.9,0-2.1,1.4-2.1,2.9v5.7h-3.6V175
				h3.4v1.6l0,0c0.5-0.9,1.6-1.8,3.4-1.8c3.6,0,4.3,2.4,4.3,5.5L281.5,186.5L281.5,186.5z"/>
		</g>
	</g>
</g>
<path d="M423.6,166c-5.4,0-9.6,4.5-9.6,9.9c0,5.7,7.4,14.1,9.6,14.1c1.9,0,9.3-8.4,9.3-14.1C432.9,170.5,428.7,166,423.6,166z
	 M423.6,181.1c-3.3,0-5.9-2.5-5.9-5.5c0-1.4,0.5-2.6,1.2-3.6l0,0c0,1.2,1,2.2,2.3,2.2s2.3-1,2.3-2.2c0-0.9-0.6-1.7-1.4-2.1
	c0.5-0.1,1-0.2,1.5-0.2c3,0,5.6,2.5,5.6,5.9C429.2,178.5,426.6,181.1,423.6,181.1z"/>
<g>
	<path class="st5" d="M443.4,201.2h2.6c0.5,0,0.9-0.4,0.9-0.9s-0.4-0.9-0.9-0.9h-2.6c-0.5,0-0.9,0.4-0.9,0.9
		S442.9,201.2,443.4,201.2z"/>
	<path class="st5" d="M448.6,204.7h-5.2c-0.5,0-0.9,0.4-0.9,0.9s0.4,0.9,0.9,0.9h5.2c0.5,0,0.9-0.4,0.9-0.9S449.1,204.7,448.6,204.7
		z"/>
	<path class="st5" d="M454,191h-16c-2.2,0-4,1.8-4,4v16c0,2.2,1.8,4,4,4h16c2.2,0,4-1.8,4-4v-16C458,192.8,456.2,191,454,191z
		 M453.3,205.7c0,2.5-2.1,4.6-4.6,4.6h-5.3c-2.6,0-4.6-2.1-4.6-4.6v-5.4c0-2.6,2.1-4.6,4.6-4.6h3.2c1.2,0.1,2.9,1.2,3.6,2.5
		c0.2,0.4,0.3,0.4,0.4,1.6c0.1,0.6,0.1,1,0.4,1.3c0.4,0.3,1.7,0.1,2,0.3l0.2,0.2l0.1,0.3v0.2L453.3,205.7L453.3,205.7z"/>
</g>
<g>
	<path class="st5" d="M232.7,196.6c-0.1,2.7-2,6.4-5.7,11.1c-3.8,4.9-7,7.4-9.6,7.4c-1.6,0-3-1.5-4.1-4.5c-0.7-2.7-1.5-5.5-2.2-8.2
		c-0.8-3-1.7-4.5-2.7-4.5c-0.2,0-0.9,0.4-2.2,1.3l-1.3-1.7c1.4-1.2,2.7-2.4,4-3.6c1.8-1.6,3.2-2.4,4.1-2.5c2.2-0.2,3.5,1.3,4,4.4
		c0.5,3.4,0.9,5.5,1.1,6.4c0.6,2.8,1.3,4.2,2.1,4.2c0.6,0,1.5-0.9,2.6-2.8c1.2-1.8,1.8-3.2,1.9-4.2c0.2-1.6-0.5-2.4-1.9-2.4
		c-0.7,0-1.3,0.2-2.1,0.5c1.4-4.5,4-6.6,7.8-6.5C231.5,191.1,232.9,192.9,232.7,196.6z"/>
</g>
<g>
	<polygon class="st5" points="246.3,201.2 247.2,204.3 250.5,204.3 247.9,206.2 248.8,209.2 246.3,207.4 243.7,209.2 244.6,206.2 
		242,204.3 245.3,204.3 	"/>
	<path class="st5" d="M255.3,191h-18c-2.3,0-4.3,1.9-4.3,4.3v15.5c0,2.3,1.9,4.3,4.3,4.3h18c2.3,0,4.2-1.9,4.2-4.3v-15.5
		C259.5,192.9,257.6,191,255.3,191z M245,193.5c0.7,0,1.3,0.6,1.3,1.3s-0.6,1.3-1.3,1.3s-1.3-0.6-1.3-1.3S244.3,193.5,245,193.5z
		 M241,193.5c0.7,0,1.3,0.6,1.3,1.3s-0.6,1.3-1.3,1.3s-1.3-0.6-1.3-1.3S240.3,193.5,241,193.5z M237,193.5c0.7,0,1.3,0.6,1.3,1.3
		s-0.6,1.3-1.3,1.3s-1.3-0.6-1.3-1.3S236.3,193.5,237,193.5z M257,210.8c0,1-0.8,1.8-1.7,1.8h-18c-1,0-1.8-0.8-1.8-1.8V198H257
		V210.8z"/>
</g>
<g>
	<path class="st5" d="M29.5,193.8c-1.1,0.5-2.3,0.8-3.5,1c1.3-0.8,2.2-1.9,2.7-3.4c-1.2,0.7-2.5,1.2-3.8,1.5
		c-1.1-1.2-2.7-1.9-4.4-1.9c-3.3,0-6.1,2.7-6.1,6.1c0,0.5,0.1,0.9,0.2,1.4c-5-0.3-9.5-2.7-12.5-6.3c-0.5,0.9-0.8,1.9-0.8,3
		c0,2.1,1.1,4,2.7,5c-1,0-1.9-0.3-2.7-0.8v0.1c0,2.9,2.1,5.4,4.9,5.9c-0.5,0.1-1,0.2-1.6,0.2c-0.4,0-0.8,0-1.1-0.1
		c0.8,2.4,3,4.2,5.7,4.2c-2.1,1.6-4.7,2.6-7.5,2.6c-0.5,0-1,0-1.4-0.1c2.7,1.7,5.9,2.7,9.3,2.7c11.1,0,17.2-9.2,17.2-17.2
		c0-0.3,0-0.5,0-0.8C27.7,196.1,28.7,195.1,29.5,193.8L29.5,193.8z"/>
</g>
<path class="st5" d="M154,201.5h-3.8v-3.8h-3v3.8h-3.8v3h3.8v3.8h3v-3.8h3.8 M130,200.8v4.7h6.5c-0.5,2.8-2.9,4.9-6.5,4.9
	c-4,0-7.2-3.4-7.2-7.3c0-3.9,3.2-7.3,7.2-7.3c1.8,0,3.4,0.6,4.6,1.8l0,0l3.4-3.4c-2.1-1.9-4.8-3.1-8-3.1c-6.6,0-12,5.4-12,12
	s5.4,12,12,12c6.9,0,11.5-4.9,11.5-11.7c0-0.9-0.1-1.7-0.2-2.5L130,200.8L130,200.8z"/>
<g>
	<path class="st5" d="M42,191c-6.6,0-12,5.4-12,12c0,5.1,3.2,9.4,7.6,11.2c-0.1-0.9-0.2-2.4,0-3.4c0.2-0.9,1.4-6,1.4-6
		s-0.4-0.7-0.4-1.8c0-1.7,1-2.9,2.2-2.9c1,0,1.5,0.8,1.5,1.7c0,1-0.7,2.6-1,4c-0.3,1.2,0.6,2.2,1.8,2.2c2.1,0,3.8-2.2,3.8-5.5
		c0-2.9-2.1-4.9-5-4.9c-3.4,0-5.4,2.6-5.4,5.2c0,1,0.4,2.1,0.9,2.7c0.1,0.1,0.1,0.2,0.1,0.3c-0.1,0.4-0.3,1.2-0.3,1.4
		c-0.1,0.2-0.2,0.3-0.4,0.2c-1.5-0.7-2.4-2.9-2.4-4.6c0-3.8,2.8-7.3,7.9-7.3c4.2,0,7.4,3,7.4,6.9c0,4.1-2.6,7.5-6.2,7.5
		c-1.2,0-2.4-0.6-2.8-1.4c0,0-0.6,2.3-0.7,2.9c-0.3,1-1,2.4-1.5,3.1c1.1,0.3,2.3,0.5,3.6,0.5c6.6,0,12-5.4,12-12S48.6,191,42,191z"
		/>
</g>
<g>
	<path class="st5" d="M115.7,192.3c-0.9-0.9-1.9-1.3-3.2-1.3h-15c-1.2,0-2.3,0.4-3.2,1.3c-0.9,0.9-1.3,1.9-1.3,3.2v15
		c0,1.2,0.4,2.3,1.3,3.2s1.9,1.3,3.2,1.3h15c1.2,0,2.3-0.4,3.2-1.3c0.9-0.9,1.3-1.9,1.3-3.2v-15C117,194.3,116.6,193.2,115.7,192.3
		L115.7,192.3z M102.9,205.3c-0.6,0.6-1.4,1-2.3,1s-1.7-0.3-2.3-1c-0.6-0.6-1-1.4-1-2.3s0.3-1.7,1-2.3s1.4-1,2.3-1s1.7,0.3,2.3,1
		c0.6,0.6,1,1.4,1,2.3S103.6,204.7,102.9,205.3L102.9,205.3z M111.7,205.3c-0.6,0.6-1.4,1-2.3,1s-1.7-0.3-2.3-1
		c-0.6-0.6-1-1.4-1-2.3s0.3-1.7,1-2.3s1.4-1,2.3-1s1.7,0.3,2.3,1c0.6,0.6,1,1.4,1,2.3S112.4,204.7,111.7,205.3L111.7,205.3z"/>
</g>
<g>
	<path class="st5" d="M202.6,202.4c-0.1,0.1-0.2,0.1-0.3,0.2v-9.3c0-1.3-1-2.3-2.2-2.3h-16.8c-1.2,0-2.2,1-2.2,2.3v9.3
		c-0.1-0.1-0.2-0.1-0.3-0.2c-0.7-0.5-1.2,0.2-0.7,0.8c0.9,1,2.5,2.4,5,3.4c-2.6,9,6.4,10.4,6.3,5.8c0,0.1,0-2.6,0-4.5
		c0.2,0.1,0.4,0.1,0.6,0.2c0,1.9,0,4.5,0,4.4c-0.1,4.6,8.9,3.2,6.3-5.8c2.5-1,4.1-2.3,5-3.4C203.8,202.6,203.4,201.9,202.6,202.4
		L202.6,202.4z M193.7,204.7c-1.1-0.1-1.5,0.4-1.6,1.2c-0.3-0.2-0.5-0.4-0.8-0.7l-0.1-0.1c-0.2-0.3-0.6-0.4-1.3-0.4
		c-1.5,0-4.2,0.3-7.4-1.3v-9c0-1.6,0.4-2.1,1.9-2.1h14.9c1.4,0,1.9,0.6,1.9,2.1v8.9C198,205.1,195.2,204.8,193.7,204.7L193.7,204.7z
		"/>
	<path class="st5" d="M195.3,198.2c-1.6,0-2.9,1.2-2.9,2.7s1.3,2.7,2.9,2.7c1.6,0,2.9-1.2,2.9-2.7S196.9,198.2,195.3,198.2
		L195.3,198.2z"/>
	<path class="st5" d="M191.5,200.9c0,1.5-1.3,2.7-2.9,2.7s-2.9-1.2-2.9-2.7s1.3-2.7,2.9-2.7S191.5,199.4,191.5,200.9L191.5,200.9z"
		/>
</g>
<path class="st5" d="M63.1,215v-10.9h3.7l0.5-4.3h-4.2v-2.7c0-1.2,0.3-2.1,2.1-2.1h2.3v-3.8c-0.4,0-1.7-0.2-3.3-0.2
	c-3.3,0-5.5,2-5.5,5.6v3.1H55v4.3h3.7v11L63.1,215L63.1,215z"/>
<g>
	<path class="st5" d="M164.8,205.6c1.8-0.9,3.6-1.9,5.4-2.8c-1.8-0.9-3.6-1.9-5.4-2.8V205.6z"/>
	<path class="st5" d="M167,191c-6.6,0-12,5.4-12,12s5.4,12,12,12s12-5.4,12-12S173.6,191,167,191L167,191z M175.2,207
		c-0.2,0.9-0.9,1.6-1.8,1.7c-2.1,0.2-4.2,0.2-6.3,0.2s-4.2,0-6.3-0.2c-0.9-0.1-1.6-0.8-1.8-1.7c-0.3-1.3-0.3-2.7-0.3-4s0-2.7,0.3-4
		c0.2-0.9,0.9-1.6,1.8-1.7c2.1-0.2,4.2-0.2,6.3-0.2s4.2,0,6.3,0.2c0.9,0.1,1.6,0.8,1.8,1.7c0.3,1.3,0.3,2.7,0.3,4
		S175.5,205.7,175.2,207L175.2,207z"/>
</g>
<g>
	<path class="st5" d="M80,193.2c3.2,0,3.6,0,4.8,0.1c1.2,0.1,1.8,0.2,2.2,0.4c0.6,0.2,1,0.5,1.4,0.9s0.7,0.8,0.9,1.4
		c0.2,0.4,0.4,1.1,0.4,2.2c0.1,1.3,0.1,1.6,0.1,4.8s0,3.6-0.1,4.8s-0.2,1.8-0.4,2.2c-0.2,0.6-0.5,1-0.9,1.4s-0.8,0.7-1.4,0.9
		c-0.4,0.2-1.1,0.4-2.2,0.4c-1.3,0.1-1.6,0.1-4.8,0.1s-3.6,0-4.8-0.1c-1.2-0.1-1.8-0.2-2.2-0.4c-0.6-0.2-1-0.5-1.4-0.9
		s-0.7-0.8-0.9-1.4c-0.2-0.4-0.4-1.1-0.4-2.2c-0.1-1.3-0.1-1.6-0.1-4.8s0-3.6,0.1-4.8s0.2-1.8,0.4-2.2c0.2-0.6,0.5-1,0.9-1.4
		s0.8-0.7,1.4-0.9c0.4-0.2,1.1-0.4,2.2-0.4C76.4,193.2,76.8,193.2,80,193.2 M80,191c-3.3,0-3.7,0-4.9,0.1c-1.3,0.1-2.1,0.3-2.9,0.6
		s-1.5,0.7-2.1,1.4s-1.1,1.3-1.4,2.1s-0.5,1.6-0.6,2.9c-0.1,1.3-0.1,1.7-0.1,4.9s0,3.7,0.1,4.9c0.1,1.3,0.3,2.2,0.6,2.9
		c0.3,0.8,0.7,1.5,1.4,2.1c0.7,0.6,1.3,1.1,2.1,1.4c0.8,0.3,1.6,0.5,2.9,0.6s1.7,0.1,4.9,0.1s3.7,0,4.9-0.1c1.3-0.1,2.1-0.3,2.9-0.6
		s1.5-0.7,2.1-1.4s1.1-1.3,1.4-2.1s0.5-1.6,0.6-2.9c0.1-1.3,0.1-1.7,0.1-4.9s0-3.7-0.1-4.9c-0.1-1.3-0.3-2.2-0.6-2.9
		c-0.3-0.8-0.7-1.5-1.4-2.1c-0.7-0.6-1.3-1.1-2.1-1.4c-0.8-0.3-1.6-0.5-2.9-0.6C83.7,191,83.3,191,80,191L80,191z"/>
	<path class="st5" d="M80,196.8c-3.4,0-6.2,2.8-6.2,6.2s2.8,6.2,6.2,6.2s6.2-2.8,6.2-6.2S83.4,196.8,80,196.8z M80,207
		c-2.2,0-4-1.8-4-4s1.8-4,4-4s4,1.8,4,4S82.2,207,80,207z"/>
	<circle class="st5" cx="86.4" cy="196.6" r="1.4"/>
</g>
<g>
	<path class="st5" d="M385.4,215L385.4,215c-0.3,0-0.6-0.3-0.6-0.6v-21.2c0-0.3,0.3-0.6,0.6-0.6l0,0c0.3,0,0.6,0.3,0.6,0.6v21.2
		C386,214.7,385.8,215,385.4,215z"/>
	<path class="st5" d="M383.2,215L383.2,215c-0.3,0-0.6-0.3-0.6-0.6v-19.9c0-0.3,0.3-0.6,0.6-0.6l0,0c0.3,0,0.6,0.3,0.6,0.6v19.9
		C383.8,214.7,383.5,215,383.2,215z"/>
	<path class="st5" d="M381,215L381,215c-0.3,0-0.6-0.3-0.6-0.6v-17.6c0-0.3,0.3-0.6,0.6-0.6l0,0c0.3,0,0.6,0.3,0.6,0.6v17.6
		C381.6,214.7,381.3,215,381,215z"/>
	<path class="st5" d="M378.7,215L378.7,215c-0.3,0-0.6-0.3-0.6-0.6v-18c0-0.3,0.3-0.6,0.6-0.6l0,0c0.3,0,0.6,0.3,0.6,0.6v18
		C379.3,214.7,379.1,215,378.7,215z"/>
	<path class="st5" d="M376.5,215L376.5,215c-0.3,0-0.6-0.3-0.6-0.6v-18.3c0-0.3,0.3-0.6,0.6-0.6l0,0c0.3,0,0.6,0.3,0.6,0.6v18.3
		C377.1,214.7,376.8,215,376.5,215z"/>
	<path class="st5" d="M374.3,215L374.3,215c-0.3,0-0.6-0.3-0.6-0.6v-17.8c0-0.3,0.3-0.6,0.6-0.6l0,0c0.3,0,0.6,0.3,0.6,0.6v17.8
		C374.9,214.7,374.6,215,374.3,215z"/>
	<path class="st5" d="M358.6,211.9L358.6,211.9c-0.3,0-0.6-0.3-0.6-0.6V206c0-0.3,0.3-0.6,0.6-0.6l0,0c0.3,0,0.6,0.3,0.6,0.6v5.3
		C359.2,211.6,358.9,211.9,358.6,211.9z"/>
	<path class="st5" d="M360.8,213.7L360.8,213.7c-0.3,0-0.6-0.3-0.6-0.6V204c0-0.3,0.3-0.6,0.6-0.6l0,0c0.3,0,0.6,0.3,0.6,0.6v9.1
		C361.4,213.5,361.2,213.7,360.8,213.7z"/>
	<path class="st5" d="M363.1,214.6L363.1,214.6c-0.3,0-0.6-0.3-0.6-0.6v-10.9c0-0.3,0.3-0.6,0.6-0.6l0,0c0.3,0,0.6,0.3,0.6,0.6V214
		C363.7,214.3,363.4,214.6,363.1,214.6z"/>
	<path class="st5" d="M365.3,214.8L365.3,214.8c-0.3,0-0.6-0.3-0.6-0.6v-11.4c0-0.3,0.3-0.6,0.6-0.6l0,0c0.3,0,0.6,0.3,0.6,0.6v11.4
		C365.9,214.5,365.6,214.8,365.3,214.8z"/>
	<path class="st5" d="M367.5,214.9L367.5,214.9c-0.3,0-0.6-0.3-0.6-0.6v-11.1c0-0.3,0.3-0.6,0.6-0.6l0,0c0.3,0,0.6,0.3,0.6,0.6v11.1
		C368.1,214.6,367.9,214.9,367.5,214.9z"/>
	<path class="st5" d="M369.8,215L369.8,215c-0.3,0-0.6-0.3-0.6-0.6v-14.7c0-0.3,0.3-0.6,0.6-0.6l0,0c0.3,0,0.6,0.3,0.6,0.6v14.7
		C370.4,214.7,370.1,215,369.8,215z"/>
	<path class="st5" d="M372,215L372,215c-0.3,0-0.6-0.3-0.6-0.6v-16.8c0-0.3,0.3-0.6,0.6-0.6l0,0c0.3,0,0.6,0.3,0.6,0.6v16.8
		C372.6,214.7,372.3,215,372,215z"/>
	<path class="st5" d="M406.4,201.4c-0.9,0-1.8,0.2-2.6,0.5c-0.5-6.1-5.7-10.9-11.9-10.9c-1.5,0-3,0.3-4.3,0.8
		c-0.5,0.2-0.6,0.4-0.7,0.8v21.6c0,0.4,0.3,0.8,0.7,0.8c0,0,18.7,0,18.8,0c3.8,0,6.8-3,6.8-6.8S410.2,201.4,406.4,201.4z"/>
</g>
<g>
	<path class="st5" d="M345.1,197c-3.3,0-6.1,2.6-6.1,6s2.6,6.1,6,6.1c3.3,0,6.1-2.6,6.1-6C351.1,199.7,348.5,197,345.1,197z
		 M345,206c-1.7,0-3-1.4-3-3.1c0-1.7,1.4-3,3.1-3s3,1.4,3,3.1S346.7,206.1,345,206z"/>
	<path class="st5" d="M345,191L345,191L345,191h-7.8h-2.5H334c-0.5,0-1,0.4-1,1v0.6v2v8.4c0,6.6,5.4,12,12,12s12-5.4,12-12
		S351.6,191,345,191z M336.8,202.8c0-4.6,3.8-8.3,8.4-8.3s8.3,3.8,8.3,8.4c0,4.6-3.8,8.3-8.4,8.3
		C340.4,211.2,336.7,207.4,336.8,202.8z"/>
</g>
<g id="Smuggy_1_">
	<path class="st5" d="M316.2,195.7c2.2,0,3.3-1.3,3.1-2.5c-0.1-1-1.1-1.9-2.9-1.9c-1.5,0-2.5,1.1-2.6,2.2
		C313.7,194.7,314.4,195.8,316.2,195.7z"/>
	<path class="st5" d="M327.2,195.5c2.1-0.1,3-1.2,3.1-2.2c0-1.2-1.1-2.4-3-2.2c-1.5,0.1-2.4,1.2-2.6,2.2
		C324.6,194.4,325.4,195.6,327.2,195.5z"/>
	<path class="st5" d="M328.6,200.2c-5.3,0.5-5.5,0.6-15.2,0.8c-4.1,0-3.2,14,5.5,14C327.2,215,337.2,199.3,328.6,200.2z
		 M319.1,212.5c-7.6,0-6.6-9.1-5.3-9.1c8.9-0.4,11.1-0.7,14.3-0.7S325.2,212.5,319.1,212.5z"/>
</g>
<g>
	<path class="st5" d="M305.8,191h-15.6c-2.3,0-4.2,1.9-4.2,4.2v15.6c0,2.3,1.9,4.2,4.2,4.2h15.6c2.3,0,4.2-1.9,4.2-4.2v-15.6
		C310,192.9,308.2,191,305.8,191z M304.1,205.1c0,1.9-0.5,3.3-1.5,4.3s-2.7,1.5-4.6,1.5s-3.6-0.5-4.6-1.5s-1.5-2.4-1.5-4.3v-8.7h3.8
		v8.4c0,1,0.2,1.7,0.6,2.2s1,0.7,1.7,0.7s1.4-0.3,1.7-0.7c0.4-0.5,0.6-1.2,0.6-2.2v-8.4h3.8V205.1L304.1,205.1z"/>
</g>
<g>
	<g>
		<g>
			<path class="st5" d="M283.2,191h-20.5c-1,0-1.8,0.8-1.8,1.7v20.5c0,1,0.8,1.7,1.8,1.7h20.5c1,0,1.8-0.8,1.8-1.7v-20.5
				C285,191.8,284.2,191,283.2,191z M268.1,211.5h-3.6V200h3.6V211.5z M266.3,198.4c-1.1,0-2.1-0.9-2.1-2.1c0-1.1,0.9-2.1,2.1-2.1
				c1.1,0,2.1,0.9,2.1,2.1S267.5,198.4,266.3,198.4z M281.5,211.5h-3.6v-5.6c0-1.3,0-3-1.8-3c-1.9,0-2.1,1.4-2.1,2.9v5.7h-3.6V200
				h3.4v1.6l0,0c0.5-0.9,1.6-1.8,3.4-1.8c3.6,0,4.3,2.4,4.3,5.5L281.5,211.5L281.5,211.5z"/>
		</g>
	</g>
</g>
<path class="st5" d="M423.6,191c-5.4,0-9.6,4.5-9.6,9.9c0,5.7,7.4,14.1,9.6,14.1c1.9,0,9.3-8.4,9.3-14.1
	C432.9,195.5,428.7,191,423.6,191z M423.6,206.1c-3.3,0-5.9-2.5-5.9-5.5c0-1.4,0.5-2.6,1.2-3.6l0,0c0,1.2,1,2.2,2.3,2.2
	s2.3-1,2.3-2.2c0-0.9-0.6-1.7-1.4-2.1c0.5-0.1,1-0.2,1.5-0.2c3,0,5.6,2.5,5.6,5.9C429.2,203.5,426.6,206.1,423.6,206.1z"/>
<g>
	<path class="st1" d="M443.4,226.2h2.6c0.5,0,0.9-0.4,0.9-0.9s-0.4-0.9-0.9-0.9h-2.6c-0.5,0-0.9,0.4-0.9,0.9
		S442.9,226.2,443.4,226.2z"/>
	<path class="st1" d="M448.6,229.7h-5.2c-0.5,0-0.9,0.4-0.9,0.9s0.4,0.9,0.9,0.9h5.2c0.5,0,0.9-0.4,0.9-0.9S449.1,229.7,448.6,229.7
		z"/>
	<path class="st1" d="M454,216h-16c-2.2,0-4,1.8-4,4v16c0,2.2,1.8,4,4,4h16c2.2,0,4-1.8,4-4v-16C458,217.8,456.2,216,454,216z
		 M453.3,230.7c0,2.5-2.1,4.6-4.6,4.6h-5.3c-2.6,0-4.6-2.1-4.6-4.6v-5.4c0-2.6,2.1-4.6,4.6-4.6h3.2c1.2,0.1,2.9,1.2,3.6,2.5
		c0.2,0.4,0.3,0.4,0.4,1.6c0.1,0.6,0.1,1,0.4,1.3c0.4,0.3,1.7,0.1,2,0.3l0.2,0.2l0.1,0.3v0.2L453.3,230.7L453.3,230.7z"/>
</g>
<g>
	<path class="st1" d="M232.7,221.6c-0.1,2.7-2,6.4-5.7,11.1c-3.8,4.9-7,7.4-9.6,7.4c-1.6,0-3-1.5-4.1-4.5c-0.7-2.7-1.5-5.5-2.2-8.2
		c-0.8-3-1.7-4.5-2.7-4.5c-0.2,0-0.9,0.4-2.2,1.3l-1.3-1.7c1.4-1.2,2.7-2.4,4-3.6c1.8-1.6,3.2-2.4,4.1-2.5c2.2-0.2,3.5,1.3,4,4.4
		c0.5,3.4,0.9,5.5,1.1,6.4c0.6,2.8,1.3,4.2,2.1,4.2c0.6,0,1.5-0.9,2.6-2.8c1.2-1.8,1.8-3.2,1.9-4.2c0.2-1.6-0.5-2.4-1.9-2.4
		c-0.7,0-1.3,0.2-2.1,0.5c1.4-4.5,4-6.6,7.8-6.5C231.5,216.1,232.9,217.9,232.7,221.6z"/>
</g>
<g>
	<polygon class="st1" points="246.3,226.2 247.2,229.3 250.5,229.3 247.9,231.2 248.8,234.2 246.3,232.4 243.7,234.2 244.6,231.2 
		242,229.3 245.3,229.3 	"/>
	<path class="st1" d="M255.3,216h-18c-2.3,0-4.3,1.9-4.3,4.3v15.5c0,2.3,1.9,4.3,4.3,4.3h18c2.3,0,4.2-1.9,4.2-4.3v-15.5
		C259.5,217.9,257.6,216,255.3,216z M245,218.5c0.7,0,1.3,0.6,1.3,1.3s-0.6,1.3-1.3,1.3s-1.3-0.6-1.3-1.3S244.3,218.5,245,218.5z
		 M241,218.5c0.7,0,1.3,0.6,1.3,1.3s-0.6,1.3-1.3,1.3s-1.3-0.6-1.3-1.3S240.3,218.5,241,218.5z M237,218.5c0.7,0,1.3,0.6,1.3,1.3
		s-0.6,1.3-1.3,1.3s-1.3-0.6-1.3-1.3S236.3,218.5,237,218.5z M257,235.8c0,1-0.8,1.8-1.7,1.8h-18c-1,0-1.8-0.8-1.8-1.8V223H257
		V235.8z"/>
</g>
<g>
	<path class="st1" d="M29.5,218.8c-1.1,0.5-2.3,0.8-3.5,1c1.3-0.8,2.2-1.9,2.7-3.4c-1.2,0.7-2.5,1.2-3.8,1.5
		c-1.1-1.2-2.7-1.9-4.4-1.9c-3.3,0-6.1,2.7-6.1,6.1c0,0.5,0.1,0.9,0.2,1.4c-5-0.3-9.5-2.7-12.5-6.3c-0.5,0.9-0.8,1.9-0.8,3
		c0,2.1,1.1,4,2.7,5c-1,0-1.9-0.3-2.7-0.8v0.1c0,2.9,2.1,5.4,4.9,5.9c-0.5,0.1-1,0.2-1.6,0.2c-0.4,0-0.8,0-1.1-0.1
		c0.8,2.4,3,4.2,5.7,4.2c-2.1,1.6-4.7,2.6-7.5,2.6c-0.5,0-1,0-1.4-0.1c2.7,1.7,5.9,2.7,9.3,2.7c11.1,0,17.2-9.2,17.2-17.2
		c0-0.3,0-0.5,0-0.8C27.7,221.1,28.7,220.1,29.5,218.8L29.5,218.8z"/>
</g>
<path class="st1" d="M154,226.5h-3.8v-3.8h-3v3.8h-3.8v3h3.8v3.8h3v-3.8h3.8 M130,225.8v4.7h6.5c-0.5,2.8-2.9,4.9-6.5,4.9
	c-4,0-7.2-3.4-7.2-7.3c0-3.9,3.2-7.3,7.2-7.3c1.8,0,3.4,0.6,4.6,1.8l0,0l3.4-3.4c-2.1-1.9-4.8-3.1-8-3.1c-6.6,0-12,5.4-12,12
	s5.4,12,12,12c6.9,0,11.5-4.9,11.5-11.7c0-0.9-0.1-1.7-0.2-2.5L130,225.8L130,225.8z"/>
<g>
	<path class="st1" d="M42,216c-6.6,0-12,5.4-12,12c0,5.1,3.2,9.4,7.6,11.2c-0.1-0.9-0.2-2.4,0-3.4c0.2-0.9,1.4-6,1.4-6
		s-0.4-0.7-0.4-1.8c0-1.7,1-2.9,2.2-2.9c1,0,1.5,0.8,1.5,1.7c0,1-0.7,2.6-1,4c-0.3,1.2,0.6,2.2,1.8,2.2c2.1,0,3.8-2.2,3.8-5.5
		c0-2.9-2.1-4.9-5-4.9c-3.4,0-5.4,2.6-5.4,5.2c0,1,0.4,2.1,0.9,2.7c0.1,0.1,0.1,0.2,0.1,0.3c-0.1,0.4-0.3,1.2-0.3,1.4
		c-0.1,0.2-0.2,0.3-0.4,0.2c-1.5-0.7-2.4-2.9-2.4-4.6c0-3.8,2.8-7.3,7.9-7.3c4.2,0,7.4,3,7.4,6.9c0,4.1-2.6,7.5-6.2,7.5
		c-1.2,0-2.4-0.6-2.8-1.4c0,0-0.6,2.3-0.7,2.9c-0.3,1-1,2.4-1.5,3.1c1.1,0.3,2.3,0.5,3.6,0.5c6.6,0,12-5.4,12-12S48.6,216,42,216z"
		/>
</g>
<g>
	<path class="st1" d="M115.7,217.3c-0.9-0.9-1.9-1.3-3.2-1.3h-15c-1.2,0-2.3,0.4-3.2,1.3c-0.9,0.9-1.3,1.9-1.3,3.2v15
		c0,1.2,0.4,2.3,1.3,3.2s1.9,1.3,3.2,1.3h15c1.2,0,2.3-0.4,3.2-1.3c0.9-0.9,1.3-1.9,1.3-3.2v-15C117,219.3,116.6,218.2,115.7,217.3
		L115.7,217.3z M102.9,230.3c-0.6,0.6-1.4,1-2.3,1s-1.7-0.3-2.3-1c-0.6-0.6-1-1.4-1-2.3s0.3-1.7,1-2.3s1.4-1,2.3-1s1.7,0.3,2.3,1
		c0.6,0.6,1,1.4,1,2.3S103.6,229.7,102.9,230.3L102.9,230.3z M111.7,230.3c-0.6,0.6-1.4,1-2.3,1s-1.7-0.3-2.3-1
		c-0.6-0.6-1-1.4-1-2.3s0.3-1.7,1-2.3s1.4-1,2.3-1s1.7,0.3,2.3,1c0.6,0.6,1,1.4,1,2.3S112.4,229.7,111.7,230.3L111.7,230.3z"/>
</g>
<g>
	<path class="st1" d="M202.6,227.4c-0.1,0.1-0.2,0.1-0.3,0.2v-9.3c0-1.3-1-2.3-2.2-2.3h-16.8c-1.2,0-2.2,1-2.2,2.3v9.3
		c-0.1-0.1-0.2-0.1-0.3-0.2c-0.7-0.5-1.2,0.2-0.7,0.8c0.9,1,2.5,2.4,5,3.4c-2.6,9,6.4,10.4,6.3,5.8c0,0.1,0-2.6,0-4.5
		c0.2,0.1,0.4,0.1,0.6,0.2c0,1.9,0,4.5,0,4.4c-0.1,4.6,8.9,3.2,6.3-5.8c2.5-1,4.1-2.3,5-3.4C203.8,227.6,203.4,226.9,202.6,227.4
		L202.6,227.4z M193.7,229.7c-1.1-0.1-1.5,0.4-1.6,1.2c-0.3-0.2-0.5-0.4-0.8-0.7l-0.1-0.1c-0.2-0.3-0.6-0.4-1.3-0.4
		c-1.5,0-4.2,0.3-7.4-1.3v-9c0-1.6,0.4-2.1,1.9-2.1h14.9c1.4,0,1.9,0.6,1.9,2.1v8.9C198,230.1,195.2,229.8,193.7,229.7L193.7,229.7z
		"/>
	<path class="st1" d="M195.3,223.2c-1.6,0-2.9,1.2-2.9,2.7s1.3,2.7,2.9,2.7c1.6,0,2.9-1.2,2.9-2.7S196.9,223.2,195.3,223.2
		L195.3,223.2z"/>
	<path class="st1" d="M191.5,225.9c0,1.5-1.3,2.7-2.9,2.7s-2.9-1.2-2.9-2.7s1.3-2.7,2.9-2.7S191.5,224.4,191.5,225.9L191.5,225.9z"
		/>
</g>
<path class="st1" d="M63.1,240v-10.9h3.7l0.5-4.3h-4.2v-2.7c0-1.2,0.3-2.1,2.1-2.1h2.3v-3.8c-0.4,0-1.7-0.2-3.3-0.2
	c-3.3,0-5.5,2-5.5,5.6v3.1H55v4.3h3.7v11L63.1,240L63.1,240z"/>
<g>
	<path class="st1" d="M164.8,230.6c1.8-0.9,3.6-1.9,5.4-2.8c-1.8-0.9-3.6-1.9-5.4-2.8V230.6z"/>
	<path class="st1" d="M167,216c-6.6,0-12,5.4-12,12s5.4,12,12,12s12-5.4,12-12S173.6,216,167,216L167,216z M175.2,232
		c-0.2,0.9-0.9,1.6-1.8,1.7c-2.1,0.2-4.2,0.2-6.3,0.2s-4.2,0-6.3-0.2c-0.9-0.1-1.6-0.8-1.8-1.7c-0.3-1.3-0.3-2.7-0.3-4s0-2.7,0.3-4
		c0.2-0.9,0.9-1.6,1.8-1.7c2.1-0.2,4.2-0.2,6.3-0.2s4.2,0,6.3,0.2c0.9,0.1,1.6,0.8,1.8,1.7c0.3,1.3,0.3,2.7,0.3,4
		S175.5,230.7,175.2,232L175.2,232z"/>
</g>
<g>
	<path class="st1" d="M80,218.2c3.2,0,3.6,0,4.8,0.1c1.2,0.1,1.8,0.2,2.2,0.4c0.6,0.2,1,0.5,1.4,0.9s0.7,0.8,0.9,1.4
		c0.2,0.4,0.4,1.1,0.4,2.2c0.1,1.3,0.1,1.6,0.1,4.8s0,3.6-0.1,4.8s-0.2,1.8-0.4,2.2c-0.2,0.6-0.5,1-0.9,1.4s-0.8,0.7-1.4,0.9
		c-0.4,0.2-1.1,0.4-2.2,0.4c-1.3,0.1-1.6,0.1-4.8,0.1s-3.6,0-4.8-0.1c-1.2-0.1-1.8-0.2-2.2-0.4c-0.6-0.2-1-0.5-1.4-0.9
		s-0.7-0.8-0.9-1.4c-0.2-0.4-0.4-1.1-0.4-2.2c-0.1-1.3-0.1-1.6-0.1-4.8s0-3.6,0.1-4.8s0.2-1.8,0.4-2.2c0.2-0.6,0.5-1,0.9-1.4
		s0.8-0.7,1.4-0.9c0.4-0.2,1.1-0.4,2.2-0.4C76.4,218.2,76.8,218.2,80,218.2 M80,216c-3.3,0-3.7,0-4.9,0.1c-1.3,0.1-2.1,0.3-2.9,0.6
		s-1.5,0.7-2.1,1.4s-1.1,1.3-1.4,2.1s-0.5,1.6-0.6,2.9c-0.1,1.3-0.1,1.7-0.1,4.9s0,3.7,0.1,4.9c0.1,1.3,0.3,2.2,0.6,2.9
		c0.3,0.8,0.7,1.5,1.4,2.1c0.7,0.6,1.3,1.1,2.1,1.4c0.8,0.3,1.6,0.5,2.9,0.6s1.7,0.1,4.9,0.1s3.7,0,4.9-0.1c1.3-0.1,2.1-0.3,2.9-0.6
		s1.5-0.7,2.1-1.4s1.1-1.3,1.4-2.1s0.5-1.6,0.6-2.9c0.1-1.3,0.1-1.7,0.1-4.9s0-3.7-0.1-4.9c-0.1-1.3-0.3-2.2-0.6-2.9
		c-0.3-0.8-0.7-1.5-1.4-2.1c-0.7-0.6-1.3-1.1-2.1-1.4c-0.8-0.3-1.6-0.5-2.9-0.6C83.7,216,83.3,216,80,216L80,216z"/>
	<path class="st1" d="M80,221.8c-3.4,0-6.2,2.8-6.2,6.2s2.8,6.2,6.2,6.2s6.2-2.8,6.2-6.2S83.4,221.8,80,221.8z M80,232
		c-2.2,0-4-1.8-4-4s1.8-4,4-4s4,1.8,4,4S82.2,232,80,232z"/>
	<circle class="st1" cx="86.4" cy="221.6" r="1.4"/>
</g>
<g>
	<path class="st1" d="M385.4,240L385.4,240c-0.3,0-0.6-0.3-0.6-0.6v-21.2c0-0.3,0.3-0.6,0.6-0.6l0,0c0.3,0,0.6,0.3,0.6,0.6v21.2
		C386,239.7,385.8,240,385.4,240z"/>
	<path class="st1" d="M383.2,240L383.2,240c-0.3,0-0.6-0.3-0.6-0.6v-19.9c0-0.3,0.3-0.6,0.6-0.6l0,0c0.3,0,0.6,0.3,0.6,0.6v19.9
		C383.8,239.7,383.5,240,383.2,240z"/>
	<path class="st1" d="M381,240L381,240c-0.3,0-0.6-0.3-0.6-0.6v-17.6c0-0.3,0.3-0.6,0.6-0.6l0,0c0.3,0,0.6,0.3,0.6,0.6v17.6
		C381.6,239.7,381.3,240,381,240z"/>
	<path class="st1" d="M378.7,240L378.7,240c-0.3,0-0.6-0.3-0.6-0.6v-18c0-0.3,0.3-0.6,0.6-0.6l0,0c0.3,0,0.6,0.3,0.6,0.6v18
		C379.3,239.7,379.1,240,378.7,240z"/>
	<path class="st1" d="M376.5,240L376.5,240c-0.3,0-0.6-0.3-0.6-0.6v-18.3c0-0.3,0.3-0.6,0.6-0.6l0,0c0.3,0,0.6,0.3,0.6,0.6v18.3
		C377.1,239.7,376.8,240,376.5,240z"/>
	<path class="st1" d="M374.3,240L374.3,240c-0.3,0-0.6-0.3-0.6-0.6v-17.8c0-0.3,0.3-0.6,0.6-0.6l0,0c0.3,0,0.6,0.3,0.6,0.6v17.8
		C374.9,239.7,374.6,240,374.3,240z"/>
	<path class="st1" d="M358.6,236.9L358.6,236.9c-0.3,0-0.6-0.3-0.6-0.6V231c0-0.3,0.3-0.6,0.6-0.6l0,0c0.3,0,0.6,0.3,0.6,0.6v5.3
		C359.2,236.6,358.9,236.9,358.6,236.9z"/>
	<path class="st1" d="M360.8,238.7L360.8,238.7c-0.3,0-0.6-0.3-0.6-0.6V229c0-0.3,0.3-0.6,0.6-0.6l0,0c0.3,0,0.6,0.3,0.6,0.6v9.1
		C361.4,238.5,361.2,238.7,360.8,238.7z"/>
	<path class="st1" d="M363.1,239.6L363.1,239.6c-0.3,0-0.6-0.3-0.6-0.6v-10.9c0-0.3,0.3-0.6,0.6-0.6l0,0c0.3,0,0.6,0.3,0.6,0.6V239
		C363.7,239.3,363.4,239.6,363.1,239.6z"/>
	<path class="st1" d="M365.3,239.8L365.3,239.8c-0.3,0-0.6-0.3-0.6-0.6v-11.4c0-0.3,0.3-0.6,0.6-0.6l0,0c0.3,0,0.6,0.3,0.6,0.6v11.4
		C365.9,239.5,365.6,239.8,365.3,239.8z"/>
	<path class="st1" d="M367.5,239.9L367.5,239.9c-0.3,0-0.6-0.3-0.6-0.6v-11.1c0-0.3,0.3-0.6,0.6-0.6l0,0c0.3,0,0.6,0.3,0.6,0.6v11.1
		C368.1,239.6,367.9,239.9,367.5,239.9z"/>
	<path class="st1" d="M369.8,240L369.8,240c-0.3,0-0.6-0.3-0.6-0.6v-14.7c0-0.3,0.3-0.6,0.6-0.6l0,0c0.3,0,0.6,0.3,0.6,0.6v14.7
		C370.4,239.7,370.1,240,369.8,240z"/>
	<path class="st1" d="M372,240L372,240c-0.3,0-0.6-0.3-0.6-0.6v-16.8c0-0.3,0.3-0.6,0.6-0.6l0,0c0.3,0,0.6,0.3,0.6,0.6v16.8
		C372.6,239.7,372.3,240,372,240z"/>
	<path class="st1" d="M406.4,226.4c-0.9,0-1.8,0.2-2.6,0.5c-0.5-6.1-5.7-10.9-11.9-10.9c-1.5,0-3,0.3-4.3,0.8
		c-0.5,0.2-0.6,0.4-0.7,0.8v21.6c0,0.4,0.3,0.8,0.7,0.8c0,0,18.7,0,18.8,0c3.8,0,6.8-3,6.8-6.8S410.2,226.4,406.4,226.4z"/>
</g>
<g>
	<path class="st1" d="M345.1,222c-3.3,0-6.1,2.6-6.1,6s2.6,6.1,6,6.1c3.3,0,6.1-2.6,6.1-6C351.1,224.7,348.5,222,345.1,222z
		 M345,231c-1.7,0-3-1.4-3-3.1c0-1.7,1.4-3,3.1-3s3,1.4,3,3.1S346.7,231.1,345,231z"/>
	<path class="st1" d="M345,216L345,216L345,216h-7.8h-2.5H334c-0.5,0-1,0.4-1,1v0.6v2v8.4c0,6.6,5.4,12,12,12s12-5.4,12-12
		S351.6,216,345,216z M336.8,227.8c0-4.6,3.8-8.3,8.4-8.3s8.3,3.8,8.3,8.4c0,4.6-3.8,8.3-8.4,8.3
		C340.4,236.2,336.7,232.4,336.8,227.8z"/>
</g>
<g id="Smuggy_3_">
	<path class="st1" d="M316.2,220.7c2.2,0,3.3-1.3,3.1-2.5c-0.1-1-1.1-1.9-2.9-1.9c-1.5,0-2.5,1.1-2.6,2.2
		C313.7,219.7,314.4,220.8,316.2,220.7z"/>
	<path class="st1" d="M327.2,220.5c2.1-0.1,3-1.2,3.1-2.2c0-1.2-1.1-2.4-3-2.2c-1.5,0.1-2.4,1.2-2.6,2.2
		C324.6,219.4,325.4,220.6,327.2,220.5z"/>
	<path class="st1" d="M328.6,225.2c-5.3,0.5-5.5,0.6-15.2,0.8c-4.1,0-3.2,14,5.5,14C327.2,240,337.2,224.3,328.6,225.2z
		 M319.1,237.5c-7.6,0-6.6-9.1-5.3-9.1c8.9-0.4,11.1-0.7,14.3-0.7S325.2,237.5,319.1,237.5z"/>
</g>
<g>
	<path class="st1" d="M305.8,216h-15.6c-2.3,0-4.2,1.9-4.2,4.2v15.6c0,2.3,1.9,4.2,4.2,4.2h15.6c2.3,0,4.2-1.9,4.2-4.2v-15.6
		C310,217.9,308.2,216,305.8,216z M304.1,230.1c0,1.9-0.5,3.3-1.5,4.3s-2.7,1.5-4.6,1.5s-3.6-0.5-4.6-1.5s-1.5-2.4-1.5-4.3v-8.7h3.8
		v8.4c0,1,0.2,1.7,0.6,2.2s1,0.7,1.7,0.7s1.4-0.3,1.7-0.7c0.4-0.5,0.6-1.2,0.6-2.2v-8.4h3.8V230.1L304.1,230.1z"/>
</g>
<g>
	<g>
		<g>
			<path class="st1" d="M283.2,216h-20.5c-1,0-1.8,0.8-1.8,1.7v20.5c0,1,0.8,1.7,1.8,1.7h20.5c1,0,1.8-0.8,1.8-1.7v-20.5
				C285,216.8,284.2,216,283.2,216z M268.1,236.5h-3.6V225h3.6V236.5z M266.3,223.4c-1.1,0-2.1-0.9-2.1-2.1c0-1.1,0.9-2.1,2.1-2.1
				c1.1,0,2.1,0.9,2.1,2.1S267.5,223.4,266.3,223.4z M281.5,236.5h-3.6v-5.6c0-1.3,0-3-1.8-3c-1.9,0-2.1,1.4-2.1,2.9v5.7h-3.6V225
				h3.4v1.6l0,0c0.5-0.9,1.6-1.8,3.4-1.8c3.6,0,4.3,2.4,4.3,5.5L281.5,236.5L281.5,236.5z"/>
		</g>
	</g>
</g>
<path class="st1" d="M423.6,216c-5.4,0-9.6,4.5-9.6,9.9c0,5.7,7.4,14.1,9.6,14.1c1.9,0,9.3-8.4,9.3-14.1
	C432.9,220.5,428.7,216,423.6,216z M423.6,231.1c-3.3,0-5.9-2.5-5.9-5.5c0-1.4,0.5-2.6,1.2-3.6l0,0c0,1.2,1,2.2,2.3,2.2
	s2.3-1,2.3-2.2c0-0.9-0.6-1.7-1.4-2.1c0.5-0.1,1-0.2,1.5-0.2c3,0,5.6,2.5,5.6,5.9C429.2,228.5,426.6,231.1,423.6,231.1z"/>
<g>
	<path class="st5" d="M819.7,107.9c-0.2,3.4-2.5,8-7.1,13.9c-4.7,6.1-8.7,9.2-12,9.2c-2,0-3.7-1.9-5.1-5.6
		c-0.9-3.4-1.9-6.8-2.8-10.3c-1-3.7-2.2-5.6-3.3-5.6c-0.3,0-1.2,0.5-2.7,1.6l-1.6-2.1c1.7-1.5,3.4-3,5.1-4.5c2.3-2,4-3,5.1-3.1
		c2.7-0.3,4.4,1.6,5,5.5c0.7,4.3,1.1,6.9,1.4,7.9c0.8,3.5,1.6,5.3,2.6,5.3c0.7,0,1.8-1.1,3.3-3.4s2.2-4,2.3-5.2c0.2-2-0.6-3-2.3-3
		c-0.8,0-1.7,0.2-2.6,0.6c1.7-5.6,5-8.3,9.8-8.1C818.2,101.1,819.9,103.4,819.7,107.9z"/>
</g>
<g>
	<polygon class="st5" points="735.6,113.8 736.8,117.6 740.8,117.6 737.6,120 738.8,123.8 735.6,121.4 732.3,123.8 733.6,120 
		730.3,117.6 734.3,117.6 	"/>
	<path class="st5" d="M746.8,101h-22.5c-2.9,0-5.3,2.4-5.3,5.3v19.4c0,2.9,2.4,5.3,5.3,5.3h22.5c2.9,0,5.3-2.4,5.3-5.3v-19.4
		C752.1,103.4,749.7,101,746.8,101z M734,104.1c0.9,0,1.6,0.7,1.6,1.6s-0.7,1.6-1.6,1.6s-1.6-0.7-1.6-1.6
		C732.4,104.8,733.1,104.1,734,104.1z M729,104.1c0.9,0,1.6,0.7,1.6,1.6s-0.7,1.6-1.6,1.6s-1.6-0.7-1.6-1.6
		C727.4,104.8,728.1,104.1,729,104.1z M724,104.1c0.9,0,1.6,0.7,1.6,1.6s-0.7,1.6-1.6,1.6s-1.6-0.7-1.6-1.6
		C722.4,104.8,723.1,104.1,724,104.1z M749,125.7c0,1.2-1,2.2-2.2,2.2h-22.5c-1.2,0-2.2-1-2.2-2.2v-15.9H749V125.7L749,125.7z"/>
</g>
<g>
	<path class="st5" d="M548.9,104.6c-1.4,0.6-2.8,1-4.3,1.2c1.6-0.9,2.8-2.4,3.3-4.2c-1.5,0.9-3.1,1.5-4.8,1.8
		c-1.4-1.5-3.3-2.4-5.5-2.4c-4.2,0-7.6,3.4-7.6,7.6c0,0.6,0.1,1.2,0.2,1.7c-6.3-0.3-11.9-3.3-15.6-7.9c-0.7,1.1-1,2.4-1,3.8
		c0,2.6,1.3,4.9,3.4,6.3c-1.2,0-2.4-0.4-3.4-1v0.1c0,3.7,2.6,6.7,6.1,7.4c-0.6,0.2-1.3,0.3-2,0.3c-0.5,0-1,0-1.4-0.1
		c1,3,3.8,5.2,7.1,5.3c-2.6,2-5.9,3.2-9.4,3.2c-0.6,0-1.2,0-1.8-0.1c3.4,2.1,7.3,3.4,11.6,3.4c13.9,0,21.5-11.5,21.5-21.5
		c0-0.3,0-0.7,0-1C546.6,107.4,547.9,106.1,548.9,104.6L548.9,104.6z"/>
</g>
<path class="st5" d="M688,114.1h-4.7v-4.7h-3.8v4.7h-4.7v3.8h4.7v4.7h3.8v-4.7h4.7 M658,113.2v5.8h8.2c-0.6,3.5-3.7,6.1-8.2,6.1
	c-4.9,0-9-4.2-9-9.1s4-9.1,9-9.1c2.2,0,4.2,0.8,5.8,2.3l0,0l4.2-4.2c-2.6-2.4-6-3.9-10-3.9c-8.3,0-15,6.7-15,15s6.7,15,15,15
	c8.7,0,14.4-6.1,14.4-14.7c0-1.1-0.1-2.1-0.3-3.2L658,113.2L658,113.2z"/>
<g>
	<path class="st5" d="M596,101c-8.3,0-15,6.7-15,15c0,6.4,4,11.8,9.5,14c-0.1-1.2-0.3-3,0.1-4.3c0.3-1.2,1.8-7.5,1.8-7.5
		s-0.4-0.9-0.4-2.2c0-2.1,1.2-3.6,2.7-3.6c1.3,0,1.9,1,1.9,2.1c0,1.3-0.8,3.2-1.2,5c-0.4,1.5,0.7,2.7,2.2,2.7c2.7,0,4.7-2.8,4.7-6.9
		c0-3.6-2.6-6.1-6.3-6.1c-4.3,0-6.8,3.2-6.8,6.5c0,1.3,0.5,2.7,1.1,3.4c0.1,0.1,0.1,0.3,0.1,0.4c-0.1,0.5-0.4,1.5-0.4,1.7
		c-0.1,0.3-0.2,0.3-0.5,0.2c-1.9-0.9-3-3.6-3-5.8c0-4.7,3.4-9.1,9.9-9.1c5.2,0,9.2,3.7,9.2,8.7c0,5.2-3.3,9.3-7.8,9.3
		c-1.5,0-2.9-0.8-3.4-1.7c0,0-0.8,2.9-0.9,3.6c-0.3,1.3-1.3,2.9-1.9,3.9c1.4,0.4,2.9,0.7,4.4,0.7c8.3,0,15-6.7,15-15
		S604.3,101,596,101z"/>
</g>
<g>
	<path class="st5" d="M640.4,102.7c-1.1-1.1-2.4-1.7-4-1.7h-18.8c-1.5,0-2.9,0.5-4,1.7c-1.1,1.1-1.7,2.4-1.7,4v18.8
		c0,1.5,0.5,2.9,1.7,4c1.1,1.1,2.4,1.7,4,1.7h18.8c1.5,0,2.9-0.5,4-1.7c1.1-1.1,1.7-2.4,1.7-4v-18.8
		C642,105.1,641.4,103.8,640.4,102.7L640.4,102.7z M624.4,118.9c-0.8,0.8-1.8,1.2-2.9,1.2s-2.1-0.4-2.9-1.2
		c-0.8-0.8-1.2-1.8-1.2-2.9s0.4-2.1,1.2-2.9s1.8-1.2,2.9-1.2s2.1,0.4,2.9,1.2c0.8,0.8,1.2,1.8,1.2,2.9S625.2,118.1,624.4,118.9
		L624.4,118.9z M635.4,118.9c-0.8,0.8-1.8,1.2-2.9,1.2s-2.1-0.4-2.9-1.2c-0.8-0.8-1.2-1.8-1.2-2.9s0.4-2.1,1.2-2.9s1.8-1.2,2.9-1.2
		s2.1,0.4,2.9,1.2c0.8,0.8,1.2,1.8,1.2,2.9S636.2,118.1,635.4,118.9L635.4,118.9z"/>
</g>
<g>
	<path class="st5" d="M717.3,115.3c-0.1,0.1-0.2,0.2-0.3,0.2v-11.6c0-1.6-1.2-2.9-2.7-2.9h-21c-1.5,0-2.7,1.3-2.7,2.9v11.6
		c-0.1-0.1-0.2-0.2-0.4-0.2c-0.9-0.6-1.5,0.2-0.9,1c1.1,1.3,3.1,2.9,6.2,4.2c-3.3,11.2,8,13,7.9,7.3c0,0.1,0-3.3,0-5.7
		c0.3,0.1,0.6,0.1,0.8,0.2c0,2.4,0,5.6,0,5.5c-0.2,5.8,11.2,4,7.9-7.3c3.1-1.3,5.2-2.9,6.2-4.2C718.8,115.5,718.2,114.7,717.3,115.3
		L717.3,115.3z M706.1,118.1c-1.4-0.1-1.9,0.5-2,1.4c-0.3-0.2-0.7-0.5-1-0.8c-0.1-0.1-0.1-0.1-0.2-0.1c-0.3-0.3-0.8-0.5-1.6-0.5
		c-1.9,0.1-5.3,0.4-9.2-1.7v-11.3c0-2,0.5-2.7,2.4-2.7h18.6c1.8,0,2.4,0.8,2.4,2.7v11.2C711.5,118.6,708,118.2,706.1,118.1
		L706.1,118.1z"/>
	<path class="st5" d="M708.1,110c-2,0-3.6,1.5-3.6,3.4s1.6,3.4,3.6,3.4s3.6-1.5,3.6-3.4S710.1,110,708.1,110L708.1,110z"/>
	<path class="st5" d="M703.3,113.4c0,1.9-1.6,3.4-3.6,3.4s-3.6-1.5-3.6-3.4s1.6-3.4,3.6-3.4S703.3,111.5,703.3,113.4L703.3,113.4z"
		/>
</g>
<path class="st5" d="M506.1,131v-13.7h4.6l0.7-5.3h-5.3v-3.4c0-1.5,0.4-2.6,2.6-2.6h2.8v-4.8c-0.5-0.1-2.2-0.2-4.1-0.2
	c-4.1,0-6.9,2.5-6.9,7v3.9H496v5.3h4.6V131H506.1z"/>
<g>
	<path class="st5" d="M766.3,119.3c2.3-1.2,4.5-2.3,6.7-3.5c-2.3-1.2-4.5-2.3-6.7-3.5V119.3z"/>
	<path class="st5" d="M769,101c-8.3,0-15,6.7-15,15s6.7,15,15,15s15-6.7,15-15S777.3,101,769,101L769,101z M779.2,121
		c-0.3,1.1-1.2,2-2.3,2.1c-2.6,0.3-5.3,0.3-7.9,0.3s-5.3,0-7.9-0.3c-1.1-0.1-2-1-2.3-2.1c-0.4-1.6-0.4-3.4-0.4-5c0-1.7,0-3.4,0.4-5
		c0.3-1.1,1.2-2,2.3-2.1c2.6-0.3,5.3-0.3,7.9-0.3s5.3,0,7.9,0.3c1.1,0.1,2,1,2.3,2.1c0.4,1.6,0.4,3.4,0.4,5
		C779.6,117.7,779.6,119.4,779.2,121L779.2,121z"/>
</g>
<g>
	<path class="st5" d="M565,103.7c4,0,4.5,0,6.1,0.1c1.5,0.1,2.3,0.3,2.8,0.5c0.7,0.3,1.2,0.6,1.7,1.1s0.8,1,1.1,1.7
		c0.2,0.5,0.5,1.3,0.5,2.8c0.1,1.6,0.1,2.1,0.1,6.1s0,4.5-0.1,6.1c-0.1,1.5-0.3,2.3-0.5,2.8c-0.3,0.7-0.6,1.2-1.1,1.7
		s-1,0.8-1.7,1.1c-0.5,0.2-1.3,0.5-2.8,0.5c-1.6,0.1-2.1,0.1-6.1,0.1s-4.5,0-6.1-0.1c-1.5-0.1-2.3-0.3-2.8-0.5
		c-0.7-0.3-1.2-0.6-1.7-1.1s-0.8-1-1.1-1.7c-0.2-0.5-0.5-1.3-0.5-2.8c-0.1-1.6-0.1-2.1-0.1-6.1s0-4.5,0.1-6.1
		c0.1-1.5,0.3-2.3,0.5-2.8c0.3-0.7,0.6-1.2,1.1-1.7s1-0.8,1.7-1.1c0.5-0.2,1.3-0.5,2.8-0.5C560.5,103.7,561,103.7,565,103.7
		 M565,101c-4.1,0-4.6,0-6.2,0.1c-1.6,0.1-2.7,0.3-3.6,0.7c-1,0.4-1.8,0.9-2.7,1.7s-1.3,1.7-1.7,2.7s-0.6,2-0.7,3.6
		c-0.1,1.6-0.1,2.1-0.1,6.2s0,4.6,0.1,6.2s0.3,2.7,0.7,3.6c0.4,1,0.9,1.8,1.7,2.7c0.8,0.9,1.7,1.3,2.7,1.7s2,0.6,3.6,0.7
		c1.6,0.1,2.1,0.1,6.2,0.1s4.6,0,6.2-0.1c1.6-0.1,2.7-0.3,3.6-0.7c1-0.4,1.8-0.9,2.7-1.7s1.3-1.7,1.7-2.7s0.6-2,0.7-3.6
		c0.1-1.6,0.1-2.1,0.1-6.2s0-4.6-0.1-6.2s-0.3-2.7-0.7-3.6c-0.4-1-0.9-1.8-1.7-2.7s-1.7-1.3-2.7-1.7c-1-0.4-2-0.6-3.6-0.7
		C569.6,101,569.1,101,565,101L565,101z"/>
	<path class="st5" d="M565,108.3c-4.3,0-7.7,3.4-7.7,7.7s3.4,7.7,7.7,7.7s7.7-3.4,7.7-7.7S569.3,108.3,565,108.3z M565,121
		c-2.8,0-5-2.2-5-5s2.2-5,5-5s5,2.2,5,5S567.8,121,565,121z"/>
	<circle class="st5" cx="573" cy="108" r="1.8"/>
</g>
<g>
	<path class="st1" d="M819.7,138.9c-0.2,3.4-2.5,8-7.1,13.9c-4.7,6.1-8.7,9.2-12,9.2c-2,0-3.7-1.9-5.1-5.6
		c-0.9-3.4-1.9-6.8-2.8-10.3c-1-3.7-2.2-5.6-3.3-5.6c-0.3,0-1.2,0.5-2.7,1.6l-1.6-2.1c1.7-1.5,3.4-3,5.1-4.5c2.3-2,4-3,5.1-3.1
		c2.7-0.3,4.4,1.6,5,5.5c0.7,4.3,1.1,6.9,1.4,7.9c0.8,3.5,1.6,5.3,2.6,5.3c0.7,0,1.8-1.1,3.3-3.4c1.5-2.3,2.2-4,2.3-5.2
		c0.2-2-0.6-3-2.3-3c-0.8,0-1.7,0.2-2.6,0.6c1.7-5.6,5-8.3,9.8-8.1C818.2,132.1,819.9,134.4,819.7,138.9z"/>
</g>
<g>
	<polygon class="st1" points="735.6,144.8 736.8,148.6 740.8,148.6 737.6,151 738.8,154.8 735.6,152.4 732.3,154.8 733.6,151 
		730.3,148.6 734.3,148.6 	"/>
	<path class="st1" d="M746.8,132h-22.5c-2.9,0-5.3,2.4-5.3,5.3v19.4c0,2.9,2.4,5.3,5.3,5.3h22.5c2.9,0,5.3-2.4,5.3-5.3v-19.4
		C752.1,134.4,749.7,132,746.8,132z M734,135.1c0.9,0,1.6,0.7,1.6,1.6c0,0.9-0.7,1.6-1.6,1.6s-1.6-0.7-1.6-1.6
		S733.1,135.1,734,135.1z M729,135.1c0.9,0,1.6,0.7,1.6,1.6c0,0.9-0.7,1.6-1.6,1.6s-1.6-0.7-1.6-1.6S728.1,135.1,729,135.1z
		 M724,135.1c0.9,0,1.6,0.7,1.6,1.6c0,0.9-0.7,1.6-1.6,1.6s-1.6-0.7-1.6-1.6S723.1,135.1,724,135.1z M749,156.7c0,1.2-1,2.2-2.2,2.2
		h-22.5c-1.2,0-2.2-1-2.2-2.2v-15.9H749V156.7L749,156.7z"/>
</g>
<g>
	<path class="st1" d="M548.9,135.6c-1.4,0.6-2.8,1-4.3,1.2c1.6-0.9,2.8-2.4,3.3-4.2c-1.5,0.9-3.1,1.5-4.8,1.8
		c-1.4-1.5-3.3-2.4-5.5-2.4c-4.2,0-7.6,3.4-7.6,7.6c0,0.6,0.1,1.2,0.2,1.7c-6.3-0.3-11.9-3.3-15.6-7.9c-0.7,1.1-1,2.4-1,3.8
		c0,2.6,1.3,4.9,3.4,6.3c-1.2,0-2.4-0.4-3.4-1v0.1c0,3.7,2.6,6.7,6.1,7.4c-0.6,0.2-1.3,0.3-2,0.3c-0.5,0-1,0-1.4-0.1
		c1,3,3.8,5.2,7.1,5.3c-2.6,2-5.9,3.2-9.4,3.2c-0.6,0-1.2,0-1.8-0.1c3.4,2.1,7.3,3.4,11.6,3.4c13.9,0,21.5-11.5,21.5-21.5
		c0-0.3,0-0.7,0-1C546.6,138.4,547.9,137.1,548.9,135.6L548.9,135.6z"/>
</g>
<path class="st1" d="M688,145.1h-4.7v-4.7h-3.8v4.7h-4.7v3.8h4.7v4.7h3.8v-4.7h4.7 M658,144.2v5.8h8.2c-0.6,3.5-3.7,6.1-8.2,6.1
	c-4.9,0-9-4.2-9-9.1s4-9.1,9-9.1c2.2,0,4.2,0.8,5.8,2.3l0,0l4.2-4.2c-2.6-2.4-6-3.9-10-3.9c-8.3,0-15,6.7-15,15s6.7,15,15,15
	c8.7,0,14.4-6.1,14.4-14.7c0-1.1-0.1-2.1-0.3-3.2L658,144.2L658,144.2z"/>
<g>
	<path class="st1" d="M596,132c-8.3,0-15,6.7-15,15c0,6.4,4,11.8,9.5,14c-0.1-1.2-0.3-3,0.1-4.3c0.3-1.2,1.8-7.5,1.8-7.5
		s-0.4-0.9-0.4-2.2c0-2.1,1.2-3.6,2.7-3.6c1.3,0,1.9,1,1.9,2.1c0,1.3-0.8,3.2-1.2,5c-0.4,1.5,0.7,2.7,2.2,2.7c2.7,0,4.7-2.8,4.7-6.9
		c0-3.6-2.6-6.1-6.3-6.1c-4.3,0-6.8,3.2-6.8,6.5c0,1.3,0.5,2.7,1.1,3.4c0.1,0.1,0.1,0.3,0.1,0.4c-0.1,0.5-0.4,1.5-0.4,1.7
		c-0.1,0.3-0.2,0.3-0.5,0.2c-1.9-0.9-3-3.6-3-5.8c0-4.7,3.4-9.1,9.9-9.1c5.2,0,9.2,3.7,9.2,8.7c0,5.2-3.3,9.3-7.8,9.3
		c-1.5,0-2.9-0.8-3.4-1.7c0,0-0.8,2.9-0.9,3.6c-0.3,1.3-1.3,2.9-1.9,3.9c1.4,0.4,2.9,0.7,4.4,0.7c8.3,0,15-6.7,15-15
		C611,138.7,604.3,132,596,132z"/>
</g>
<g>
	<path class="st1" d="M640.4,133.7c-1.1-1.1-2.4-1.7-4-1.7h-18.8c-1.5,0-2.9,0.5-4,1.7c-1.1,1.1-1.7,2.4-1.7,4v18.8
		c0,1.5,0.5,2.9,1.7,4c1.1,1.1,2.4,1.7,4,1.7h18.8c1.5,0,2.9-0.5,4-1.7c1.1-1.1,1.7-2.4,1.7-4v-18.8
		C642,136.1,641.4,134.8,640.4,133.7L640.4,133.7z M624.4,149.9c-0.8,0.8-1.8,1.2-2.9,1.2s-2.1-0.4-2.9-1.2
		c-0.8-0.8-1.2-1.8-1.2-2.9s0.4-2.1,1.2-2.9c0.8-0.8,1.8-1.2,2.9-1.2s2.1,0.4,2.9,1.2c0.8,0.8,1.2,1.8,1.2,2.9
		S625.2,149.1,624.4,149.9L624.4,149.9z M635.4,149.9c-0.8,0.8-1.8,1.2-2.9,1.2s-2.1-0.4-2.9-1.2c-0.8-0.8-1.2-1.8-1.2-2.9
		s0.4-2.1,1.2-2.9c0.8-0.8,1.8-1.2,2.9-1.2s2.1,0.4,2.9,1.2c0.8,0.8,1.2,1.8,1.2,2.9S636.2,149.1,635.4,149.9L635.4,149.9z"/>
</g>
<g>
	<path class="st1" d="M717.3,146.3c-0.1,0.1-0.2,0.2-0.3,0.2v-11.6c0-1.6-1.2-2.9-2.7-2.9h-21c-1.5,0-2.7,1.3-2.7,2.9v11.6
		c-0.1-0.1-0.2-0.2-0.4-0.2c-0.9-0.6-1.5,0.2-0.9,1c1.1,1.3,3.1,2.9,6.2,4.2c-3.3,11.2,8,13,7.9,7.3c0,0.1,0-3.3,0-5.7
		c0.3,0.1,0.6,0.1,0.8,0.2c0,2.4,0,5.6,0,5.5c-0.2,5.8,11.2,4,7.9-7.3c3.1-1.3,5.2-2.9,6.2-4.2C718.8,146.5,718.2,145.7,717.3,146.3
		L717.3,146.3z M706.1,149.1c-1.4-0.1-1.9,0.5-2,1.4c-0.3-0.2-0.7-0.5-1-0.8c-0.1-0.1-0.1-0.1-0.2-0.1c-0.3-0.3-0.8-0.5-1.6-0.5
		c-1.9,0.1-5.3,0.4-9.2-1.7v-11.3c0-2,0.5-2.7,2.4-2.7h18.6c1.8,0,2.4,0.8,2.4,2.7v11.2C711.5,149.6,708,149.2,706.1,149.1
		L706.1,149.1z"/>
	<path class="st1" d="M708.1,141c-2,0-3.6,1.5-3.6,3.4s1.6,3.4,3.6,3.4s3.6-1.5,3.6-3.4C711.7,142.5,710.1,141,708.1,141L708.1,141z
		"/>
	<path class="st1" d="M703.3,144.4c0,1.9-1.6,3.4-3.6,3.4s-3.6-1.5-3.6-3.4s1.6-3.4,3.6-3.4S703.3,142.5,703.3,144.4L703.3,144.4z"
		/>
</g>
<path class="st1" d="M506.1,162v-13.7h4.6l0.7-5.3h-5.3v-3.4c0-1.5,0.4-2.6,2.6-2.6h2.8v-4.8c-0.5-0.1-2.2-0.2-4.1-0.2
	c-4.1,0-6.9,2.5-6.9,7v3.9H496v5.3h4.6V162H506.1z"/>
<g>
	<path class="st1" d="M766.3,150.3c2.3-1.2,4.5-2.3,6.7-3.5c-2.3-1.2-4.5-2.3-6.7-3.5V150.3z"/>
	<path class="st1" d="M769,132c-8.3,0-15,6.7-15,15s6.7,15,15,15s15-6.7,15-15S777.3,132,769,132L769,132z M779.2,152
		c-0.3,1.1-1.2,2-2.3,2.1c-2.6,0.3-5.3,0.3-7.9,0.3s-5.3,0-7.9-0.3c-1.1-0.1-2-1-2.3-2.1c-0.4-1.6-0.4-3.4-0.4-5c0-1.7,0-3.4,0.4-5
		c0.3-1.1,1.2-2,2.3-2.1c2.6-0.3,5.3-0.3,7.9-0.3s5.3,0,7.9,0.3c1.1,0.1,2,1,2.3,2.1c0.4,1.6,0.4,3.4,0.4,5
		C779.6,148.7,779.6,150.4,779.2,152L779.2,152z"/>
</g>
<g>
	<path class="st1" d="M565,134.7c4,0,4.5,0,6.1,0.1c1.5,0.1,2.3,0.3,2.8,0.5c0.7,0.3,1.2,0.6,1.7,1.1s0.8,1,1.1,1.7
		c0.2,0.5,0.5,1.3,0.5,2.8c0.1,1.6,0.1,2.1,0.1,6.1s0,4.5-0.1,6.1c-0.1,1.5-0.3,2.3-0.5,2.8c-0.3,0.7-0.6,1.2-1.1,1.7
		s-1,0.8-1.7,1.1c-0.5,0.2-1.3,0.5-2.8,0.5c-1.6,0.1-2.1,0.1-6.1,0.1s-4.5,0-6.1-0.1c-1.5-0.1-2.3-0.3-2.8-0.5
		c-0.7-0.3-1.2-0.6-1.7-1.1s-0.8-1-1.1-1.7c-0.2-0.5-0.5-1.3-0.5-2.8c-0.1-1.6-0.1-2.1-0.1-6.1s0-4.5,0.1-6.1
		c0.1-1.5,0.3-2.3,0.5-2.8c0.3-0.7,0.6-1.2,1.1-1.7s1-0.8,1.7-1.1c0.5-0.2,1.3-0.5,2.8-0.5C560.5,134.7,561,134.7,565,134.7
		 M565,132c-4.1,0-4.6,0-6.2,0.1c-1.6,0.1-2.7,0.3-3.6,0.7c-1,0.4-1.8,0.9-2.7,1.7s-1.3,1.7-1.7,2.7s-0.6,2-0.7,3.6
		c-0.1,1.6-0.1,2.1-0.1,6.2s0,4.6,0.1,6.2c0.1,1.6,0.3,2.7,0.7,3.6c0.4,1,0.9,1.8,1.7,2.7s1.7,1.3,2.7,1.7s2,0.6,3.6,0.7
		c1.6,0.1,2.1,0.1,6.2,0.1s4.6,0,6.2-0.1c1.6-0.1,2.7-0.3,3.6-0.7c1-0.4,1.8-0.9,2.7-1.7s1.3-1.7,1.7-2.7s0.6-2,0.7-3.6
		c0.1-1.6,0.1-2.1,0.1-6.2s0-4.6-0.1-6.2c-0.1-1.6-0.3-2.7-0.7-3.6c-0.4-1-0.9-1.8-1.7-2.7s-1.7-1.3-2.7-1.7s-2-0.6-3.6-0.7
		C569.6,132,569.1,132,565,132L565,132z"/>
	<path class="st1" d="M565,139.3c-4.3,0-7.7,3.4-7.7,7.7s3.4,7.7,7.7,7.7s7.7-3.4,7.7-7.7S569.3,139.3,565,139.3z M565,152
		c-2.8,0-5-2.2-5-5s2.2-5,5-5s5,2.2,5,5S567.8,152,565,152z"/>
	<circle class="st1" cx="573" cy="139" r="1.8"/>
</g>
<g>
	<polygon class="st1" points="48,84.3 48,88.4 34.7,88.4 34.7,84.3 32,84.3 32,88.4 32,89 32,91 50.7,91 50.7,89 50.7,88.4 
		50.7,84.3 	"/>
	<polygon class="st1" points="41.4,85.6 46.7,79.1 44.1,79.1 44.1,71 38.7,71 38.7,79.1 36.1,79.1 	"/>
</g>
<g>
	<polygon class="st4" points="112,84.3 112,88.4 98.7,88.4 98.7,84.3 96,84.3 96,88.4 96,89 96,91 114.7,91 114.7,89 114.7,88.4 
		114.7,84.3 	"/>
	<polygon class="st4" points="105.4,85.6 110.7,79.1 108.1,79.1 108.1,71 102.7,71 102.7,79.1 100.1,79.1 	"/>
</g>
<g>
	<rect x="52" y="71" class="st1" width="8" height="8"/>
	<rect x="64" y="71" class="st1" width="8" height="8"/>
	<rect x="52" y="83" class="st1" width="8" height="8"/>
	<rect x="64" y="83" class="st1" width="8" height="8"/>
</g>
<g>
	<g>
		<path class="st1" d="M93,72v18H75V72H93 M94,71H74v20h20V71L94,71z"/>
	</g>
	<rect x="79" y="76" class="st1" width="10" height="10"/>
</g>
<g>
	<rect x="116" y="71" class="st4" width="8" height="8"/>
	<rect x="128" y="71" class="st4" width="8" height="8"/>
	<rect x="116" y="83" class="st4" width="8" height="8"/>
	<rect x="128" y="83" class="st4" width="8" height="8"/>
</g>
<g>
	<g>
		<path class="st4" d="M157,72v18h-18V72H157 M158,71h-20v20h20V71L158,71z"/>
	</g>
	<rect x="143" y="76" class="st4" width="10" height="10"/>
</g>
<path class="st1" d="M176.8,84.1c-1,0-1.9,0.4-2.6,1.1l-7.3-3.7c0-0.2,0-0.3,0-0.5s0-0.3,0-0.5l7.5-3.5c0.6,0.6,1.4,0.9,2.3,0.9
	c1.9,0,3.5-1.6,3.5-3.5s-1.6-3.5-3.5-3.5s-3.5,1.6-3.5,3.5c0,0.3,0,0.6,0.1,0.9l-7.3,3.4c-0.6-0.7-1.6-1.2-2.6-1.2
	c-1.9,0-3.5,1.6-3.5,3.5s1.6,3.5,3.5,3.5c1,0,2-0.5,2.6-1.2l7.2,3.6c0,0.2,0,0.4,0,0.5c0,1.9,1.6,3.5,3.5,3.5s3.5-1.6,3.5-3.5
	C180.3,85.6,178.7,84.1,176.8,84.1z"/>
<path class="st4" d="M198.8,84.1c-1,0-1.9,0.4-2.6,1.1l-7.3-3.7c0-0.2,0-0.3,0-0.5s0-0.3,0-0.5l7.5-3.5c0.6,0.6,1.4,0.9,2.3,0.9
	c1.9,0,3.5-1.6,3.5-3.5s-1.6-3.5-3.5-3.5s-3.5,1.6-3.5,3.5c0,0.3,0,0.6,0.1,0.9l-7.3,3.4c-0.6-0.7-1.6-1.2-2.6-1.2
	c-1.9,0-3.5,1.6-3.5,3.5s1.6,3.5,3.5,3.5c1,0,2-0.5,2.6-1.2l7.2,3.6c0,0.2,0,0.4,0,0.5c0,1.9,1.6,3.5,3.5,3.5s3.5-1.6,3.5-3.5
	C202.3,85.6,200.7,84.1,198.8,84.1z"/>
<path class="st1" d="M484.1,234c-3.5-0.6-5-4.1-5.1-4.3l0,0c-0.2-0.4-0.2-0.7-0.1-0.9c0.2-0.5,0.9-0.7,1.4-0.9
	c0.1,0,0.3-0.1,0.4-0.1c0.9-0.3,1.3-0.8,1.3-1.2s-0.3-0.7-0.8-0.9l0,0c-0.2-0.1-0.3-0.1-0.5-0.1c-0.1,0-0.3,0-0.5,0.1
	c-0.4,0.2-0.8,0.3-1.1,0.3c-0.2,0-0.3-0.1-0.4-0.1c0-0.2,0-0.4,0-0.5v-0.1c0.1-1.7,0.2-3.9-0.3-5.2c-1.7-3.8-5.3-4.1-6.3-4.1l0,0
	c0,0,0,0-0.1,0h-0.4c-1.1,0-4.6,0.3-6.3,4.1c-0.6,1.3-0.4,3.4-0.3,5.2c0,0.2,0,0.4,0,0.6c-0.1,0-0.2,0.1-0.5,0.1s-0.7-0.1-1.2-0.3
	c-0.1-0.1-0.3-0.1-0.4-0.1c-0.5,0-1.1,0.3-1.2,0.9c-0.1,0.4,0.1,0.9,1.3,1.4c0.1,0,0.2,0.1,0.4,0.1c0.5,0.2,1.2,0.4,1.4,0.9
	c0.1,0.2,0.1,0.6-0.1,0.9l0,0c-0.1,0.2-1.6,3.7-5.1,4.3c-0.3,0-0.5,0.3-0.4,0.6c0,0.1,0,0.2,0.1,0.2c0.3,0.6,1.4,1.1,3.4,1.4
	c0.1,0.1,0.1,0.4,0.2,0.6c0,0.2,0.1,0.4,0.1,0.6c0.1,0.2,0.2,0.5,0.6,0.5c0.2,0,0.4,0,0.6-0.1c0.3-0.1,0.8-0.2,1.4-0.2
	c0.3,0,0.6,0,1,0.1c0.6,0.1,1.2,0.5,1.8,0.9c0.9,0.6,1.9,1.4,3.5,1.4h0.1c0.1,0,0.1,0,0.2,0c1.6,0,2.6-0.7,3.5-1.4
	c0.6-0.5,1.2-0.8,1.8-0.9c0.3-0.1,0.7-0.1,1-0.1c0.5,0,1,0.1,1.4,0.1c0.2,0,0.4,0.1,0.6,0.1l0,0l0,0c0.3,0,0.5-0.2,0.6-0.4
	s0.1-0.4,0.1-0.6c0-0.2,0.1-0.5,0.2-0.6c2-0.3,3.1-0.8,3.4-1.4c0-0.1,0.1-0.2,0.1-0.2C484.5,234.3,484.4,234.1,484.1,234z"/>
<path class="st5" d="M484.1,209c-3.5-0.6-5-4.1-5.1-4.3l0,0c-0.2-0.4-0.2-0.7-0.1-0.9c0.2-0.5,0.9-0.7,1.4-0.9
	c0.1,0,0.3-0.1,0.4-0.1c0.9-0.3,1.3-0.8,1.3-1.2s-0.3-0.7-0.8-0.9l0,0c-0.2-0.1-0.3-0.1-0.5-0.1c-0.1,0-0.3,0-0.5,0.1
	c-0.4,0.2-0.8,0.3-1.1,0.3c-0.2,0-0.3-0.1-0.4-0.1c0-0.2,0-0.4,0-0.5v-0.1c0.1-1.7,0.2-3.9-0.3-5.2c-1.7-3.8-5.3-4.1-6.3-4.1l0,0
	c0,0,0,0-0.1,0h-0.4c-1.1,0-4.6,0.3-6.3,4.1c-0.6,1.3-0.4,3.4-0.3,5.2c0,0.2,0,0.4,0,0.6c-0.1,0-0.2,0.1-0.5,0.1s-0.7-0.1-1.2-0.3
	c-0.1-0.1-0.3-0.1-0.4-0.1c-0.5,0-1.1,0.3-1.2,0.9c-0.1,0.4,0.1,0.9,1.3,1.4c0.1,0,0.2,0.1,0.4,0.1c0.5,0.2,1.2,0.4,1.4,0.9
	c0.1,0.2,0.1,0.6-0.1,0.9l0,0c-0.1,0.2-1.6,3.7-5.1,4.3c-0.3,0-0.5,0.3-0.4,0.6c0,0.1,0,0.2,0.1,0.2c0.3,0.6,1.4,1.1,3.4,1.4
	c0.1,0.1,0.1,0.4,0.2,0.6c0,0.2,0.1,0.4,0.1,0.6c0.1,0.2,0.2,0.5,0.6,0.5c0.2,0,0.4,0,0.6-0.1c0.3-0.1,0.8-0.2,1.4-0.2
	c0.3,0,0.6,0,1,0.1c0.6,0.1,1.2,0.5,1.8,0.9c0.9,0.6,1.9,1.4,3.5,1.4h0.1c0.1,0,0.1,0,0.2,0c1.6,0,2.6-0.7,3.5-1.4
	c0.6-0.5,1.2-0.8,1.8-0.9c0.3-0.1,0.7-0.1,1-0.1c0.5,0,1,0.1,1.4,0.1c0.2,0,0.4,0.1,0.6,0.1l0,0l0,0c0.3,0,0.5-0.2,0.6-0.4
	s0.1-0.4,0.1-0.6c0-0.2,0.1-0.5,0.2-0.6c2-0.3,3.1-0.8,3.4-1.4c0-0.1,0.1-0.2,0.1-0.2C484.5,209.3,484.4,209.1,484.1,209z"/>
<path d="M484.1,184c-3.5-0.6-5-4.1-5.1-4.3l0,0c-0.2-0.4-0.2-0.7-0.1-0.9c0.2-0.5,0.9-0.7,1.4-0.9c0.1,0,0.3-0.1,0.4-0.1
	c0.9-0.3,1.3-0.8,1.3-1.2s-0.3-0.7-0.8-0.9l0,0c-0.2-0.1-0.3-0.1-0.5-0.1c-0.1,0-0.3,0-0.5,0.1c-0.4,0.2-0.8,0.3-1.1,0.3
	c-0.2,0-0.3-0.1-0.4-0.1c0-0.2,0-0.4,0-0.5v-0.1c0.1-1.7,0.2-3.9-0.3-5.2c-1.7-3.8-5.3-4.1-6.3-4.1l0,0c0,0,0,0-0.1,0h-0.4
	c-1.1,0-4.6,0.3-6.3,4.1c-0.6,1.3-0.4,3.4-0.3,5.2c0,0.2,0,0.4,0,0.6c-0.1,0-0.2,0.1-0.5,0.1s-0.7-0.1-1.2-0.3
	c-0.1-0.1-0.3-0.1-0.4-0.1c-0.5,0-1.1,0.3-1.2,0.9c-0.1,0.4,0.1,0.9,1.3,1.4c0.1,0,0.2,0.1,0.4,0.1c0.5,0.2,1.2,0.4,1.4,0.9
	c0.1,0.2,0.1,0.6-0.1,0.9l0,0c-0.1,0.2-1.6,3.7-5.1,4.3c-0.3,0-0.5,0.3-0.4,0.6c0,0.1,0,0.2,0.1,0.2c0.3,0.6,1.4,1.1,3.4,1.4
	c0.1,0.1,0.1,0.4,0.2,0.6c0,0.2,0.1,0.4,0.1,0.6c0.1,0.2,0.2,0.5,0.6,0.5c0.2,0,0.4,0,0.6-0.1c0.3-0.1,0.8-0.2,1.4-0.2
	c0.3,0,0.6,0,1,0.1c0.6,0.1,1.2,0.5,1.8,0.9c0.9,0.6,1.9,1.4,3.5,1.4h0.1c0.1,0,0.1,0,0.2,0c1.6,0,2.6-0.7,3.5-1.4
	c0.6-0.5,1.2-0.8,1.8-0.9c0.3-0.1,0.7-0.1,1-0.1c0.5,0,1,0.1,1.4,0.1c0.2,0,0.4,0.1,0.6,0.1l0,0l0,0c0.3,0,0.5-0.2,0.6-0.4
	s0.1-0.4,0.1-0.6c0-0.2,0.1-0.5,0.2-0.6c2-0.3,3.1-0.8,3.4-1.4c0-0.1,0.1-0.2,0.1-0.2C484.5,184.3,484.4,184.1,484.1,184z"/>
<g>
	<g>
		<path class="st4" d="M525,70.5c0,1.1-0.4,2.3-1.5,2.7c-3.6,1.3-7,1.8-11.3,1.8c-11.9,0-22.5-8.5-22.5-22.6
			c0-14.7,10.6-27.4,26.8-27.4c12.6,0,21.7,8.7,21.7,20.8c0,10.5-5.9,16.9-13.7,16.9c-3.4,0-5.8-1.7-6.2-5.7h-0.1
			c-2.2,4-5.5,5.7-9.3,5.7c-4.7,0-8-3.4-8-9.3c0-8.8,6.5-16.7,16.8-16.7c1.7,0,3.6,0.3,5.2,0.6c1.9,0.4,3.2,2.3,2.9,4.3l-1.7,10.2
			c-0.7,4.2-0.2,6.2,1.8,6.3c3.1,0.1,7-3.9,7-12.1c0-9.3-6-16.6-17.2-16.6c-11,0-20.6,8.6-20.6,22.3c0,12,7.7,18.8,18.4,18.8
			c2.8,0,5.8-0.5,8.4-1.4c0.5-0.2,1.3-0.2,1.8,0.1C524.3,69.5,525,70,525,70.5L525,70.5z M518.9,42.7c-0.6-0.1-1.3-0.3-2.2-0.3
			c-4.7,0-8.5,4.7-8.5,10.2c0,2.7,1.2,4.5,3.6,4.5c2.7,0,5.5-3.4,6.1-7.5L518.9,42.7z"/>
	</g>
	<path class="st4" d="M514,100c-27.6,0-50-22.4-50-50s22.4-50,50-50c27.6,0,50,22.4,50,50S541.6,100,514,100z M514,3
		c-25.9,0-47,21.1-47,47s21.1,47,47,47c25.9,0,47-21.1,47-47S539.9,3,514,3z"/>
</g>
<polygon class="st9" points="259,53 263.8,59 267.8,59 263,53 267.8,47 263.8,47 "/>
<polygon class="st9" points="272,47 268,47 272.8,53 268,59 272,59 276.8,53 "/>
<polygon points="259,66 263.8,72 267.8,72 263,66 267.8,60 263.8,60 "/>
<polygon points="272,60 268,60 272.8,66 268,72 272,72 276.8,66 "/>
<g>
	<ellipse cx="489.3" cy="186.7" rx="3.3" ry="3.3"/>
	<path d="M501.7,190h-4.6c0-6.2-5-11.2-11.1-11.2l0,0v-4.7C494.7,174.1,501.7,181.2,501.7,190z"/>
	<path d="M505,190c0-10.6-8.5-19.2-19-19.2V166c13.1,0,23.7,10.7,23.7,24H505z"/>
</g>
<g>
	<ellipse class="st5" cx="489.3" cy="211.7" rx="3.3" ry="3.3"/>
	<path class="st5" d="M501.7,215h-4.6c0-6.2-5-11.2-11.1-11.2l0,0v-4.7C494.7,199.1,501.7,206.2,501.7,215z"/>
	<path class="st5" d="M505,215c0-10.6-8.5-19.2-19-19.2V191c13.1,0,23.7,10.7,23.7,24H505z"/>
</g>
<g>
	<ellipse class="st1" cx="489.3" cy="236.7" rx="3.3" ry="3.3"/>
	<path class="st1" d="M501.7,240h-4.6c0-6.2-5-11.2-11.1-11.2l0,0v-4.7C494.7,224.1,501.7,231.2,501.7,240z"/>
	<path class="st1" d="M505,240c0-10.6-8.5-19.2-19-19.2V216c13.1,0,23.7,10.7,23.7,24H505z"/>
</g>
<g>
	<path class="st1" d="M337.3,32.6h4.2V46h-4.2V32.6z M339.4,26c1.3,0,2.4,1.1,2.4,2.4s-1.1,2.4-2.4,2.4s-2.4-1.1-2.4-2.4
		S338.1,26,339.4,26"/>
	<path class="st1" d="M344.1,32.6h4v1.8h0.1c0.6-1,1.9-2.2,3.9-2.2c4.2,0,5,2.8,5,6.4V46h-4.2v-6.5c0-1.5,0-3.5-2.2-3.5
		s-2.5,1.7-2.5,3.4V46h-4.1L344.1,32.6L344.1,32.6z"/>
</g>
<g>
	<path d="M534.2,188c0.6,0,1.1-0.2,1.5-0.6l-7.2-7.2c-0.2,0.1-0.3,0.2-0.5,0.4c-0.5,0.4-1,0.7-1.3,0.9s-0.8,0.4-1.4,0.7
		c-0.6,0.2-1.1,0.3-1.6,0.3l0,0c-0.5,0-1-0.1-1.6-0.3s-1-0.5-1.3-0.7s-0.8-0.5-1.3-0.9c-0.2-0.1-0.3-0.2-0.5-0.4l-7.2,7.2
		c0.4,0.4,0.9,0.6,1.5,0.6H534.2z"/>
	<path d="M512.4,175.7c-0.5-0.4-1-0.8-1.4-1.2v11l6.4-6.4C516.1,178.2,514.4,177.1,512.4,175.7L512.4,175.7z"/>
	<path d="M535,175.7c-1.9,1.3-3.6,2.4-4.9,3.4l6.4,6.4v-11C536.1,174.9,535.6,175.3,535,175.7L535,175.7z"/>
	<path d="M534.2,168h-20.9c-0.7,0-1.3,0.2-1.7,0.7c-0.4,0.5-0.6,1.1-0.6,1.8c0,0.6,0.3,1.2,0.8,1.9c0.5,0.7,1.1,1.2,1.7,1.6
		c0.3,0.2,1.3,0.9,2.9,2c0.9,0.6,1.6,1.1,2.3,1.6c0.6,0.4,1,0.7,1.4,1c0,0,0.1,0.1,0.2,0.1c0.1,0.1,0.2,0.2,0.4,0.3
		c0.3,0.2,0.6,0.4,0.8,0.5s0.5,0.3,0.7,0.5c0.3,0.2,0.6,0.3,0.8,0.4c0.3,0.1,0.5,0.1,0.7,0.1l0,0c0.2,0,0.5,0,0.7-0.1
		c0.3-0.1,0.5-0.2,0.8-0.4s0.5-0.3,0.7-0.5c0.2-0.1,0.5-0.3,0.8-0.5c0.2-0.1,0.3-0.2,0.4-0.3c0.1-0.1,0.2-0.1,0.2-0.1
		c0.3-0.2,0.8-0.5,1.4-1c1.2-0.8,2.9-2,5.2-3.6c0.7-0.5,1.3-1.1,1.7-1.7c0.5-0.7,0.7-1.4,0.7-2.1c0-0.6-0.2-1.2-0.7-1.6
		C535.3,168.2,534.8,168,534.2,168L534.2,168z"/>
</g>
<g>
	<path class="st5" d="M534.2,213c0.6,0,1.1-0.2,1.5-0.6l-7.2-7.2c-0.2,0.1-0.3,0.2-0.5,0.4c-0.5,0.4-1,0.7-1.3,0.9s-0.8,0.4-1.4,0.7
		c-0.6,0.2-1.1,0.3-1.6,0.3l0,0c-0.5,0-1-0.1-1.6-0.3s-1-0.5-1.3-0.7s-0.8-0.5-1.3-0.9c-0.2-0.1-0.3-0.2-0.5-0.4l-7.2,7.2
		c0.4,0.4,0.9,0.6,1.5,0.6H534.2z"/>
	<path class="st5" d="M512.4,200.7c-0.5-0.4-1-0.8-1.4-1.2v11l6.4-6.4C516.1,203.2,514.4,202.1,512.4,200.7L512.4,200.7z"/>
	<path class="st5" d="M535,200.7c-1.9,1.3-3.6,2.4-4.9,3.4l6.4,6.4v-11C536.1,199.9,535.6,200.3,535,200.7L535,200.7z"/>
	<path class="st5" d="M534.2,193h-20.9c-0.7,0-1.3,0.2-1.7,0.7c-0.4,0.5-0.6,1.1-0.6,1.8c0,0.6,0.3,1.2,0.8,1.9
		c0.5,0.7,1.1,1.2,1.7,1.6c0.3,0.2,1.3,0.9,2.9,2c0.9,0.6,1.6,1.1,2.3,1.6c0.6,0.4,1,0.7,1.4,1c0,0,0.1,0.1,0.2,0.1
		c0.1,0.1,0.2,0.2,0.4,0.3c0.3,0.2,0.6,0.4,0.8,0.5s0.5,0.3,0.7,0.5c0.3,0.2,0.6,0.3,0.8,0.4c0.3,0.1,0.5,0.1,0.7,0.1l0,0
		c0.2,0,0.5,0,0.7-0.1c0.3-0.1,0.5-0.2,0.8-0.4s0.5-0.3,0.7-0.5c0.2-0.1,0.5-0.3,0.8-0.5c0.2-0.1,0.3-0.2,0.4-0.3
		c0.1-0.1,0.2-0.1,0.2-0.1c0.3-0.2,0.8-0.5,1.4-1c1.2-0.8,2.9-2,5.2-3.6c0.7-0.5,1.3-1.1,1.7-1.7c0.5-0.7,0.7-1.4,0.7-2.1
		c0-0.6-0.2-1.2-0.7-1.6C535.3,193.2,534.8,193,534.2,193L534.2,193z"/>
</g>
<g>
	<path class="st1" d="M534.2,238c0.6,0,1.1-0.2,1.5-0.6l-7.2-7.2c-0.2,0.1-0.3,0.2-0.5,0.4c-0.5,0.4-1,0.7-1.3,0.9s-0.8,0.4-1.4,0.7
		c-0.6,0.2-1.1,0.3-1.6,0.3l0,0c-0.5,0-1-0.1-1.6-0.3s-1-0.5-1.3-0.7s-0.8-0.5-1.3-0.9c-0.2-0.1-0.3-0.2-0.5-0.4l-7.2,7.2
		c0.4,0.4,0.9,0.6,1.5,0.6H534.2z"/>
	<path class="st1" d="M512.4,225.7c-0.5-0.4-1-0.8-1.4-1.2v11l6.4-6.4C516.1,228.2,514.4,227.1,512.4,225.7L512.4,225.7z"/>
	<path class="st1" d="M535,225.7c-1.9,1.3-3.6,2.4-4.9,3.4l6.4,6.4v-11C536.1,224.9,535.6,225.3,535,225.7L535,225.7z"/>
	<path class="st1" d="M534.2,218h-20.9c-0.7,0-1.3,0.2-1.7,0.7c-0.4,0.5-0.6,1.1-0.6,1.8c0,0.6,0.3,1.2,0.8,1.9
		c0.5,0.7,1.1,1.2,1.7,1.6c0.3,0.2,1.3,0.9,2.9,2c0.9,0.6,1.6,1.1,2.3,1.6c0.6,0.4,1,0.7,1.4,1c0,0,0.1,0.1,0.2,0.1
		c0.1,0.1,0.2,0.2,0.4,0.3c0.3,0.2,0.6,0.4,0.8,0.5s0.5,0.3,0.7,0.5c0.3,0.2,0.6,0.3,0.8,0.4c0.3,0.1,0.5,0.1,0.7,0.1l0,0
		c0.2,0,0.5,0,0.7-0.1c0.3-0.1,0.5-0.2,0.8-0.4s0.5-0.3,0.7-0.5c0.2-0.1,0.5-0.3,0.8-0.5c0.2-0.1,0.3-0.2,0.4-0.3
		c0.1-0.1,0.2-0.1,0.2-0.1c0.3-0.2,0.8-0.5,1.4-1c1.2-0.8,2.9-2,5.2-3.6c0.7-0.5,1.3-1.1,1.7-1.7c0.5-0.7,0.7-1.4,0.7-2.1
		c0-0.6-0.2-1.2-0.7-1.6C535.3,218.2,534.8,218,534.2,218L534.2,218z"/>
</g>
<g>
	<path class="st1" d="M381.7,36.2c0-1.4-1.1-2.5-2.5-2.5c-0.7,0-1.3,0.3-1.7,0.7c-1.7-1.2-4-2-6.6-2l1.1-5.3l3.8,0.8
		c0.1,0.9,0.8,1.6,1.7,1.6c1,0,1.7-0.8,1.7-1.7c0-0.9-0.8-1.7-1.7-1.7c-0.7,0-1.3,0.4-1.6,1l-3.7-0.8l-0.8-0.2l-0.2,0.8l-1.2,5.4
		l0,0c-2.6,0.1-5,0.8-6.8,2.1c-0.5-0.4-1.1-0.7-1.7-0.7c-1.4,0-2.5,1.1-2.5,2.5c0,1,0.6,1.9,1.5,2.3c0,0.2-0.1,0.5-0.1,0.7
		c0,3.8,4.5,6.8,10,6.8s10-3.1,10-6.8c0-0.2,0-0.5-0.1-0.7C381.1,38,381.7,37.2,381.7,36.2z M364.8,37.9c0-0.9,0.8-1.7,1.7-1.7
		s1.7,0.8,1.7,1.7s-0.8,1.7-1.7,1.7C365.5,39.6,364.8,38.8,364.8,37.9z M374.5,42.6c-0.1,0.1-1.4,1.3-4.2,1.3s-4.1-1.3-4.1-1.3
		c-0.2-0.2-0.1-0.5,0-0.6c0.2-0.2,0.5-0.1,0.6,0c0,0,1.1,1,3.4,1c2.4,0,3.6-1,3.6-1c0.2-0.2,0.4-0.2,0.6,0
		C374.7,42.1,374.7,42.4,374.5,42.6z M374.3,39.6c-0.9,0-1.7-0.8-1.7-1.7s0.8-1.7,1.7-1.7c0.9,0,1.7,0.8,1.7,1.7
		S375.2,39.6,374.3,39.6z"/>
</g>
<g>
	<path class="st1" d="M24.6,52.4c-0.9,0.4-1.9,0.7-2.9,0.8c1-0.6,1.8-1.6,2.2-2.8c-1,0.6-2.1,1-3.2,1.2c-0.9-1-2.2-1.6-3.7-1.6
		c-2.8,0-5,2.3-5,5c0,0.4,0,0.8,0.1,1.2C7.9,56,4.2,54,1.7,50.9C1.3,51.7,1,52.5,1,53.5c0,1.8,0.9,3.3,2.2,4.2
		c-0.8,0-1.6-0.3-2.3-0.6c0,0,0,0,0,0.1c0,2.4,1.7,4.5,4.1,5c-0.4,0.1-0.9,0.2-1.3,0.2c-0.3,0-0.6,0-0.9-0.1c0.6,2,2.5,3.5,4.7,3.5
		C5.8,67.2,3.6,68,1.2,68c-0.4,0-0.8,0-1.2-0.1C2.2,69.2,4.9,70,7.7,70c9.3,0,14.4-7.7,14.4-14.4c0-0.2,0-0.4,0-0.7
		C23.1,54.3,23.9,53.4,24.6,52.4L24.6,52.4z"/>
</g>
<g>
	<path class="st1" d="M35,50c-5.5,0-10,4.5-10,10c0,4.2,2.6,7.9,6.4,9.3c-0.1-0.8-0.2-2,0-2.9c0.2-0.8,1.2-5,1.2-5s-0.3-0.6-0.3-1.5
		c0-1.4,0.8-2.4,1.8-2.4c0.9,0,1.3,0.6,1.3,1.4c0,0.9-0.5,2.1-0.8,3.3c-0.2,1,0.5,1.8,1.5,1.8c1.8,0,3.1-1.9,3.1-4.6
		c0-2.4-1.7-4.1-4.2-4.1c-2.8,0-4.5,2.1-4.5,4.3c0,0.9,0.3,1.8,0.7,2.3c0.1,0.1,0.1,0.2,0.1,0.3c-0.1,0.3-0.2,1-0.3,1.1
		c0,0.2-0.1,0.2-0.3,0.1c-1.2-0.6-2-2.4-2-3.9c0-3.2,2.3-6.1,6.6-6.1c3.5,0,6.2,2.5,6.2,5.8c0,3.5-2.2,6.2-5.2,6.2
		c-1,0-2-0.5-2.3-1.1c0,0-0.5,1.9-0.6,2.4c-0.2,0.9-0.8,2-1.2,2.6C33,69.8,34,70,35,70c5.5,0,10-4.5,10-10S40.5,50,35,50z"/>
</g>
<g>
	<g>
		<path d="M565.3,178.2c0-1.7-1.3-3-3-3c-0.8,0-1.5,0.3-2.1,0.8c-2-1.4-4.8-2.3-7.9-2.5l1.4-6.3l4.5,0.9c0.1,1.1,1,2,2.1,2
			s2.1-0.9,2.1-2.1s-0.9-2.1-2.1-2.1c-0.8,0-1.6,0.5-1.9,1.2l-4.5-0.9l-1-0.2l-0.2,1l-1.4,6.5l0,0c-3.2,0.1-6,1-8.1,2.5
			c-0.5-0.5-1.3-0.9-2.1-0.9c-1.7,0-3,1.3-3,3c0,1.2,0.7,2.2,1.7,2.7c0,0.3-0.1,0.6-0.1,0.9c0,4.5,5.4,8.2,12,8.2s12-3.7,12-8.2
			c0-0.3,0-0.6-0.1-0.9C564.5,180.4,565.3,179.4,565.3,178.2z M544.9,180.3c0-1.1,0.9-2,2-2s2,0.9,2,2s-0.9,2-2,2
			C545.8,182.3,544.9,181.4,544.9,180.3z M556.6,185.9c-0.1,0.1-1.7,1.6-5,1.6s-4.9-1.5-4.9-1.6c-0.2-0.2-0.2-0.5,0.1-0.7
			c0.2-0.2,0.5-0.2,0.7,0.1c0,0,1.4,1.2,4.1,1.2c2.8,0,4.3-1.2,4.3-1.2c0.2-0.2,0.5-0.2,0.7,0C556.8,185.3,556.8,185.7,556.6,185.9z
			 M556.3,182.3c-1.1,0-2-0.9-2-2s0.9-2,2-2s2,0.9,2,2C558.4,181.4,557.4,182.3,556.3,182.3z"/>
	</g>
</g>
<g>
	<g>
		<path class="st5" d="M565.3,203.2c0-1.7-1.3-3-3-3c-0.8,0-1.5,0.3-2.1,0.8c-2-1.4-4.8-2.3-7.9-2.5l1.4-6.3l4.5,0.9
			c0.1,1.1,1,2,2.1,2s2.1-0.9,2.1-2.1s-0.9-2.1-2.1-2.1c-0.8,0-1.6,0.5-1.9,1.2l-4.5-0.9l-1-0.2l-0.2,1l-1.4,6.5l0,0
			c-3.2,0.1-6,1-8.1,2.5c-0.5-0.5-1.3-0.9-2.1-0.9c-1.7,0-3,1.3-3,3c0,1.2,0.7,2.2,1.7,2.7c0,0.3-0.1,0.6-0.1,0.9
			c0,4.5,5.4,8.2,12,8.2s12-3.7,12-8.2c0-0.3,0-0.6-0.1-0.9C564.5,205.4,565.3,204.4,565.3,203.2z M544.9,205.3c0-1.1,0.9-2,2-2
			s2,0.9,2,2s-0.9,2-2,2C545.8,207.3,544.9,206.4,544.9,205.3z M556.6,210.9c-0.1,0.1-1.7,1.6-5,1.6s-4.9-1.5-4.9-1.6
			c-0.2-0.2-0.2-0.5,0.1-0.7c0.2-0.2,0.5-0.2,0.7,0.1c0,0,1.4,1.2,4.1,1.2c2.8,0,4.3-1.2,4.3-1.2c0.2-0.2,0.5-0.2,0.7,0
			C556.8,210.3,556.8,210.7,556.6,210.9z M556.3,207.3c-1.1,0-2-0.9-2-2s0.9-2,2-2s2,0.9,2,2C558.4,206.4,557.4,207.3,556.3,207.3z"
			/>
	</g>
</g>
<g>
	<g>
		<path class="st1" d="M565.3,228.2c0-1.7-1.3-3-3-3c-0.8,0-1.5,0.3-2.1,0.8c-2-1.4-4.8-2.3-7.9-2.5l1.4-6.3l4.5,0.9
			c0.1,1.1,1,2,2.1,2s2.1-0.9,2.1-2.1s-0.9-2.1-2.1-2.1c-0.8,0-1.6,0.5-1.9,1.2l-4.5-0.9l-1-0.2l-0.2,1l-1.4,6.5l0,0
			c-3.2,0.1-6,1-8.1,2.5c-0.5-0.5-1.3-0.9-2.1-0.9c-1.7,0-3,1.3-3,3c0,1.2,0.7,2.2,1.7,2.7c0,0.3-0.1,0.6-0.1,0.9
			c0,4.5,5.4,8.2,12,8.2s12-3.7,12-8.2c0-0.3,0-0.6-0.1-0.9C564.5,230.4,565.3,229.4,565.3,228.2z M544.9,230.3c0-1.1,0.9-2,2-2
			s2,0.9,2,2s-0.9,2-2,2C545.8,232.3,544.9,231.4,544.9,230.3z M556.6,235.9c-0.1,0.1-1.7,1.6-5,1.6s-4.9-1.5-4.9-1.6
			c-0.2-0.2-0.2-0.5,0.1-0.7c0.2-0.2,0.5-0.2,0.7,0.1c0,0,1.4,1.2,4.1,1.2c2.8,0,4.3-1.2,4.3-1.2c0.2-0.2,0.5-0.2,0.7,0
			C556.8,235.3,556.8,235.7,556.6,235.9z M556.3,232.3c-1.1,0-2-0.9-2-2s0.9-2,2-2s2,0.9,2,2C558.4,231.4,557.4,232.3,556.3,232.3z"
			/>
	</g>
</g>
<g>
	<path class="st1" d="M612,191.7l0.9-0.9l-0.1-0.1l10.6-10.6l-0.9-0.9l-10.6,10.6l-10.6-10.6l-0.9,0.9l10.6,10.6l-0.1,0.1l0.9,0.9
		H612L612,191.7z"/>
</g>
<polygon class="st10" points="570,166 566,166 570.8,172 566,178 570,178 574.8,172 "/>
<g>
	<polygon class="st11" points="590.4,174.2 583.5,167.4 576.6,174.2 576,173.6 583.5,166 591,173.6 	"/>
</g>
<g>
	<polygon class="st11" points="576.6,175 583.5,181.8 590.4,175 591,175.6 583.5,183.2 576,175.6 	"/>
</g>
<g>
	<polygon class="st1" points="622.2,178.7 611.6,168.2 601.1,178.7 600,177.7 611.6,166 623.2,177.7 	"/>
</g>
<g>
	<polygon class="st1" points="622.2,179 611.6,189.6 601.1,179 600,180.1 611.6,191.7 623.2,180.1 	"/>
</g>
<g class="st12">
	<g>
		<g>
			<g>
				<path class="st1" d="M346,61.6v-5.5c0-0.6,0.5-1.1,1.1-1.1h5.5c0.3,0,0.5,0.2,0.5,0.5v1.8c0,0.3-0.2,0.5-0.5,0.5h-3.8v3.8
					c0,0.3-0.2,0.5-0.5,0.5h-1.8C346.2,62.1,346,61.9,346,61.6z M358.9,55.5v1.8c0,0.3,0.2,0.5,0.5,0.5h3.8v3.8
					c0,0.3,0.2,0.5,0.5,0.5h1.8c0.3,0,0.5-0.2,0.5-0.5v-5.5c0-0.6-0.5-1.1-1.1-1.1h-5.5C359.1,55,358.9,55.2,358.9,55.5z
					 M365.5,67.9h-1.8c-0.3,0-0.5,0.2-0.5,0.5v3.8h-3.8c-0.3,0-0.5,0.2-0.5,0.5v1.8c0,0.3,0.2,0.5,0.5,0.5h5.5
					c0.6,0,1.1-0.5,1.1-1.1v-5.5C366,68.1,365.8,67.9,365.5,67.9z M353.1,74.5v-1.8c0-0.3-0.2-0.5-0.5-0.5h-3.8v-3.8
					c0-0.3-0.2-0.5-0.5-0.5h-1.8c-0.3,0-0.5,0.2-0.5,0.5v5.5c0,0.6,0.5,1.1,1.1,1.1h5.5C352.9,75,353.1,74.8,353.1,74.5z"/>
			</g>
		</g>
	</g>
</g>
<path class="st13" d="M295.8,84.7h-0.9c-0.3,0-0.4,0.2-0.4,0.4v3.1h-8.7v-8.7h3.9c0.3,0,0.4-0.2,0.4-0.4v-0.9c0-0.3-0.2-0.4-0.4-0.4
	h-4.4c-0.7,0-1.3,0.6-1.3,1.3v9.6c0,0.7,0.6,1.3,1.3,1.3l0,0h9.6c0.7,0,1.3-0.6,1.3-1.3l0,0v-3.5C296.2,84.9,296.1,84.7,295.8,84.7z
	 M297.3,76h-3.5c-0.6,0-0.9,0.7-0.4,1.1l1,1l-6.6,6.6c-0.3,0.3-0.3,0.7,0,1l0,0l0.6,0.6c0.3,0.3,0.7,0.3,1,0l0,0l6.6-6.6l1,1
	c0.4,0.4,1.1,0.1,1.1-0.4v-3.5C298,76.3,297.7,76,297.3,76z"/>
</svg>
