<?xml version="1.0" encoding="UTF-8"?><svg id="a" xmlns="http://www.w3.org/2000/svg" viewBox="0 0 764.24 524.28"><defs><style>.b{fill:#da3e1f;}.c{fill:#fff;}.d{fill:#1e33b1;}</style></defs><rect class="c" y=".74" width="763" height="523"/><path class="d" d="M.91,333.94V0h381.65v333.94H.91Z"/><path class="b" d="M.91,381.65h763.29v47.71H.91v-47.71Z"/><path class="b" d="M.91,477.06h763.29c0,15.9.11,45.74-.02,45.74-254.41,1.97-508.85,1.97-763.26,0-.12,0-.02-29.84-.02-45.74Z"/><path class="b" d="M382.55,47.71V0c119.26,0,381.45,2.74,381.45,2.74l.2,44.96h-381.65Z"/><path class="b" d="M382.55,95.41c127.22,0,254.43,0,381.65,0v47.71h-381.65v-47.71Z"/><path class="b" d="M382.55,190.82h381.65v47.71h-381.65v-47.71Z"/><path class="b" d="M382.55,286.23h381.65v47.71h-381.65v-47.71Z"/><rect class="c" x="48" y="47.74" width="48" height="48"/><rect class="c" x="145" y="47.74" width="48" height="48"/><rect class="c" x="240" y="47.74" width="48" height="48"/><rect class="c" x="96" y="144.74" width="48" height="48"/><rect class="c" x="193" y="144.74" width="48" height="48"/><rect class="c" x="288" y="144.74" width="48" height="48"/><rect class="c" x="49" y="239.74" width="48" height="48"/><rect class="c" x="146" y="239.74" width="48" height="48"/><rect class="c" x="241" y="239.74" width="48" height="48"/></svg>