<?xml version="1.0" encoding="UTF-8"?>
<svg xmlns="http://www.w3.org/2000/svg" version="1.1" viewBox="0 0 64 64">
  <defs>
    <style>
      .cls-1 {
        fill-rule: evenodd;
      }
    </style>
  </defs>
  <!-- Generator: Adobe Illustrator 28.6.0, SVG Export Plug-In . SVG Version: 1.2.0 Build 709)  -->
  <g>
    <g id="Layer_1">
      <path class="cls-1" d="M31.9,1.8c10.9,0,19.8,8.5,19.8,18.9v8.1h1.4c2.3,0,4.3,1.8,4.3,4.1v24.3c0,2.2-1.9,4.1-4.3,4.1H10.7c-2.3,0-4.3-1.8-4.3-4.1v-24.3c0-2.2,1.9-4.1,4.3-4.1h1.4v-8.1c0-10.4,8.9-18.9,19.8-18.9h0ZM31.9,9.9c-6.2,0-11.3,4.8-11.3,10.8v8.1h22.6v-8.1c0-6-5.1-10.8-11.3-10.8h0Z"/>
    </g>
  </g>
</svg>