<?xml version="1.0" encoding="UTF-8"?>
<svg id="a" data-name="Layer_1" xmlns="http://www.w3.org/2000/svg" viewBox="0 0 62.23 58.07">
  <defs>
    <style>
      .b {
        fill-rule: evenodd;
      }
    </style>
  </defs>
  <path class="b" d="M60,51.84c1.19-.04,2.18.89,2.23,2.08v4.16H0v-4.16c.05-1.19,1.04-2.12,2.23-2.08h57.77ZM16.6,20.72v24.88h4.16v-24.88h8.28v24.88h4.16v-24.88h8.28v24.88h4.16v-24.88h8.28v24.88h1.92c1.19-.04,2.18.89,2.23,2.08v2.08H4.16v-2.05c.05-1.18,1.04-2.11,2.23-2.08h1.93v-24.91s8.28,0,8.28,0ZM31.12,0l31.12,12.44v4.16h-4.13c-.05,1.19-1.04,2.12-2.23,2.08H6.39c-1.19.04-2.18-.89-2.23-2.08H0v-4.16S31.12,0,31.12,0Z"/>
</svg>