<?xml version="1.0" encoding="UTF-8"?><svg id="a" xmlns="http://www.w3.org/2000/svg" viewBox="0 0 1012.3 237.8"><defs><style>.b{fill:#fff;}.c{fill:#ffcc01;}</style></defs><path class="b" d="m351.8,90.8h24.9v91.9c0,15-10.4,24.2-26,24.2h-31.5c-15.6,0-26-9.1-26-24.2v-91.9h25.2v88.8c0,2.2,1.7,3.9,3.9,3.9h25.6c2.2,0,3.9-1.7,3.9-3.9v-88.8h0Zm35.6,90.7h24.9v25.2h-24.9v-25.2Zm35.8-51.1v-18.3c0-12.2,8.8-21.4,22.6-21.4h36.6c13.8,0,22.6,9.1,22.6,21.4v17h-24v-12.4c0-2.2-1.7-3.9-3.9-3.9h-25.9c-2.2,0-3.9,1.7-3.9,3.9v11.3c0,1.7.9,3.2,3.6,4l38,11.1c11.9,3.6,16,9.8,16,22.8v19.5c0,12.1-9.1,21.4-22.8,21.4h-36.6c-13.6,0-22.5-9.3-22.5-21.4v-18.8h24v14.1c0,2.2,1.7,3.9,3.9,3.9h25.9c2.2,0,3.9-1.7,3.9-3.9v-12.4c0-1.9-1.2-3.4-3.6-4l-38-11.1c-11.9-3.5-15.9-9.7-15.9-22.8h0Zm92.6,51.1h24.9v25.2h-24.9v-25.2Zm130.8,5.8h-40.9l-5.4,19.5h-26l34.7-116h36.2l33.3,116h-26.5l-5.4-19.5Zm-6.1-22l-14.2-52.2-14.6,52.2h28.8Zm124.7-6.5l-6.3,5.3,20.8,42.8h-28l-18.4-39.9h-16.9v39.8h-25.2v-116h58.6c14.6,0,24.5,8.8,24.5,22.2v22.6c-.1,11.4-1.2,16.7-9.1,23.2h0Zm-16.2-17.7v-23.4c0-2.2-1.7-3.9-3.9-3.9h-28.7v31.2h28.7c2.2,0,3.9-1.7,3.9-3.9h0Zm116.9-50.3h32.7v116h-24.2v-73l-25.2,73h-7.3l-25.1-72.8v72.8h-23.2v-116h32.7l20,63.4,19.6-63.4h0Zm146.4,0l-39.2,71.7v44.3h-25.2v-44.1l-38.1-71.9h29.6l22.3,45.2,22.2-45.2h28.4Z"/><path class="c" d="m250,90.8h-95.5L125,0l-29.5,90.8H0l77.3,56.2-29.5,90.8,77.3-56.1,77.3,56.1-29.6-90.8,77.2-56.2h0Zm-125,63l-34.4,25,13.1-40.4-34.4-25h42.5l13.2-40.4,13.1,40.4h42.5l-34.4,25,13.1,40.4-34.3-25h0Z"/></svg>